<?xml version="1.0" encoding="UTF-8"?><svg id="_레이어_1" xmlns="http://www.w3.org/2000/svg" viewBox="0 0 248.02 248.02"><defs><style>.cls-1{fill:#fff;}.cls-2{fill:#361a1d;}.cls-3{fill:#f73e54;}.cls-4{fill:#d51f0d;}.cls-5{opacity:.07;}.cls-6{fill:#f9e5dd;}.cls-7{fill:#f5bd32;}.cls-8{fill:#820000;}.cls-9{fill:#f9c900;}.cls-10{fill:#f1cf3b;}.cls-11{opacity:.12;}.cls-12{fill:#e99f56;}.cls-13{fill:#e27b2e;}.cls-14{fill:#c78dff;}.cls-15{fill:#8c2f06;}.cls-16{fill:#6db3f2;}.cls-17{fill:#f9ad6a;}.cls-18{fill:#43b574;}</style></defs><g><path class="cls-12" d="m225.27,192.23c0,1.44-.16,2.89-.49,4.29-1.5,6.41-6.37,12.41-13.87,17.62h-.01c-1.78,1.25-3.7,2.44-5.75,3.6-.09.05-.17.11-.29.15-1.02.51-2.09,1.05-3.18,1.53-2.36,1.15-4.75,2.13-6.55,2.82-1.79.73-2.98,1.19-2.98,1.19,0,0-1.22.43-3.02,1.05-1.82.64-4.23,1.48-6.66,2.14-2.43.73-4.86,1.43-6.69,1.84-1.84.45-3.07.76-3.07.76,0,0-.3.06-.83.2-.52.13-1.28.32-2.21.48-1.84.38-4.29.87-6.74,1.36-4.91.89-9.84,1.51-9.84,1.51,0,0-3.66.48-7.82.88-.07.01-.13.01-.21.02-.61.04-1.21.1-1.84.14-1.22.11-2.47.2-3.62.28-.59.04-1.14.07-1.65.1-.28.02-.53.03-.78.05-.55.03-1.08.06-1.53.07-.16,0-.32.01-.47.03-.32.03-.65.04-.97.04-.13,0-.26,0-.36.02-.21.01-.41.03-.63.03-.02-.02-.02,0-.02,0-.02-.02-.04-.02-.05,0-.19.01-.47.01-.85.03-.6.01-1.4.04-2.33.06-.29.01-.6.01-.91.03-.5.01-1.03.01-1.58.03-1.15.01-2.3.03-3.47.03h-.51c-1.22,0-2.47-.02-3.61-.05-.31,0-.58-.01-.86-.01-.32,0-.63-.02-.92-.02-.37-.01-.72-.03-1.05-.03-.11,0-.23,0-.34-.01-.35-.02-.67-.02-.97-.03-.15,0-.31-.02-.44-.02-1.05-.03-1.68-.06-1.68-.06,0,0-.32-.01-.88-.03-.32-.01-.62-.03-.93-.04-.32-.01-.69-.04-1.08-.06-.6-.04-1.24-.07-1.94-.12-.44-.03-.92-.06-1.41-.1-.29-.02-.58-.03-.88-.06-.38-.03-.79-.06-1.18-.09h-.07c-.81-.06-1.62-.12-2.41-.21-.61-.06-1.21-.11-1.81-.17-1.83-.17-3.53-.38-4.81-.52-21.52-2.48-40.21-7.83-53.49-15.03-.22-.11-.42-.22-.64-.34-2.14-1.17-4.12-2.39-5.96-3.67l-.02-.02c-7.49-5.19-12.42-11.08-14.05-17.41-.37-1.41-.57-2.84-.6-4.27v-.39c0-23.63,45.81-42.79,102.28-42.79,6.49,0,12.83.26,18.97.76,1.37.11,2.72.23,4.07.36,45.21,4.46,78.5,21.75,78.5,42.06Z"/><polygon class="cls-12" points="225.32 99.45 225.28 166.01 225.28 192.23 21.45 192.23 21.45 99.45 225.32 99.45"/><path class="cls-17" d="m225.28,99.84c0,18.27-26.92,33.62-65.26,39.65-4.85.77-9.88,1.38-15.06,1.83-6.83.61-13.94.91-21.23.91-56.18,0-101.78-18.94-102.27-42.39-.01-.12-.01-.27-.01-.39,0-23.63,45.79-42.79,102.28-42.79,6.48,0,12.83.26,18.97.76,4.73.38,9.34.89,13.81,1.54,39.9,5.78,68.37,21.84,68.76,40.48.01.13.01.26.01.39Z"/></g><path class="cls-6" d="m225.28,140.31v27.49c-.5,1.03-1.1,2.03-1.79,3.03-1.91,2.81-4.48,5.51-7.64,8.03-.96.77-1.95,1.52-3.01,2.26h-.01c-1.82,1.26-3.78,2.49-5.88,3.67-.09.05-.18.11-.3.15-1.04.53-2.14,1.07-3.26,1.57-2.41,1.17-4.85,2.17-6.69,2.88-1.84.75-3.06,1.22-3.06,1.22,0,0-1.23.44-3.08,1.08-1.86.65-4.33,1.5-6.8,2.18-2.49.75-4.96,1.46-6.84,1.88-1.87.46-3.13.77-3.13.77,0,0-.31.06-.85.21-.53.14-1.32.33-2.26.49-1.88.39-4.39.88-6.88,1.39-5.02.91-10.06,1.54-10.06,1.54,0,0-3.86.51-8.2.91-.63.05-1.24.11-1.88.16-1.25.1-2.53.2-3.71.28-.59.04-1.16.07-1.68.1-.28.02-.54.03-.79.05-.58.03-1.1.06-1.56.07-.17,0-.33.02-.48.03-.33.03-.67.05-1,.05-.13,0-.26,0-.37.01-.21.02-.42.03-.64.03h-.01s-.05-.01-.06,0c-.2.02-.48.02-.87.03-.61.02-1.43.05-2.38.07-.3.01-.61.01-.93.03-.51.01-1.05.01-1.61.03-1.17.01-2.35.03-3.54.03h-.53c-1.25,0-2.53-.02-3.69-.05-.31,0-.59-.01-.88-.01-.32,0-.64-.02-.94-.02-.37-.01-.73-.03-1.07-.03-.1,0-.24,0-.34-.02-.36-.01-.68-.01-1-.03-.15,0-.31-.01-.44-.01-1.08-.03-1.73-.06-1.73-.06,0,0-.33-.02-.89-.03-.33-.02-.64-.03-.97-.05-.33-.01-.7-.04-1.1-.06-.61-.04-1.27-.07-1.98-.12-.45-.03-.95-.06-1.45-.1-.29-.02-.59-.03-.89-.06-.39-.03-.81-.06-1.21-.09h-.07c-.82-.06-1.66-.12-2.47-.23-.63-.06-1.24-.1-1.85-.16-1.87-.18-3.61-.39-4.91-.54-21.99-2.53-41.09-8-54.67-15.36-.22-.11-.43-.22-.65-.34-2.19-1.2-4.22-2.46-6.09-3.76h-.02c-.96-.67-1.87-1.35-2.74-2.03-3.4-2.66-6.15-5.48-8.17-8.43-.71-1.01-1.32-2.02-1.82-3.05v-27.5c1.71,3.42,4.38,6.7,7.89,9.76,1.47,1.29,3.08,2.55,4.84,3.76l.02.02c1.87,1.29,3.9,2.56,6.09,3.75.22.12.43.23.65.34,6.38,3.47,13.98,6.5,22.54,9.02,9.64,2.84,20.47,5,32.13,6.34,1.3.15,3.04.36,4.91.54.61.06,1.22.11,1.85.17.8.09,1.64.15,2.47.22h.07c.4.03.82.06,1.21.09.31.03.61.05.89.06.5.05,1,.08,1.45.11.71.04,1.38.07,1.98.12.4.01.77.04,1.1.06.33.01.64.03.97.04.57.02.89.03.89.03,0,0,.65.03,1.73.06.13,0,.29.02.44.02.32.01.64.01,1,.03.1.01.24.01.34.01.34,0,.7.02,1.07.03.31,0,.63.02.94.02.3,0,.58.01.88.01,1.16.03,2.43.05,3.69.05h.53c1.19,0,2.37-.02,3.54-.03.57-.02,1.1-.02,1.61-.03.33-.02.64-.02.93-.03.96-.02,1.78-.05,2.38-.06.39-.02.68-.02.87-.03.01-.02.03-.02.06,0h.01c.22,0,.43-.02.64-.03.11-.02.24-.02.37-.02.33,0,.67-.01,1-.04.15-.02.31-.03.48-.03.46-.02.99-.05,1.56-.08.25-.01.51-.03.79-.04.52-.03,1.1-.06,1.68-.11,1.18-.07,2.46-.17,3.71-.28.64-.05,1.25-.11,1.88-.15,4.34-.4,8.2-.91,8.2-.91,0,0,5.03-.64,10.06-1.55,2.5-.49,5-1,6.88-1.38.95-.17,1.73-.36,2.26-.5.54-.13.85-.2.85-.2,0,0,1.26-.31,3.13-.78,1.77-.4,4.06-1.05,6.39-1.74.15-.04.3-.09.45-.13,2.48-.69,4.94-1.54,6.8-2.19,1.85-.64,3.08-1.07,3.08-1.07,0,0,1.22-.48,3.06-1.22,1.84-.72,4.27-1.71,6.69-2.89,1.12-.49,2.22-1.04,3.26-1.56.11-.05.21-.11.3-.16,2.1-1.17,4.06-2.39,5.88-3.67h.01c1.69-1.18,3.26-2.39,4.67-3.66,3.45-3.03,6.08-6.27,7.77-9.67Z"/><g class="cls-5"><path class="cls-8" d="m225.32,99.45l-.03,66.57v26.22h-.01c0,1.44-.16,2.89-.49,4.29-1.5,6.41-6.37,12.41-13.87,17.62h-.01c-1.78,1.25-3.7,2.44-5.75,3.6-.09.05-.17.11-.29.15-1.02.51-2.09,1.05-3.18,1.53-2.36,1.15-4.75,2.13-6.55,2.82-1.79.73-2.98,1.19-2.98,1.19,0,0-1.22.43-3.02,1.05-1.82.64-4.23,1.48-6.66,2.14-2.43.73-4.86,1.43-6.69,1.84-1.84.45-3.07.76-3.07.76,0,0-.3.06-.83.2-.52.13-1.28.32-2.21.48-1.84.38-4.29.87-6.74,1.36-4.91.89-9.84,1.51-9.84,1.51,0,0-3.66.48-7.82.88,2.92-13.61,4.51-27.5,4.77-41.42.29-14.08-.81-28.19-3.27-42.06-.27-1.53-.55-3.06-.86-4.58-.29-1.44-.61-2.87-.94-4.27-2.99-12.39-7.83-23.77-11.64-35.93-.63-1.98-.99-3.97-1.13-5.94-.77-10.55,4.84-20.71,11.68-28.84,3.68-4.37,7.91-8.43,12.64-11.65,39.9,5.78,68.37,21.84,68.76,40.48h.04Z"/></g><path class="cls-6" d="m110.14,109.04c-2.89-.07-4.37,2.37-7.66,2.12-3.31-.25-7.19-1.43-10.26-2.46-2.33-.78-4.9-1.63-7.39-1.95-1.63-.21-3.88.18-5.38-.3-1.93-.63-2.93-2.7-4.99-2.91-2.02-.21-3.93,1.56-5.86,1.02-2.43-.68-1.9-4.06-4.16-5.05-2.09-.91-3.97.12-5.42-1.77-1.09-1.43-.41-2.83-1.76-4.32-1.19-1.31-2.8-1.29-3.35-3.13-1.97-6.62,8.42-5.34,12.91-6.57,3.13-.86,5.73-3.75,8.98-4.02,1.79-.15,3.53.75,5.33.6,2.66-.23,4.43-2.65,7.09-2.9,1.73-.16,3.51.66,5.18.24,1.29-.32,2.15-1.29,3.13-2.05.98-.76,2.48-1.36,3.64-.79.84.41,1.16,1.3,1.93,1.8,1.26.83,3.18.31,4.45-.51,1.27-.82,2.34-1.93,3.86-2.37,4.12-1.2,7.81,3.04,12.18,3.11,2.58.04,5.11-1.41,7.59-.84,2.89.65,4.76,3.83,7.7,3.36,1.05-.17,1.92-.8,2.96-1.01,2.25-.43,4.38,1.24,6.69,1.17,3.09-.1,5.75-3.25,8.56-2.2.99.37,1.61,1.19,2.51,1.69,2.17,1.21,4.51.04,6.7.68,2.18.64,4.2,2.74,6.05,4.09.79.58,1.62,1.18,2.58,1.33.88.14,1.79-.12,2.68.02,2.78.44,4.81,2.95,7.28,3.22,1.32.15,2.53-.65,3.74-1.21,1.21-.56,2.82-.81,3.71.18,1.36,1.52-.41,2.89-.3,4.39.1,1.25.81,1.8,1.01,2.82.59,2.9.93,3.63-3.25,4.55-.74.16-1.54.16-2.26.37-2.79.79-3.26,4.06-5.78,5.33-2.79,1.41-6.49-.29-9.68.36-3.11.64-5.29,3.45-8.49,3.44-1.81,0-3.46-.96-5.27-1.05-4.38-.22-7.32,4.44-11.71,4.38-1.44-.02-2.78-.56-4.18-.81-3.38-.61-6.36,1.23-9.5.83-2.53-.33-4.05-2.47-7.01-2.3-2.73.15-5.1,2.04-7.81,1.78-2.53-.24-4.44-2.3-6.98-2.36Z"/><g><path class="cls-4" d="m132.73,122.78c-.28-5.19-3.12-9.8-6.19-13.62-1.49-1.86-3.66-3.85-6.09-3.38-.88.17-3.06,1.56-3.71,2.14-5.37,4.74-7.54,8.37-8.51,12.83-.73,3.39-1.3,7.87.55,10.86,2.7,4.36,9.9,6.82,15.01,5.39,7.11-1.99,9.31-7.66,8.95-14.22Z"/><path class="cls-4" d="m132.7,123.03c-.28-5.19-3.12-9.8-6.19-13.62-1.49-1.86-3.66-3.85-6.09-3.38-.88.17-3.06,1.56-3.71,2.14-5.37,4.74-7.54,8.37-8.51,12.83-.73,3.39-1.3,7.87.55,10.86,2.7,4.36,9.9,6.82,15.01,5.39,7.11-1.99,9.31-7.66,8.95-14.22Z"/><g class="cls-11"><path class="cls-2" d="m108.22,120.75c-.56,2.57-1.01,5.76-.4,8.46.09-1.63.47-3.24.97-4.78,1.09-3.36,2.72-6.63,5.29-9.04,2.97-2.79,7.4-4.3,11.41-3.4,1.49.33,2.78,1.37,4.17,1.7-.67-1.61-2.03-3.16-3.13-4.52-1.49-1.86-3.65-3.85-6.09-3.38-.88.17-3.06,1.56-3.71,2.14-5.37,4.74-7.54,8.37-8.51,12.83Z"/></g><g><g class="cls-11"><path class="cls-2" d="m129,127.12c.04-.39.37-.8.65-.94.04-.02.08-.01.11.01.24.21.49.66.45,1.05-.04.42-.33.57-.67.53-.33-.03-.59-.24-.54-.66Z"/></g><path class="cls-7" d="m129.13,127.09c.03-.31.3-.63.52-.75.03-.02.07-.01.09.01.19.17.39.52.35.83-.03.33-.26.45-.53.42-.26-.03-.47-.19-.43-.52Z"/></g><g><g class="cls-11"><path class="cls-2" d="m123.12,124.4c.04-.39.37-.8.65-.94.04-.02.08-.01.11.01.24.21.49.66.44,1.05-.04.42-.33.57-.67.53-.33-.03-.59-.24-.54-.66Z"/></g><path class="cls-7" d="m123.25,124.37c.03-.31.3-.63.52-.75.03-.02.07-.01.09.01.19.17.39.52.35.83-.03.33-.26.45-.53.42-.26-.03-.47-.19-.43-.52Z"/></g><g><g class="cls-11"><path class="cls-2" d="m124.14,131.01c.04-.39.37-.8.65-.94.04-.02.08-.01.11.01.24.21.49.66.45,1.05-.04.42-.33.57-.67.53-.33-.03-.59-.24-.54-.66Z"/></g><path class="cls-7" d="m124.27,130.98c.03-.31.3-.63.52-.74.03-.01.07-.01.09.01.19.17.39.52.35.83-.03.33-.26.45-.53.42-.26-.03-.47-.19-.43-.52Z"/></g><g><g class="cls-11"><path class="cls-2" d="m118.53,129.12c.04-.39.37-.8.65-.94.04-.02.08-.01.11.01.24.21.49.66.44,1.05-.04.42-.33.57-.67.53-.33-.03-.59-.24-.54-.66Z"/></g><path class="cls-7" d="m118.66,129.1c.03-.31.3-.63.52-.75.03-.02.07-.01.09.01.19.17.39.52.35.83-.03.33-.26.45-.53.42-.26-.03-.47-.19-.43-.52Z"/></g><g><g class="cls-11"><path class="cls-2" d="m112.58,130.31c.04-.39.37-.8.65-.94.04-.02.08-.01.11.01.24.21.49.66.45,1.05-.04.42-.33.57-.67.53s-.59-.24-.54-.66Z"/></g><path class="cls-7" d="m112.71,130.28c.03-.31.3-.63.52-.75.03-.02.07-.01.09.01.19.17.39.52.35.83-.03.33-.26.45-.53.42-.26-.03-.47-.19-.43-.52Z"/></g><g><g class="cls-11"><path class="cls-2" d="m126.75,119.74c.04-.39.37-.8.65-.94.04-.02.08-.01.11.01.24.21.49.66.45,1.05-.04.42-.33.57-.67.53-.33-.03-.59-.24-.54-.66Z"/></g><path class="cls-7" d="m126.88,119.71c.03-.31.3-.63.52-.74.03-.02.07-.01.09.01.19.17.39.52.35.83-.03.33-.26.45-.53.42-.26-.03-.47-.19-.43-.52Z"/></g><g><g class="cls-11"><path class="cls-2" d="m120.34,117.45c.04-.39.37-.8.65-.94.04-.02.08-.01.11.01.24.21.49.66.45,1.05-.04.42-.33.57-.67.53-.33-.03-.59-.24-.54-.66Z"/></g><path class="cls-7" d="m120.47,117.42c.03-.31.3-.63.51-.74.03-.02.07-.01.09.01.19.17.39.52.35.83-.03.33-.26.45-.53.42-.27-.03-.47-.19-.43-.52Z"/></g><g><g class="cls-11"><path class="cls-2" d="m112.62,118.13c.04-.39.37-.8.65-.94.04-.02.08-.01.11.01.24.21.49.66.45,1.05-.04.42-.33.57-.67.53-.33-.03-.59-.24-.54-.66Z"/></g><path class="cls-7" d="m112.74,118.1c.03-.31.3-.63.52-.74.03-.02.07-.01.09.01.19.17.39.52.35.83-.03.33-.26.45-.53.42-.27-.03-.47-.19-.43-.52Z"/></g><g><g class="cls-11"><path class="cls-2" d="m116.42,112.85c.04-.39.37-.8.65-.94.04-.02.08-.01.11.01.24.21.49.66.45,1.05-.04.42-.33.57-.67.53-.33-.03-.59-.24-.54-.66Z"/></g><path class="cls-7" d="m116.55,112.82c.03-.31.3-.63.51-.74.03-.02.07-.01.09.01.19.17.39.52.35.83-.03.33-.26.45-.53.42-.26-.03-.47-.19-.43-.52Z"/></g><g><g class="cls-11"><path class="cls-2" d="m124.17,113.33c.04-.39.38-.8.65-.94.04-.02.08-.01.11.01.24.21.49.66.45,1.05-.04.42-.33.57-.67.53-.33-.03-.59-.24-.54-.66Z"/></g><path class="cls-7" d="m124.3,113.3c.03-.31.3-.63.51-.74.03-.02.07-.01.09.01.19.17.39.52.35.83-.03.33-.26.45-.53.42-.27-.03-.47-.19-.43-.52Z"/></g><g><g class="cls-11"><path class="cls-2" d="m120.75,108.82c.04-.39.37-.8.65-.94.04-.02.08-.01.11.01.24.21.49.66.45,1.05-.04.42-.33.57-.67.53-.33-.03-.59-.24-.54-.66Z"/></g><path class="cls-7" d="m120.88,108.79c.03-.31.3-.63.52-.75.03-.01.07-.01.09.01.19.17.39.52.35.83-.03.33-.26.45-.53.42-.27-.03-.47-.19-.43-.52Z"/></g><g><g class="cls-11"><path class="cls-2" d="m115.93,123.51c.04-.39.37-.8.65-.94.04-.02.08-.01.12.01.24.21.49.66.44,1.05-.04.42-.33.57-.67.53-.33-.03-.59-.24-.54-.66Z"/></g><path class="cls-7" d="m116.05,123.48c.03-.31.3-.63.52-.74.03-.01.07-.01.09.01.19.17.39.52.35.83-.03.33-.26.45-.53.42s-.47-.19-.43-.52Z"/></g><g><g class="cls-11"><path class="cls-2" d="m110.17,125.35c.04-.39.37-.8.65-.94.04-.02.08-.01.11.01.24.21.49.66.45,1.05-.04.42-.33.57-.67.53-.33-.03-.59-.24-.54-.66Z"/></g><path class="cls-7" d="m110.29,125.32c.03-.31.3-.63.52-.74.03-.01.07-.01.09.01.19.17.39.52.35.83-.03.33-.26.45-.53.42-.26-.03-.47-.19-.43-.52Z"/></g></g><g><path class="cls-4" d="m162.85,123.89c-.28-5.19-3.12-9.8-6.19-13.62-1.49-1.86-3.66-3.85-6.09-3.38-.88.17-3.06,1.56-3.71,2.14-5.37,4.74-7.54,8.37-8.51,12.83-.73,3.39-1.3,7.87.55,10.86,2.7,4.36,9.9,6.82,15.01,5.39,7.11-1.99,9.31-7.66,8.95-14.22Z"/><path class="cls-4" d="m162.82,124.14c-.28-5.19-3.12-9.8-6.19-13.62-1.49-1.86-3.66-3.85-6.09-3.38-.88.17-3.06,1.56-3.71,2.14-5.37,4.74-7.54,8.37-8.51,12.83-.73,3.39-1.3,7.87.55,10.86,2.7,4.36,9.9,6.82,15.01,5.39,7.11-1.99,9.31-7.66,8.95-14.22Z"/><g class="cls-11"><path class="cls-2" d="m138.35,121.86c-.56,2.57-1.01,5.76-.4,8.46.09-1.63.47-3.24.97-4.78,1.09-3.36,2.72-6.63,5.29-9.04,2.97-2.79,7.4-4.29,11.41-3.4,1.49.33,2.78,1.37,4.17,1.7-.67-1.61-2.03-3.16-3.13-4.52-1.49-1.86-3.66-3.85-6.09-3.38-.88.17-3.06,1.56-3.71,2.14-5.37,4.74-7.54,8.37-8.51,12.83Z"/></g><g><g class="cls-11"><path class="cls-2" d="m159.13,128.23c.04-.39.37-.8.65-.94.04-.02.08-.01.11.01.24.21.49.66.45,1.05-.04.42-.33.57-.67.53-.33-.03-.59-.24-.54-.66Z"/></g><path class="cls-7" d="m159.26,128.2c.03-.31.3-.63.52-.74.03-.02.07-.01.09.01.19.17.39.52.35.83-.03.33-.26.45-.53.42-.27-.03-.47-.19-.43-.52Z"/></g><g><g class="cls-11"><path class="cls-2" d="m153.25,125.51c.04-.39.37-.8.65-.94.04-.02.08-.01.12.01.24.21.49.66.45,1.05-.04.42-.33.57-.67.53-.33-.03-.59-.24-.54-.66Z"/></g><path class="cls-7" d="m153.37,125.48c.03-.31.3-.63.51-.74.03-.02.07-.01.09.01.19.17.39.52.35.83-.03.33-.26.45-.53.42-.26-.03-.47-.19-.43-.52Z"/></g><g><g class="cls-11"><path class="cls-2" d="m154.27,132.12c.04-.39.37-.8.65-.94.04-.02.08-.01.11.01.24.21.49.66.45,1.05-.04.42-.33.57-.67.53-.33-.03-.59-.24-.54-.66Z"/></g><path class="cls-7" d="m154.4,132.09c.03-.31.3-.63.52-.74.03-.02.07-.01.09.01.19.17.39.52.35.83-.03.33-.26.45-.53.42-.26-.03-.47-.19-.43-.52Z"/></g><g><g class="cls-11"><path class="cls-2" d="m148.65,130.23c.04-.39.37-.8.65-.94.04-.02.08-.01.11.01.24.21.49.66.45,1.05-.04.42-.33.57-.67.53-.33-.03-.59-.24-.54-.66Z"/></g><path class="cls-7" d="m148.78,130.21c.03-.31.3-.63.51-.74.03-.02.07-.01.09.01.19.17.39.52.35.83-.03.33-.26.45-.53.42-.26-.03-.47-.19-.43-.52Z"/></g><g><g class="cls-11"><path class="cls-2" d="m142.7,131.42c.04-.39.37-.8.65-.94.04-.02.08-.01.11.01.24.21.49.66.45,1.05-.04.42-.33.57-.67.53-.33-.03-.59-.24-.54-.66Z"/></g><path class="cls-7" d="m142.83,131.39c.03-.31.3-.63.52-.74.03-.02.07-.01.09.01.19.17.39.52.35.83-.03.33-.26.45-.53.42-.26-.03-.47-.19-.43-.52Z"/></g><g><g class="cls-11"><path class="cls-2" d="m156.88,120.85c.04-.39.37-.8.65-.94.04-.02.08-.01.11.01.24.21.49.66.45,1.05-.04.42-.33.57-.67.53-.33-.03-.59-.24-.54-.66Z"/></g><path class="cls-7" d="m157.01,120.82c.03-.31.3-.63.52-.74.03-.02.07-.01.09.01.19.17.39.52.35.83-.03.33-.26.45-.53.42-.26-.03-.47-.19-.43-.52Z"/></g><g><g class="cls-11"><path class="cls-2" d="m150.47,118.56c.04-.39.37-.8.65-.94.04-.02.08-.01.11.01.24.21.49.66.45,1.05-.04.42-.33.57-.67.53-.33-.03-.59-.24-.54-.66Z"/></g><path class="cls-7" d="m150.6,118.53c.03-.31.3-.63.52-.74.03-.02.07-.01.09.01.19.17.39.52.35.83-.03.33-.26.45-.53.42-.27-.03-.47-.19-.43-.52Z"/></g><g><g class="cls-11"><path class="cls-2" d="m142.74,119.24c.04-.39.37-.8.65-.94.04-.02.08-.01.11.01.24.21.49.66.45,1.05-.04.42-.33.57-.67.53-.33-.03-.59-.24-.54-.66Z"/></g><path class="cls-7" d="m142.87,119.21c.03-.31.3-.63.52-.74.03-.02.07-.01.09.01.19.17.39.52.35.83-.03.33-.26.45-.53.42-.27-.03-.47-.19-.43-.52Z"/></g><g><g class="cls-11"><path class="cls-2" d="m146.54,113.96c.04-.39.37-.8.65-.94.04-.02.08-.01.11.01.24.21.49.66.45,1.05-.04.42-.33.57-.67.53-.33-.03-.59-.24-.54-.66Z"/></g><path class="cls-7" d="m146.67,113.93c.03-.31.3-.63.52-.74.03-.02.07-.01.09.01.19.17.39.52.35.83-.03.33-.26.45-.53.42-.27-.03-.47-.19-.43-.52Z"/></g><g><g class="cls-11"><path class="cls-2" d="m154.29,114.44c.04-.39.37-.8.65-.94.04-.02.08-.01.11.01.24.21.49.66.44,1.05-.04.42-.33.57-.67.53-.33-.03-.59-.24-.54-.66Z"/></g><path class="cls-7" d="m154.42,114.41c.03-.31.3-.63.52-.74.03-.02.07-.01.09.01.19.17.39.52.35.83-.03.33-.26.45-.53.42-.26-.03-.47-.19-.43-.52Z"/></g><g><g class="cls-11"><path class="cls-2" d="m150.87,109.93c.04-.39.37-.8.65-.94.04-.02.08-.01.11.01.24.21.49.66.45,1.05-.04.42-.33.57-.67.53-.33-.03-.59-.24-.54-.66Z"/></g><path class="cls-7" d="m151,109.9c.03-.31.3-.63.52-.74.03-.01.07-.01.09.01.19.17.39.52.35.83-.03.33-.26.45-.53.42-.26-.03-.47-.19-.43-.52Z"/></g><g><g class="cls-11"><path class="cls-2" d="m146.05,124.62c.04-.39.37-.8.65-.94.04-.02.08-.01.11.01.24.21.49.66.45,1.05-.04.42-.33.57-.67.53-.33-.03-.59-.24-.54-.66Z"/></g><path class="cls-7" d="m146.18,124.59c.03-.31.3-.63.52-.74.03-.02.07-.01.09.01.19.17.39.52.35.83-.03.33-.26.45-.53.42-.26-.03-.47-.19-.43-.52Z"/></g><g><g class="cls-11"><path class="cls-2" d="m140.29,126.46c.04-.39.37-.8.65-.94.04-.02.08-.01.11.01.24.21.49.66.45,1.05-.04.42-.33.57-.67.53-.33-.03-.59-.24-.54-.66Z"/></g><path class="cls-7" d="m140.42,126.43c.03-.31.3-.63.52-.74.03-.02.07-.01.09.01.19.17.39.52.35.83-.03.33-.26.45-.53.42-.26-.03-.47-.19-.43-.52Z"/></g></g><g><path class="cls-4" d="m193.9,116.38c-.28-5.19-3.12-9.8-6.19-13.62-1.49-1.86-3.66-3.85-6.09-3.38-.88.17-3.06,1.56-3.71,2.14-5.37,4.74-7.54,8.37-8.51,12.83-.73,3.39-1.3,7.87.55,10.86,2.7,4.36,9.9,6.82,15.01,5.39,7.11-1.99,9.31-7.66,8.95-14.22Z"/><path class="cls-4" d="m193.87,116.62c-.28-5.19-3.12-9.8-6.19-13.62-1.49-1.86-3.66-3.85-6.09-3.38-.88.17-3.06,1.56-3.71,2.14-5.37,4.74-7.54,8.37-8.51,12.83-.73,3.39-1.3,7.87.55,10.86,2.7,4.36,9.9,6.82,15.01,5.39,7.11-1.99,9.31-7.66,8.95-14.22Z"/><g class="cls-11"><path class="cls-2" d="m169.39,114.35c-.56,2.57-1.01,5.76-.4,8.46.09-1.63.47-3.24.97-4.78,1.09-3.36,2.72-6.63,5.29-9.04,2.97-2.79,7.4-4.3,11.41-3.4,1.49.33,2.78,1.37,4.17,1.7-.67-1.61-2.03-3.16-3.13-4.52-1.49-1.86-3.65-3.85-6.09-3.38-.88.17-3.06,1.56-3.71,2.14-5.37,4.74-7.54,8.37-8.51,12.83Z"/></g><g><g class="cls-11"><path class="cls-2" d="m190.18,120.71c.04-.39.37-.8.65-.94.04-.02.08-.01.11.01.24.21.49.66.45,1.05-.04.42-.33.57-.67.53-.33-.03-.59-.24-.54-.66Z"/></g><path class="cls-7" d="m190.31,120.68c.03-.31.3-.63.52-.74.03-.02.07-.01.09.01.19.17.39.52.35.83-.03.33-.26.45-.53.42-.26-.03-.47-.19-.43-.52Z"/></g><g><g class="cls-11"><path class="cls-2" d="m184.29,117.99c.04-.39.38-.8.65-.94.04-.02.08-.01.11.01.24.21.49.66.45,1.05-.04.42-.33.57-.67.53-.33-.03-.59-.24-.54-.66Z"/></g><path class="cls-7" d="m184.42,117.96c.03-.31.3-.63.52-.74.03-.02.07-.01.09.01.19.17.39.52.35.83-.03.33-.26.45-.53.42-.26-.03-.47-.19-.43-.52Z"/></g><g><g class="cls-11"><path class="cls-2" d="m185.32,124.61c.04-.39.37-.8.65-.94.04-.02.08-.01.11.01.24.21.49.66.45,1.05-.04.42-.33.57-.67.53-.33-.03-.59-.24-.54-.66Z"/></g><path class="cls-7" d="m185.45,124.58c.03-.31.3-.63.52-.75.03-.02.07-.01.09.01.19.17.39.52.35.83-.03.33-.26.45-.53.42-.27-.03-.47-.19-.43-.52Z"/></g><g><g class="cls-11"><path class="cls-2" d="m179.7,122.72c.04-.39.37-.8.65-.94.04-.02.08-.01.11.01.24.21.49.66.45,1.05-.04.42-.33.57-.67.53-.33-.03-.59-.24-.54-.66Z"/></g><path class="cls-7" d="m179.83,122.69c.03-.31.3-.63.52-.74.03-.02.07-.01.09.01.19.17.39.52.35.83-.03.33-.26.45-.53.42-.26-.03-.47-.19-.43-.52Z"/></g><g><g class="cls-11"><path class="cls-2" d="m173.75,123.91c.04-.39.37-.8.65-.94.04-.02.08-.01.11.01.24.21.49.66.45,1.05-.04.42-.33.57-.67.53-.33-.03-.59-.24-.54-.66Z"/></g><path class="cls-7" d="m173.88,123.88c.03-.31.3-.63.51-.74.03-.02.07-.01.09.01.19.17.39.52.35.83-.03.33-.26.45-.53.42-.26-.03-.47-.19-.43-.52Z"/></g><g><g class="cls-11"><path class="cls-2" d="m187.93,113.33c.04-.39.38-.8.65-.94.04-.02.08-.01.11.01.24.21.49.66.45,1.05-.04.42-.33.57-.67.53-.33-.03-.59-.24-.54-.66Z"/></g><path class="cls-7" d="m188.06,113.3c.03-.31.3-.63.52-.74.03-.02.07-.01.09.01.19.17.39.52.35.83-.03.33-.26.45-.53.42-.27-.03-.47-.19-.43-.52Z"/></g><g><g class="cls-11"><path class="cls-2" d="m181.52,111.05c.04-.39.37-.8.65-.94.04-.02.08-.01.11.01.24.21.49.66.45,1.05-.04.42-.33.57-.67.53-.33-.03-.59-.24-.54-.66Z"/></g><path class="cls-7" d="m181.64,111.02c.03-.31.3-.63.52-.74.03-.02.07-.01.09.01.19.17.39.52.35.83-.03.33-.26.45-.53.42-.27-.03-.47-.19-.43-.52Z"/></g><g><g class="cls-11"><path class="cls-2" d="m173.79,111.73c.04-.39.37-.8.65-.94.04-.02.08-.01.11.01.24.21.49.66.45,1.05-.04.42-.33.57-.67.53-.33-.03-.59-.24-.54-.66Z"/></g><path class="cls-7" d="m173.92,111.7c.03-.31.3-.63.52-.74.03-.02.07-.01.09.01.19.17.39.52.35.83-.03.33-.26.45-.53.42-.26-.03-.47-.19-.43-.52Z"/></g><g><g class="cls-11"><path class="cls-2" d="m177.59,106.44c.04-.39.37-.8.65-.94.04-.02.08-.01.11.01.24.21.49.66.45,1.05-.04.42-.33.57-.67.53-.33-.03-.59-.24-.54-.66Z"/></g><path class="cls-7" d="m177.72,106.41c.03-.31.3-.63.52-.74.03-.02.07-.01.09.01.19.17.39.52.35.83-.03.33-.26.45-.53.42-.26-.03-.47-.19-.43-.52Z"/></g><g><g class="cls-11"><path class="cls-2" d="m185.34,106.93c.04-.39.37-.8.65-.94.04-.02.08-.01.12.01.24.21.49.66.44,1.05-.04.42-.33.57-.67.53-.33-.03-.59-.24-.54-.66Z"/></g><path class="cls-7" d="m185.47,106.9c.03-.31.3-.63.52-.74.03-.02.07-.01.09.01.19.17.39.52.35.83-.03.33-.26.45-.53.42-.26-.03-.47-.19-.43-.52Z"/></g><g><g class="cls-11"><path class="cls-2" d="m181.92,102.42c.04-.39.37-.8.65-.94.04-.02.08-.01.11.01.24.21.49.66.45,1.05-.04.42-.33.57-.67.53-.33-.03-.59-.24-.54-.66Z"/></g><path class="cls-7" d="m182.05,102.39c.03-.31.3-.63.52-.74.03-.02.07-.01.09.01.19.17.39.52.35.83-.03.33-.26.45-.53.42-.26-.03-.47-.19-.43-.52Z"/></g><g><g class="cls-11"><path class="cls-2" d="m177.1,117.11c.04-.39.37-.8.65-.94.04-.02.08-.01.11.01.24.21.49.66.45,1.05-.04.42-.33.57-.67.53-.33-.03-.59-.24-.54-.66Z"/></g><path class="cls-7" d="m177.23,117.08c.03-.31.3-.63.52-.75.03-.01.07-.01.09.01.19.17.39.52.35.83-.03.33-.26.45-.53.42-.26-.03-.47-.19-.43-.52Z"/></g><g><g class="cls-11"><path class="cls-2" d="m171.34,118.94c.04-.39.37-.8.65-.94.04-.02.08-.01.11.01.24.21.49.66.45,1.05-.04.42-.33.57-.67.53-.33-.03-.59-.24-.54-.66Z"/></g><path class="cls-7" d="m171.47,118.91c.03-.31.3-.63.52-.75.03-.02.07-.01.09.01.19.17.39.52.35.83-.03.33-.26.45-.53.42s-.47-.19-.43-.52Z"/></g></g><g><path class="cls-4" d="m219.86,97.65c-.28-5.19-3.12-9.8-6.19-13.62-1.49-1.86-3.65-3.85-6.09-3.38-.88.17-3.06,1.56-3.71,2.14-5.37,4.74-7.54,8.37-8.51,12.83-.73,3.39-1.3,7.87.55,10.86,2.7,4.36,9.9,6.82,15.01,5.39,7.11-1.99,9.31-7.66,8.95-14.22Z"/><path class="cls-4" d="m219.84,97.9c-.28-5.19-3.12-9.8-6.19-13.62-1.49-1.86-3.65-3.85-6.09-3.38-.88.17-3.06,1.56-3.71,2.14-5.37,4.74-7.54,8.37-8.51,12.83-.73,3.39-1.3,7.87.55,10.86,2.7,4.36,9.9,6.82,15.01,5.39,7.11-1.99,9.31-7.66,8.95-14.22Z"/><g class="cls-11"><path class="cls-2" d="m195.36,95.62c-.56,2.57-1.01,5.76-.4,8.46.09-1.63.47-3.24.97-4.78,1.09-3.36,2.72-6.63,5.29-9.04,2.97-2.79,7.4-4.29,11.41-3.4,1.49.33,2.78,1.37,4.17,1.7-.67-1.61-2.03-3.16-3.13-4.52-1.49-1.86-3.66-3.85-6.09-3.38-.88.17-3.06,1.56-3.71,2.14-5.37,4.74-7.54,8.37-8.51,12.83Z"/></g><g><g class="cls-11"><path class="cls-2" d="m216.14,101.99c.04-.39.37-.8.65-.94.04-.02.08-.01.11.01.24.21.49.66.44,1.05-.04.42-.33.57-.67.53-.33-.03-.59-.24-.54-.66Z"/></g><path class="cls-7" d="m216.27,101.96c.03-.31.3-.63.52-.74.03-.02.07-.01.09.01.19.17.39.52.35.83-.03.33-.26.45-.53.42-.26-.03-.47-.19-.43-.52Z"/></g><g><g class="cls-11"><path class="cls-2" d="m210.26,99.27c.04-.39.37-.8.65-.94.04-.02.08-.01.11.01.24.21.49.66.45,1.05-.04.42-.33.57-.67.53-.33-.03-.59-.24-.54-.66Z"/></g><path class="cls-7" d="m210.39,99.24c.03-.31.3-.63.52-.74.03-.02.07-.01.09.01.19.17.39.52.35.83-.03.33-.26.45-.53.42-.27-.03-.47-.19-.43-.52Z"/></g><g><g class="cls-11"><path class="cls-2" d="m211.28,105.88c.04-.39.37-.8.65-.94.04-.02.08-.01.11.01.24.21.49.66.45,1.05-.04.42-.33.57-.67.53-.33-.03-.59-.24-.54-.66Z"/></g><path class="cls-7" d="m211.41,105.85c.03-.31.3-.63.52-.74.03-.02.07-.01.09.01.19.17.39.52.35.83-.03.33-.26.45-.53.42-.26-.03-.47-.19-.43-.52Z"/></g><g><g class="cls-11"><path class="cls-2" d="m205.66,104c.04-.39.37-.8.65-.94.04-.02.08-.01.11.01.24.21.49.66.45,1.05-.04.42-.33.57-.67.53-.33-.03-.59-.24-.54-.66Z"/></g><path class="cls-7" d="m205.79,103.97c.03-.31.3-.63.52-.74.03-.02.07-.01.09.01.19.17.39.52.35.83-.03.33-.26.45-.53.42-.27-.03-.47-.19-.43-.52Z"/></g><g><g class="cls-11"><path class="cls-2" d="m199.72,105.18c.04-.39.37-.8.65-.94.04-.02.08-.01.11.01.24.21.49.66.45,1.05-.04.42-.33.57-.67.53-.33-.03-.59-.24-.54-.66Z"/></g><path class="cls-7" d="m199.85,105.15c.03-.31.3-.63.52-.74.03-.02.07-.01.09.01.19.17.39.52.35.83-.03.33-.26.45-.53.42-.26-.03-.47-.19-.43-.52Z"/></g><g><g class="cls-11"><path class="cls-2" d="m213.89,94.61c.04-.39.38-.8.65-.94.04-.02.08-.01.12.01.24.21.49.66.44,1.05-.04.42-.33.57-.67.53-.33-.03-.59-.24-.54-.66Z"/></g><path class="cls-7" d="m214.02,94.58c.03-.31.3-.63.52-.74.03-.02.07-.01.09.01.19.17.39.52.35.83-.03.33-.26.45-.53.42-.26-.03-.47-.19-.43-.52Z"/></g><g><g class="cls-11"><path class="cls-2" d="m207.48,92.32c.04-.39.37-.8.65-.94.04-.02.08-.01.11.01.24.21.49.66.45,1.05-.04.42-.33.57-.67.53-.33-.03-.59-.24-.54-.66Z"/></g><path class="cls-7" d="m207.61,92.29c.03-.31.3-.63.51-.74.03-.02.07-.01.09.01.19.17.39.52.35.83-.03.33-.26.45-.53.42s-.47-.19-.43-.52Z"/></g><g><g class="cls-11"><path class="cls-2" d="m199.75,93c.04-.39.37-.8.65-.94.04-.02.08-.01.11.01.24.21.49.66.45,1.05-.04.42-.33.57-.67.53-.33-.03-.59-.24-.54-.66Z"/></g><path class="cls-7" d="m199.88,92.98c.03-.31.3-.63.52-.74.03-.02.07-.01.09.01.19.17.39.52.35.83-.03.33-.26.45-.53.42-.26-.03-.47-.19-.43-.52Z"/></g><g><g class="cls-11"><path class="cls-2" d="m203.55,87.72c.04-.39.38-.8.65-.94.04-.02.08-.01.12.01.24.21.49.66.44,1.05-.04.42-.33.57-.67.53-.33-.03-.59-.24-.54-.66Z"/></g><path class="cls-7" d="m203.68,87.69c.03-.31.3-.63.52-.74.03-.02.07-.01.09.01.19.17.39.52.35.83-.03.33-.26.45-.53.42-.27-.03-.47-.19-.43-.52Z"/></g><g><g class="cls-11"><path class="cls-2" d="m211.31,88.2c.04-.39.37-.8.65-.94.04-.02.08-.01.11.01.24.21.49.66.45,1.05-.04.42-.33.57-.67.53-.33-.03-.59-.24-.54-.66Z"/></g><path class="cls-7" d="m211.44,88.17c.03-.31.3-.63.52-.74.03-.02.07-.01.09.01.19.17.39.52.35.83-.03.33-.26.45-.53.42-.26-.03-.47-.19-.43-.52Z"/></g><g><g class="cls-11"><path class="cls-2" d="m207.89,83.7c.04-.39.37-.8.65-.94.04-.02.08-.01.11.01.24.21.49.66.45,1.05-.04.42-.33.57-.67.53-.33-.03-.59-.24-.54-.66Z"/></g><path class="cls-7" d="m208.01,83.67c.03-.31.3-.63.52-.75.03-.02.07-.01.09.01.19.17.39.52.35.83-.03.33-.26.45-.53.42-.26-.03-.47-.19-.43-.52Z"/></g><g><g class="cls-11"><path class="cls-2" d="m203.06,98.38c.04-.39.38-.8.65-.94.04-.02.08-.01.12.01.24.21.49.66.44,1.05-.04.42-.33.57-.67.53-.33-.03-.59-.24-.54-.66Z"/></g><path class="cls-7" d="m203.19,98.35c.03-.31.3-.63.52-.74.03-.02.07-.01.09.01.19.17.39.52.35.83-.03.33-.26.45-.53.42-.27-.03-.47-.19-.43-.52Z"/></g><g><g class="cls-11"><path class="cls-2" d="m197.3,100.22c.04-.39.38-.8.65-.94.04-.02.08-.01.11.01.24.21.49.66.45,1.05-.04.42-.33.57-.67.53-.33-.03-.59-.24-.54-.66Z"/></g><path class="cls-7" d="m197.43,100.19c.03-.31.3-.63.52-.74.03-.02.07-.01.09.01.19.17.39.52.35.83-.03.33-.26.45-.53.42-.26-.03-.47-.19-.43-.52Z"/></g></g><g><path class="cls-4" d="m102.28,121.41c-.28-5.19-3.13-9.8-6.19-13.62-1.49-1.86-3.66-3.85-6.09-3.38-.88.17-3.06,1.56-3.71,2.14-5.37,4.74-7.54,8.37-8.51,12.83-.73,3.39-1.3,7.87.55,10.86,2.7,4.36,9.9,6.82,15.01,5.39,7.11-1.99,9.31-7.66,8.95-14.22Z"/><path class="cls-4" d="m102.25,121.66c-.28-5.19-3.12-9.8-6.19-13.62-1.49-1.86-3.66-3.85-6.09-3.38-.88.17-3.06,1.56-3.71,2.14-5.37,4.74-7.54,8.37-8.51,12.83-.73,3.39-1.3,7.87.55,10.86,2.7,4.36,9.9,6.82,15.01,5.39,7.11-1.99,9.31-7.66,8.95-14.22Z"/><g class="cls-11"><path class="cls-2" d="m77.77,119.38c-.56,2.57-1.01,5.76-.4,8.46.09-1.63.47-3.24.97-4.78,1.09-3.36,2.72-6.63,5.29-9.04,2.97-2.79,7.4-4.29,11.42-3.4,1.49.33,2.78,1.37,4.17,1.7-.67-1.61-2.03-3.16-3.13-4.52-1.49-1.86-3.66-3.85-6.09-3.38-.88.17-3.06,1.56-3.71,2.14-5.37,4.74-7.54,8.37-8.51,12.83Z"/></g><g><g class="cls-11"><path class="cls-2" d="m98.56,125.75c.04-.39.37-.8.65-.94.04-.02.08-.01.11.01.24.21.49.66.45,1.05-.04.42-.33.57-.67.53-.33-.03-.59-.24-.54-.66Z"/></g><path class="cls-7" d="m98.68,125.72c.03-.31.3-.63.52-.74.03-.02.07-.01.09.01.19.17.39.52.35.83-.03.33-.26.45-.53.42-.26-.03-.47-.19-.43-.52Z"/></g><g><g class="cls-11"><path class="cls-2" d="m92.67,123.03c.04-.39.37-.8.65-.94.04-.02.08-.01.11.01.24.21.49.66.45,1.05-.04.42-.33.57-.67.53-.33-.03-.59-.24-.54-.66Z"/></g><path class="cls-7" d="m92.8,123c.03-.31.3-.63.51-.74.03-.02.07-.01.09.01.19.17.39.52.35.83-.03.33-.26.45-.53.42-.26-.03-.47-.19-.43-.52Z"/></g><g><g class="cls-11"><path class="cls-2" d="m93.7,129.64c.04-.39.37-.8.65-.94.04-.02.08-.01.11.01.24.21.49.66.45,1.05-.04.42-.33.57-.67.53-.33-.03-.59-.24-.54-.66Z"/></g><path class="cls-7" d="m93.83,129.61c.03-.31.3-.63.52-.74.03-.02.07-.01.09.01.19.17.39.52.35.83-.03.33-.26.45-.53.42-.26-.03-.47-.19-.43-.52Z"/></g><g><g class="cls-11"><path class="cls-2" d="m88.08,127.75c.04-.39.37-.8.65-.94.04-.02.08-.01.11.01.24.21.49.66.45,1.05-.04.42-.33.57-.67.53-.33-.03-.59-.24-.54-.66Z"/></g><path class="cls-7" d="m88.21,127.72c.03-.31.3-.63.52-.74.03-.02.07-.01.09.01.19.17.39.52.35.83-.03.33-.26.45-.53.42-.26-.03-.47-.19-.43-.52Z"/></g><g><g class="cls-11"><path class="cls-2" d="m82.13,128.94c.04-.39.37-.8.65-.94.04-.02.08-.01.11.01.24.21.49.66.45,1.05-.04.42-.33.57-.67.53-.33-.03-.59-.24-.54-.66Z"/></g><path class="cls-7" d="m82.26,128.91c.03-.31.3-.63.52-.74.03-.02.07-.01.09.01.19.17.39.52.35.83-.03.33-.26.45-.53.42-.27-.03-.47-.19-.43-.52Z"/></g><g><g class="cls-11"><path class="cls-2" d="m96.3,118.37c.04-.39.37-.8.65-.94.04-.02.08-.01.11.01.24.21.49.66.44,1.05-.04.42-.33.57-.67.53-.33-.03-.59-.24-.54-.66Z"/></g><path class="cls-7" d="m96.43,118.34c.03-.31.3-.63.52-.74.03-.02.07-.01.09.01.19.17.39.52.35.83-.03.33-.26.45-.53.42-.26-.03-.47-.19-.43-.52Z"/></g><g><g class="cls-11"><path class="cls-2" d="m89.89,116.08c.04-.39.38-.8.65-.94.04-.02.08-.01.11.01.24.21.49.66.45,1.05-.04.42-.33.57-.67.53-.33-.03-.59-.24-.54-.66Z"/></g><path class="cls-7" d="m90.02,116.05c.03-.31.3-.63.52-.74.03-.01.07-.01.09.01.19.17.39.52.35.83-.03.33-.26.45-.53.42-.27-.03-.47-.19-.43-.52Z"/></g><g><g class="cls-11"><path class="cls-2" d="m82.17,116.76c.04-.39.38-.8.65-.94.04-.02.08-.01.11.01.24.21.49.66.45,1.05-.04.42-.33.57-.67.53-.33-.03-.59-.24-.54-.66Z"/></g><path class="cls-7" d="m82.3,116.73c.03-.31.3-.63.52-.74.03-.02.07-.01.09.01.19.17.39.52.35.83-.03.33-.26.45-.53.42-.27-.03-.47-.19-.43-.52Z"/></g><g><g class="cls-11"><path class="cls-2" d="m85.97,111.48c.04-.39.37-.8.65-.94.04-.02.08-.01.11.01.24.21.49.66.45,1.05-.04.42-.33.57-.67.53-.33-.03-.59-.24-.54-.66Z"/></g><path class="cls-7" d="m86.1,111.45c.03-.31.3-.63.52-.74.03-.02.07-.01.09.01.19.17.39.52.35.83-.03.33-.26.45-.53.42-.27-.03-.47-.19-.43-.52Z"/></g><g><g class="cls-11"><path class="cls-2" d="m93.72,111.96c.04-.39.37-.8.65-.94.04-.02.08-.01.11.01.24.21.49.66.45,1.05-.04.42-.33.57-.67.53-.33-.03-.59-.24-.54-.66Z"/></g><path class="cls-7" d="m93.85,111.93c.03-.31.3-.63.52-.74.03-.02.07-.01.09.01.19.17.39.52.35.83-.03.33-.26.45-.53.42-.26-.03-.47-.19-.43-.52Z"/></g><g><g class="cls-11"><path class="cls-2" d="m90.3,107.45c.04-.39.38-.8.65-.94.04-.02.08-.01.11.01.24.21.49.66.45,1.05-.04.42-.33.57-.67.53-.33-.03-.59-.24-.54-.66Z"/></g><path class="cls-7" d="m90.43,107.42c.03-.31.3-.63.52-.75.03-.02.07-.01.09.01.19.17.39.52.35.83-.03.33-.26.45-.53.42-.27-.03-.47-.19-.43-.52Z"/></g><g><g class="cls-11"><path class="cls-2" d="m85.48,122.14c.04-.39.37-.8.65-.94.04-.02.08-.01.11.01.24.21.49.66.45,1.05-.04.42-.33.57-.67.53-.33-.03-.59-.24-.54-.66Z"/></g><path class="cls-7" d="m85.61,122.11c.03-.31.3-.63.52-.75.03-.02.07-.01.09.01.19.17.39.52.35.83-.03.33-.26.45-.53.42-.26-.03-.47-.19-.43-.52Z"/></g><g><g class="cls-11"><path class="cls-2" d="m79.72,123.98c.04-.39.37-.8.65-.94.04-.02.08-.01.11.01.24.21.49.66.45,1.05-.04.42-.33.57-.67.53-.33-.03-.59-.24-.54-.66Z"/></g><path class="cls-7" d="m79.85,123.95c.03-.31.3-.63.51-.74.03-.02.07-.01.09.01.19.17.39.52.35.83-.03.33-.26.45-.53.42-.26-.03-.47-.19-.43-.52Z"/></g></g><g><path class="cls-4" d="m70.46,112.94c-.28-5.19-3.12-9.8-6.19-13.62-1.49-1.86-3.65-3.85-6.09-3.38-.88.17-3.06,1.56-3.71,2.14-5.37,4.74-7.54,8.37-8.51,12.83-.73,3.39-1.3,7.87.55,10.86,2.7,4.36,9.9,6.82,15.01,5.39,7.11-1.99,9.31-7.66,8.95-14.22Z"/><path class="cls-4" d="m70.44,113.18c-.28-5.19-3.13-9.8-6.19-13.62-1.49-1.86-3.65-3.85-6.09-3.38-.88.17-3.06,1.56-3.71,2.14-5.37,4.74-7.54,8.37-8.51,12.83-.73,3.39-1.3,7.87.55,10.86,2.7,4.36,9.9,6.82,15.01,5.39,7.11-1.99,9.31-7.66,8.95-14.22Z"/><g class="cls-11"><path class="cls-2" d="m45.96,110.9c-.56,2.57-1.01,5.76-.4,8.46.09-1.63.47-3.24.97-4.78,1.09-3.36,2.72-6.63,5.29-9.04,2.97-2.79,7.4-4.3,11.41-3.4,1.49.33,2.78,1.37,4.17,1.7-.67-1.62-2.03-3.16-3.13-4.52-1.49-1.86-3.65-3.85-6.09-3.38-.88.17-3.06,1.56-3.71,2.14-5.37,4.74-7.54,8.37-8.51,12.83Z"/></g><g><g class="cls-11"><path class="cls-2" d="m66.74,117.27c.04-.39.37-.8.65-.94.04-.02.08-.01.11.01.24.21.49.66.44,1.05-.04.42-.33.57-.67.53s-.59-.24-.54-.66Z"/></g><path class="cls-7" d="m66.87,117.24c.03-.31.3-.63.52-.74.03-.02.07-.01.09.01.19.17.39.52.35.83-.03.33-.26.45-.53.42-.27-.03-.47-.19-.43-.52Z"/></g><g><g class="cls-11"><path class="cls-2" d="m60.86,114.55c.04-.39.37-.8.65-.94.04-.02.08-.01.11.01.24.21.49.66.45,1.05-.04.42-.33.57-.67.53-.33-.03-.59-.24-.54-.66Z"/></g><path class="cls-7" d="m60.99,114.52c.03-.31.3-.63.52-.74.03-.02.07-.01.09.01.19.17.39.52.35.83-.03.33-.26.45-.53.42-.27-.03-.47-.19-.43-.52Z"/></g><g><g class="cls-11"><path class="cls-2" d="m61.88,121.17c.04-.39.37-.8.65-.94.04-.02.08-.01.11.01.24.21.49.66.45,1.05-.04.42-.33.57-.67.53-.33-.03-.59-.24-.54-.66Z"/></g><path class="cls-7" d="m62.01,121.14c.03-.31.3-.63.52-.75.03-.02.07-.01.09.01.19.17.39.52.35.83-.03.33-.26.45-.53.42-.27-.03-.47-.19-.43-.52Z"/></g><g><g class="cls-11"><path class="cls-2" d="m56.27,119.28c.04-.39.37-.8.65-.94.04-.02.08-.01.11.01.24.21.49.66.45,1.05-.04.42-.33.57-.67.53-.33-.03-.59-.24-.54-.66Z"/></g><path class="cls-7" d="m56.39,119.25c.03-.31.3-.63.52-.74.03-.02.07-.01.09.01.19.17.39.52.35.83-.03.33-.26.45-.53.42-.27-.03-.47-.19-.43-.52Z"/></g><g><g class="cls-11"><path class="cls-2" d="m50.32,120.47c.04-.39.37-.8.65-.94.04-.02.08-.01.11.01.24.21.49.66.45,1.05-.04.42-.33.57-.67.53-.33-.03-.59-.24-.54-.66Z"/></g><path class="cls-7" d="m50.45,120.44c.03-.31.3-.63.52-.74.03-.02.07-.01.09.01.19.17.39.52.35.83-.03.33-.26.45-.53.42-.26-.03-.47-.19-.43-.52Z"/></g><g><g class="cls-11"><path class="cls-2" d="m64.49,109.89c.04-.39.38-.8.65-.94.04-.02.08-.01.11.01.24.21.49.66.45,1.05-.04.42-.33.57-.67.53-.33-.03-.59-.24-.54-.66Z"/></g><path class="cls-7" d="m64.62,109.86c.03-.31.3-.63.52-.74.03-.02.07-.01.09.01.19.17.39.52.35.83-.03.33-.26.45-.53.42-.27-.03-.47-.19-.43-.52Z"/></g><g><g class="cls-11"><path class="cls-2" d="m58.08,107.61c.04-.39.37-.8.65-.94.04-.02.08-.01.11.01.24.21.49.66.45,1.05-.04.42-.33.57-.67.53-.33-.03-.59-.24-.54-.66Z"/></g><path class="cls-7" d="m58.21,107.58c.03-.31.3-.63.52-.74.03-.02.07-.01.09.01.19.17.39.52.35.83-.03.33-.26.45-.53.42-.26-.03-.47-.19-.43-.52Z"/></g><g><g class="cls-11"><path class="cls-2" d="m50.36,108.29c.04-.39.38-.8.65-.94.04-.02.08-.01.11.01.24.21.49.66.45,1.05-.04.42-.33.57-.67.53-.33-.03-.59-.24-.54-.66Z"/></g><path class="cls-7" d="m50.48,108.26c.03-.31.3-.63.52-.74.03-.02.07-.01.09.01.19.17.39.52.35.83-.04.33-.26.45-.53.42-.26-.03-.47-.19-.43-.52Z"/></g><g><g class="cls-11"><path class="cls-2" d="m54.16,103c.04-.39.37-.8.65-.94.04-.02.08-.01.11.01.24.21.49.66.45,1.05-.04.42-.33.57-.67.53-.33-.03-.59-.24-.54-.66Z"/></g><path class="cls-7" d="m54.28,102.97c.03-.31.3-.63.52-.74.03-.02.07-.01.09.01.19.17.39.52.35.83-.03.33-.26.45-.53.42-.27-.03-.47-.19-.43-.52Z"/></g><g><g class="cls-11"><path class="cls-2" d="m61.91,103.49c.04-.39.37-.8.65-.94.04-.02.08-.01.11.01.24.21.49.66.45,1.05-.04.42-.33.57-.67.53-.33-.03-.59-.24-.54-.66Z"/></g><path class="cls-7" d="m62.04,103.46c.03-.31.3-.63.52-.74.03-.02.07-.01.09.01.19.17.39.52.35.83-.03.33-.26.45-.53.42-.26-.03-.47-.19-.43-.52Z"/></g><g><g class="cls-11"><path class="cls-2" d="m58.49,98.98c.04-.39.37-.8.65-.94.04-.02.08-.01.11.01.24.21.49.66.45,1.05-.04.42-.33.57-.67.53-.33-.03-.59-.24-.54-.66Z"/></g><path class="cls-7" d="m58.62,98.95c.03-.31.3-.63.52-.74.03-.02.07-.01.09.01.19.17.39.52.35.83-.03.33-.26.45-.53.42-.26-.03-.47-.19-.43-.52Z"/></g><g><g class="cls-11"><path class="cls-2" d="m53.67,113.67c.04-.39.37-.8.65-.94.04-.02.08-.01.11.01.24.21.49.66.45,1.05-.04.42-.33.57-.67.53-.33-.03-.59-.24-.54-.66Z"/></g><path class="cls-7" d="m53.79,113.64c.03-.31.3-.63.52-.75.03-.02.07-.01.09.01.19.17.39.52.35.83-.03.33-.26.45-.53.42-.27-.03-.47-.19-.43-.52Z"/></g><g><g class="cls-11"><path class="cls-2" d="m47.9,115.5c.04-.39.38-.8.65-.94.04-.02.08-.01.11.01.24.21.49.66.44,1.05-.04.42-.33.57-.67.53-.33-.03-.59-.24-.54-.66Z"/></g><path class="cls-7" d="m48.03,115.47c.03-.31.3-.63.52-.75.03-.02.07-.01.09.01.19.17.39.52.35.83-.03.33-.26.45-.53.42-.26-.03-.47-.19-.43-.52Z"/></g></g><path class="cls-6" d="m228.39,104.23c.61-1.74.47-3.39-.5-4.98-.54-.9-1.49-1.63-1.61-2.68-.13-1.09.67-2.03,1.27-2.94.62-.9,1.04-2.23.28-3.02-.49-.51-1.32-.57-1.92-.96-2.21-1.43-.12-5.61-2.2-7.22-1.6-1.23-4.24.29-5.86-.93-1.63-1.24-.86-4.31-2.6-5.39-1.42-.88-3.51.24-4.82-.79-2.05-1.63-.82-4.52-4.31-4.98-1.12-.15-2.24.33-3.37.3-2.4-.07-5.89-.76-7.38-2.77-1-1.34-2.03-2.96-3.7-3.11-1.17-.11-2.35.6-3.49.29-1.86-.48-2.19-3.1-3.78-4.18-2.47-1.66-6.15,1.26-8.67-.32-.96-.6-1.45-1.7-2.17-2.57-1.45-1.78-4-2.58-6.2-1.96-1.7.47-3.39,1.7-5.04,1.09-1.89-.7-2.43-3.43-4.37-4.04-3.33-1.06-6.84,3.02-9.92,1.47-1.25-.64-1.97-2.18-3.35-2.49-2.15-.48-3.62,2.31-5.75,2.85-3.37.83-6.04-4.2-9.45-3.52-1.96.4-3.22,2.6-5.2,2.87-2.75.38-4.79-3.13-7.57-3.05-2.64.07-4.64,3.39-7.22,2.79-1.32-.31-2.22-1.57-3.5-1.99-2.65-.86-5.04,1.7-7.38,2.39-2.92.87-4.94-.78-7.83-.69-3.8.11-6.5,4.55-10.31,4.45-2.16-.06-4.21-1.62-6.31-1.1-2.48.62-3.53,3.78-5.92,4.71-3.11,1.22-6.9-1.93-9.8-.26-1.76,1.02-2.28,3.36-3.83,4.66-3.14,2.64-8.48-.25-11.85,2.1-2.18,1.52-2.85,4.84-5.34,5.76-1.72.64-3.73-.15-5.43.53-3.1,1.26-2.88,6.19-5.7,7.99-.92.6-2.06.76-3,1.35-2.07,1.3-2.42,4.19-2.18,6.64.26,2.45.88,5.01-.04,7.29-1.16,2.86-2.28,5.58-1.56,8.19.34,1.19,1.07,2.36,2.36,3.51.73.66,1.64,1.12,2.25,1.9,1.86,2.39.51,7.06,3.39,8,.72.24,1.5.11,2.23.28,2.97.67,3.02,4.4,4.78,6.27,2.63,2.81,6.59.63,9.15,3.96,1.03,1.34,1.9,2.95,3.46,3.57,1.98.81,4.43-.28,6.33.72,1.94,1.03,2.77,3.98,4.97,4.07.93.03,1.79-.51,2.69-.73,2.99-.68,6.5,2.24,9.25,3.13,3.57,1.18,6.65-.85,9.98.08,3.08.85,4.5,3.27,8.05,3.45,2.28.11,5.96-1.56,7.74.33.46.49.73,1.18,1.33,1.52,1.36.76,2.75-.89,4.19-1.5,3.08-1.27,6.89,2.48,9.67.63.51-.34.9-.84,1.43-1.16,1.15-.7,2.64-.37,3.83.25,1.19.61,2.25,1.48,3.51,1.92,2.86,1,5.54-1.54,8.15-2.11,2.36-.51,4.43,2.06,6.85,2.01,1.92-.03,3.42-1.68,5.27-2.19,3.18-.85,6.62,1.83,9.72.73,2.01-.71,3.45-2.9,5.59-2.93,2.25-.03,4.15,2.43,6.35,1.9,1.64-.4,2.49-2.32,4.07-2.95,1.9-.75,3.96.65,6,.78,4.1.26,8.52-5.42,12.2-3.72.39.17.75.43,1.16.55,1.31.38,2.59-.74,3.29-1.91.71-1.17,1.23-2.56,2.39-3.27,2.37-1.45,5.81.77,8.1-.79,1.08-.74,1.57-2.15,2.69-2.83,1.92-1.19,4.85.25,6.5-1.29.74-.69.96-1.79,1.58-2.59.8-1.01,2.05-.87,2.88-1.59,1.12-.99,1.33-2.54,2.77-3.31,1.05-.55,2.32-.56,3.33-1.18,1.27-.77,1.84-2.36,1.81-3.85-.01-.61-.05-1.34.45-1.7.31-.23.74-.2,1.12-.22,1.39-.08,2.7-.92,3.36-2.15.65-1.22.61-2.78-.11-3.98.28.45,2.66-3.03,2.78-3.4Zm-12.31-.97c-1.97,2.55-3.33,9.14-7.88,7.3-.67-.28-1.29-.74-2.01-.76-.96-.02-1.78.77-2.13,1.66-.36.88-.37,1.87-.45,2.83-.03.29-.11.65-.4.72-.15.04-.31-.02-.44-.07-1.48-.61-2.84-1.33-4.46-.93-2.66.63-3.08,4.46-5.38,5.94-2.12,1.37-5.02.28-7.39,1.16-3.1,1.16-4.31,5.33-7.46,6.38-2.97,1-6.16-1.25-9.24-.71-3.29.58-5.59,4.19-8.92,4.22-2.35.02-4.45-1.82-6.79-1.71-3.09.13-5.36,3.52-8.45,3.49-2.48-.02-4.41-2.25-6.84-2.75-3.87-.8-7.9,2.94-11.56,1.42-1.15-.48-2.09-1.45-3.3-1.72-2.97-.64-5.3,3.08-8.33,3.12-2.39.03-4.22-2.22-6.56-2.72-3.12-.67-6.31,1.9-9.4,1.11-1.48-.38-2.71-1.49-4.21-1.73-2.71-.43-5.31,2.11-7.99,1.48-2.24-.52-3.57-3.09-5.82-3.6-2.43-.54-5.19,1.53-7.34.25-1.15-.68-1.67-2.14-2.83-2.81-1.94-1.16-4.55.41-6.67-.4-2.58-1-3.63-5.2-6.36-4.81-1.29.18-2.33,1.47-3.63,1.34-1.65-.18-2.15-2.33-3.34-3.48-2.13-2.05-6.09-.61-8.29-2.57-1.46-1.3-1.75-3.82-3.57-4.52-4.24-1.65-7.68-.83-10.12-5.78-1.84-3.73-.88-6.36-.47-10.09.19-1.7-.69-3.72.82-5.04.94-.82,2.85-.27,3.98-.89,2-1.09.97-4.55,2.67-6.06,1.66-1.49,4.46.04,6.47-.92,2.07-1,2.45-4.19,4.62-4.95,1.97-.69,4.3,1.1,6.13.09,1.77-.98,1.55-3.73,3.04-5.09,2.3-2.13,6.17.71,9.08-.44,2.16-.85,3.11-3.66,5.33-4.35,2.32-.71,4.76,1.27,7.15.84,1.96-.36,3.3-2.22,5.18-2.88,3.22-1.13,6.97,1.53,10.06.09,1.58-.74,2.75-2.47,4.49-2.49,1.93-.03,3.28,2.09,5.19,2.37,2.52.38,4.44-2.48,6.96-2.77,2.61-.3,4.91,2.21,7.52,1.94,2.42-.25,4.17-2.8,6.61-2.91,2.5-.11,4.58,2.43,7.07,2.18,1.84-.19,3.3-1.91,5.16-1.97,2.29-.07,4.05,2.41,6.35,2.45,1.9.03,3.54-1.65,5.44-1.54,2.66.16,4.34,3.72,7,3.5,1.21-.1,2.24-.99,3.44-1.09,2.58-.2,4.36,3.18,6.94,3.06,1.41-.06,2.64-1.2,4.05-1.12,1.93.12,3.06,2.41,4.93,2.92,1.38.37,2.85-.31,4.26-.11,2.88.41,4.28,4.13,7.12,4.79,1.62.38,3.48-.33,4.91.52,1.47.88,1.85,3.09,3.45,3.69,1.82.69,3.69-1.24,5.63-1.06,1.92.18,2.59,1.92,4.14,2.64,1.52.7,2.71.57,4.47.57,1.42,0,2.86.01,4.2.49,2.17.78,3.93,3.79,4.99,5.75,2.99,5.58,3.11,11.5-.83,16.52Z"/><g><path class="cls-4" d="m47.55,96.32c-.23-4.23-2.55-7.99-5.05-11.11-1.22-1.52-2.98-3.14-4.97-2.76-.72.14-2.5,1.27-3.03,1.74-4.38,3.87-6.15,6.82-6.94,10.47-.6,2.77-1.06,6.42.45,8.86,2.2,3.56,8.07,5.56,12.24,4.4,5.8-1.63,7.59-6.25,7.3-11.59Z"/><path class="cls-4" d="m47.53,96.52c-.23-4.23-2.55-7.99-5.05-11.11-1.22-1.52-2.98-3.14-4.97-2.76-.72.14-2.5,1.27-3.03,1.74-4.38,3.87-6.15,6.82-6.94,10.47-.6,2.77-1.06,6.42.45,8.86,2.2,3.56,8.07,5.56,12.24,4.39,5.8-1.63,7.59-6.25,7.3-11.59Z"/><g class="cls-11"><path class="cls-2" d="m27.57,94.66c-.45,2.1-.83,4.7-.33,6.9.07-1.33.38-2.64.79-3.9.89-2.74,2.22-5.4,4.31-7.37,2.43-2.28,6.03-3.5,9.31-2.78,1.21.27,2.27,1.12,3.4,1.39-.55-1.32-1.66-2.57-2.55-3.69-1.22-1.52-2.98-3.14-4.97-2.76-.72.14-2.5,1.27-3.03,1.74-4.38,3.87-6.15,6.82-6.94,10.47Z"/></g><g><g class="cls-11"><path class="cls-2" d="m44.52,99.85c.03-.32.31-.65.53-.76.03-.02.07-.01.09.01.2.17.4.54.36.86-.04.34-.27.46-.54.44-.27-.03-.48-.19-.44-.54Z"/></g><path class="cls-7" d="m44.62,99.83c.03-.25.24-.52.42-.61.02-.01.05,0,.07,0,.16.14.31.42.29.68-.03.27-.22.37-.43.35-.22-.02-.38-.15-.35-.43Z"/></g><g><g class="cls-11"><path class="cls-2" d="m39.72,97.63c.03-.32.31-.65.53-.76.03-.02.07-.01.09.01.2.17.4.54.36.86-.04.34-.27.46-.54.43-.27-.03-.48-.19-.44-.54Z"/></g><path class="cls-7" d="m39.83,97.61c.03-.25.24-.52.42-.61.02-.01.05,0,.07,0,.16.14.31.43.29.68-.03.27-.22.37-.43.35-.22-.02-.38-.15-.35-.43Z"/></g><g><g class="cls-11"><path class="cls-2" d="m40.56,103.03c.03-.32.31-.65.53-.76.03-.02.07-.01.09.01.2.17.4.54.36.86-.04.34-.27.46-.54.44-.27-.03-.48-.19-.44-.54Z"/></g><path class="cls-7" d="m40.66,103c.03-.25.24-.52.42-.61.02-.01.05,0,.07,0,.16.14.31.42.29.68-.03.27-.22.37-.43.35-.22-.02-.38-.15-.35-.43Z"/></g><g><g class="cls-11"><path class="cls-2" d="m35.97,101.49c.03-.32.31-.65.53-.76.03-.02.07-.01.09.01.2.17.4.54.36.86-.04.34-.27.46-.54.43-.27-.03-.48-.19-.44-.54Z"/></g><path class="cls-7" d="m36.08,101.47c.03-.25.24-.52.42-.61.02-.01.05,0,.07,0,.16.14.31.43.29.68-.03.27-.22.37-.43.35-.22-.02-.38-.15-.35-.43Z"/></g><g><g class="cls-11"><path class="cls-2" d="m31.12,102.46c.03-.32.31-.65.53-.76.03-.02.07-.01.09.01.2.17.4.54.36.86-.04.34-.27.46-.54.43-.27-.03-.48-.19-.44-.54Z"/></g><path class="cls-7" d="m31.23,102.43c.03-.25.24-.52.42-.61.02-.01.05,0,.07,0,.16.14.31.42.29.68-.03.27-.21.37-.43.35-.22-.02-.38-.15-.35-.43Z"/></g><g><g class="cls-11"><path class="cls-2" d="m42.68,93.83c.03-.32.31-.65.53-.76.03-.02.07-.01.09.01.2.17.4.54.36.86-.04.34-.27.46-.54.43-.27-.03-.48-.19-.44-.54Z"/></g><path class="cls-7" d="m42.79,93.81c.03-.25.24-.52.42-.61.02-.01.05,0,.07,0,.16.14.31.43.29.68-.03.27-.22.37-.43.35-.22-.02-.38-.15-.35-.43Z"/></g><g><g class="cls-11"><path class="cls-2" d="m37.45,91.97c.03-.32.31-.65.53-.76.03-.02.07-.01.09.01.2.17.4.54.36.86-.04.34-.27.46-.54.43-.27-.03-.48-.19-.44-.54Z"/></g><path class="cls-7" d="m37.56,91.95c.03-.25.24-.52.42-.61.02-.01.05,0,.07,0,.16.14.31.43.29.68-.03.27-.22.37-.43.35-.22-.02-.38-.15-.35-.43Z"/></g><g><g class="cls-11"><path class="cls-2" d="m31.15,92.53c.03-.32.31-.65.53-.76.03-.02.07-.01.09.01.2.17.4.54.36.86-.04.34-.27.46-.54.43-.27-.03-.48-.19-.44-.54Z"/></g><path class="cls-7" d="m31.26,92.5c.03-.25.24-.52.42-.61.02-.01.05,0,.07,0,.16.14.31.43.29.68-.03.27-.22.37-.43.35-.22-.02-.38-.15-.35-.43Z"/></g><g><g class="cls-11"><path class="cls-2" d="m34.25,88.21c.03-.32.31-.65.53-.76.03-.02.07-.01.09.01.2.17.4.54.36.86-.04.34-.27.46-.54.44-.27-.03-.48-.19-.44-.54Z"/></g><path class="cls-7" d="m34.36,88.19c.03-.25.24-.52.42-.61.02-.01.05,0,.07,0,.16.14.31.43.29.68-.03.27-.22.37-.43.35-.22-.02-.38-.15-.35-.43Z"/></g><g><g class="cls-11"><path class="cls-2" d="m40.58,88.61c.03-.32.31-.65.53-.76.03-.02.07-.01.09.01.2.17.4.54.36.86-.04.34-.27.46-.54.43-.27-.03-.48-.19-.44-.54Z"/></g><path class="cls-7" d="m40.68,88.58c.03-.25.24-.52.42-.61.02-.01.05,0,.07,0,.16.14.31.43.29.68-.03.27-.21.37-.43.35-.22-.02-.38-.15-.35-.43Z"/></g><g><g class="cls-11"><path class="cls-2" d="m37.79,84.93c.03-.32.31-.65.53-.76.03-.02.07-.01.09.01.2.17.4.54.36.86-.04.34-.27.46-.54.43-.27-.03-.48-.19-.44-.54Z"/></g><path class="cls-7" d="m37.89,84.91c.03-.25.24-.52.42-.61.02-.01.05,0,.07,0,.16.14.31.42.29.68-.03.27-.22.37-.43.34-.22-.02-.38-.15-.35-.43Z"/></g><g><g class="cls-11"><path class="cls-2" d="m33.85,96.91c.03-.32.31-.65.53-.76.03-.02.07-.01.09.01.2.17.4.54.36.86-.04.34-.27.46-.54.43-.27-.03-.48-.19-.44-.54Z"/></g><path class="cls-7" d="m33.96,96.89c.03-.25.24-.52.42-.61.02-.01.05,0,.07,0,.16.14.31.43.29.68-.03.27-.22.37-.43.35-.22-.02-.38-.15-.35-.43Z"/></g><g><g class="cls-11"><path class="cls-2" d="m29.15,98.41c.03-.32.31-.65.53-.76.03-.02.07-.01.09.01.2.17.4.54.36.86-.04.34-.27.46-.54.43-.27-.03-.48-.19-.44-.54Z"/></g><path class="cls-7" d="m29.26,98.39c.03-.25.24-.52.42-.61.02-.01.05,0,.07,0,.16.14.31.42.29.68-.03.27-.22.37-.43.34-.22-.02-.38-.15-.35-.43Z"/></g></g><path class="cls-6" d="m162.94,226.51c.12,0,.25.02.37.03.79.09,1.57.34,2.36.27,2.36-.19,3.67-2.95,5.88-3.81,2.19-.86,4.81.31,6.94-.68,1.93-.9,3-3.39,5.11-3.64,1.12-.13,2.21.43,3.33.42,3.38,0,5.52-4.84,8.85-4.29.72.12,1.38.49,2.11.53,2.65.12,3.46-3.86,5.87-4.98,1.59-.74,3.66-.09,5.08-1.11,1.46-1.05,1.54-3.38,3.04-4.37,1.05-.69,2.43-.48,3.67-.68,2.03-.34,3.79-1.97,4.28-3.97.22-.88.36-1.99,1.22-2.27.45-.14.95.03,1.42-.04,1.19-.18,1.59-1.65,1.74-2.84.26-2.13.53-4.27.79-6.4-.12.97,1.89,3.91,2.14,5.16.44,2.1.43,4.29,0,6.39-.62,3.02-3.1,8.77-6.36,9.75-.62.19-1.34.23-1.79.7-.49.5-.49,1.28-.59,1.98-.34,2.29-2.36,4.21-4.66,4.45-.67.07-1.38.02-1.99.31-1.53.74-1.49,3.11-2.89,4.07-1.35.92-3.28.03-4.8.65-2.03.82-2.51,3.95-4.64,4.45-1.13.27-2.31-.35-3.46-.21-2.08.25-3.07,2.68-4.78,3.9-1.46,1.05-3.55,1.13-5.09.19-.87-.53-1.62-1.37-2.63-1.51-2.65-.36-3.7,4.04-6.35,4.38-2.02.25-3.8-2.05-5.77-1.56-1.8.45-2.63,3.02-4.49,3.05-.54,0-1.06-.22-1.58-.39-2.24-.72-5.08-.19-6.8,1.46-1.43,1.37-1.98,3.68-4.66,2.82-1.06-.34-1.88-1.32-2.98-1.47-1.94-.26-3.33,2.11-5.28,2.31-2.12.21-4.05-2.21-6.05-1.49-1.01.36-1.63,1.44-2.64,1.8-2.02.72-4.13-1.79-6.18-1.13-.92.3-1.57,1.18-2.52,1.39-1.45.32-2.73-1.09-4.2-1.25-1.99-.22-3.58,1.83-5.58,2-3.17.27-5.84-4.19-8.74-2.88-.65.29-1.16.85-1.82,1.11-.9.35-1.91.08-2.84-.19-2.16-.62-4.32-1.25-6.49-1.87-.66-.19-1.35-.38-2.03-.3-.74.09-1.39.5-2.04.85-1.13.6-2.39,1.07-3.67.99-1.79-.11-2.29-1.75-3.77-2.12-1.57-.39-2.81,1.23-4.37,1.02-1.36-.18-2.06-1.74-3.29-2.35-1.48-.73-3.32.09-4.89-.43-1.57-.51-2.53-2.23-4.12-2.66-1.54-.41-3.25.5-4.73-.08-1.01-.4-1.64-1.39-2.46-2.11-2.91-2.54-5.43.47-8.23-.67-1.97-.8-2.75-3.96-5.21-3.75-.62.05-1.24.37-1.83.18-2.29-.73-1.18-4.6-4.82-4.14-.99.12-1.94.68-2.92.49-2.07-.42-2.23-3.61-4.09-4.61-1.31-.71-3.08-.09-4.33-.91-1.56-1.02-1.26-3.5-2.47-4.91-.78-.91-2.03-1.21-3.08-1.77-1.7-.92-2.88-2.7-3.2-4.6-.26-1.55.68-3.38-.21-4.77-.52-.81-1.38-1.35-1.87-2.18-.53-.9-.54-1.99-.53-3.03,0-.42,0-.84,0-1.26,0-1.64.01-3.28.02-4.93,0-.47.01-.96.25-1.35.24-.4.81-.64,1.19-.37.3.21.36.63.4.99.27,2.53.75,5.08,1.92,7.34.23.45.51.9.94,1.16.86.5,2.03.06,2.88.58,1.43.86.56,3.31,1.67,4.56,1.01,1.14,2.96.59,4.26,1.38,2.96,1.81,1.46,7.47,6.06,7.86,1.2.1,2.54-.4,3.52.3,1.25.9.88,3.08,2.12,3.98,1.12.81,2.72.03,4.05.38,2.61.69,3.48,4.13,6.32,4.25,3.55.15,7.21-3.22,10.02,1.12.37.57.67,1.26,1.28,1.56,1.15.57,2.46-.58,3.74-.49,1.84.14,3.01,2.75,4.82,2.39,1.03-.21,1.77-1.36,2.81-1.27.96.08,1.46,1.12,2.03,1.91,1.36,1.9,4.1,2.66,6.25,1.76.94-.39,1.84-1.08,2.85-.97,1.62.18,2.32,2.19,3.73,2.98,2.52,1.41,5.7-1.58,8.41-.59,1.55.56,2.55,2.32,4.18,2.52,1.59.19,3.02-1.21,4.62-1.15,1.68.06,3.16,1.71,4.79,1.27.84-.23,1.46-.98,2.3-1.22,2.16-.63,3.94,2.29,6.19,2.21,1.62-.06,2.92-1.69,4.54-1.56,1.37.11,2.35,1.44,3.68,1.78,2.75.72,4.71-2.82,7.44-3.58,4.07-1.13,6.05,3.11,10.16,1.07,1.64-.82,3.59-1.8,5.19-.91.35.19.66.47,1.04.58,1.06.29,1.94-.76,2.75-1.49,1.12-1.01,2.65-1.55,4.16-1.48Z"/><g><g><path class="cls-1" d="m53.89,89.19c-.4,0-.74-.3-.78-.7l-.69-6.38c-.05-.43.27-.82.7-.87.43-.05.82.27.87.7l.69,6.38c.05.43-.27.82-.7.87-.03,0-.06,0-.09,0Z"/><path class="cls-14" d="m57.01,70.01c1.12.24,2.07.54,2.83.92.77.38,1.39.82,1.88,1.33.49.51.86,1.07,1.12,1.68.26.61.42,1.25.49,1.93.11,1.03.06,2.01-.16,2.94-.22.93-.68,1.77-1.39,2.52-.71.75-1.69,1.39-2.95,1.92-1.26.53-2.88.9-4.87,1.12l-5.33.57c-.93.1-1.73-.07-2.41-.52-.67-.45-1.08-1.33-1.22-2.64l-2.18-20.29c-.06-.58-.04-1.06.07-1.44.11-.38.3-.68.55-.9.26-.22.58-.38.98-.49.4-.11.86-.19,1.39-.24l4.19-.45c2.12-.23,3.88-.25,5.31-.07,1.42.18,2.56.52,3.42,1.03.86.51,1.49,1.15,1.89,1.92.4.77.65,1.64.76,2.59.17,1.56-.13,2.94-.89,4.13-.76,1.19-1.92,2.01-3.48,2.46Zm-4.79-.82c.91-.1,1.57-.35,1.98-.77.41-.41.57-1.1.47-2.06-.11-1.01-.41-1.67-.9-1.99-.49-.32-1.19-.43-2.1-.33-.23.02-.4.07-.52.13-.12.06-.2.19-.23.37-.03.18-.04.43-.02.75.02.32.06.75.12,1.31.06.55.11,1,.16,1.34.05.34.11.61.18.8.07.2.17.33.31.39.13.06.31.08.54.06Zm1,9.26c.91-.1,1.57-.37,1.98-.82.41-.45.57-1.14.46-2.08-.1-.96-.4-1.61-.9-1.95-.5-.34-1.2-.46-2.1-.37-.23.02-.4.07-.52.13-.12.06-.2.19-.23.37-.03.18-.04.44-.01.77.02.33.06.77.12,1.32.06.55.11,1.01.17,1.36.05.35.11.63.18.82.07.2.17.32.31.39.13.06.31.08.54.06Z"/><g><path class="cls-13" d="m49.66,55.08s-2.56.2-2.96-5.32c-.39-5.52,1.18-7.29,1.18-7.29,0,0,8.67,9.85,1.77,12.61Z"/><path class="cls-10" d="m49.66,55.08s-2.86-2.86-1.08-7.58c0,0,3.71,2.79,1.08,7.58Z"/></g><path class="cls-1" d="m44.04,61.85c-.22,0-.44-.14-.52-.36-.07-.17-.62-1.68.02-2.67.21-.32.63-.71,1.46-.76.29-.02.57.22.59.53.02.31-.22.57-.53.59-.38.02-.51.15-.57.25-.26.4-.06,1.29.08,1.65.11.29-.03.61-.32.72-.07.03-.13.04-.2.04Z"/><path class="cls-1" d="m47.19,58.79c-.28,0-.52-.2-.55-.48-.04-.31.17-.59.48-.63.24-.03,5.84-.79,8.86-.19.3.06.5.36.44.66-.06.3-.35.5-.66.44-2.83-.56-8.43.2-8.48.2-.03,0-.05,0-.08,0Z"/></g><g><path class="cls-1" d="m70.94,87.21c-.41,0-.76-.32-.79-.74l-.49-7.86c-.03-.43.3-.81.74-.83.45-.02.81.3.83.74l.49,7.86c.03.43-.3.81-.74.83-.02,0-.03,0-.05,0Z"/><path class="cls-16" d="m74.13,75.86c.04.58.09,1.05.16,1.42.07.36.14.66.21.9.07.24.13.45.19.64.06.19.1.39.11.62.03.56-.19,1.06-.69,1.51-.49.45-1.38.71-2.67.79-.89.05-1.68-.04-2.4-.29-.71-.25-1.32-.7-1.82-1.35-.47-.61-.77-1.39-.89-2.36-.12-.97-.22-2.05-.3-3.24l-1.01-16.35c-.04-.58,0-1.06.12-1.44.12-.37.29-.67.54-.87.24-.21.55-.35.92-.44.38-.09.82-.15,1.32-.18,1.72-.13,2.99.16,3.81.89.82.72,1.27,1.79,1.36,3.21l1.02,16.54Z"/><g><path class="cls-13" d="m68.46,53.44c-1.49.05-2.84-.49-3.01-4.34-.24-5.53,1.96-8.51,1.96-8.51,0,0,2.83,4.65,3.26,8.39.23,2-.74,4.41-2.22,4.46Z"/><path class="cls-10" d="m68.46,53.44s-1.74-1.14-1.66-3.51.83-4.01.83-4.01c0,0,1.6,2.32,1.63,4.29s-.8,3.23-.8,3.23Z"/></g><path class="cls-1" d="m66.2,64.01c-.29,0-.53-.22-.56-.51-.12-1.39-.44-6.01.54-7.08.24-.27.52-.32.7-.32.31,0,.56.25.56.56,0,.28-.2.51-.46.55-.37.5-.48,3.28-.23,6.2.03.31-.2.58-.51.61-.02,0-.03,0-.05,0Z"/><path class="cls-1" d="m70.24,57.51c-.14,0-.29-.05-.4-.16-.56-.56-1-.54-1.02-.53-.3.03-.58-.2-.61-.5-.03-.3.17-.57.47-.61.1-.01,1-.11,1.95.85.22.22.22.57,0,.79-.11.11-.25.16-.4.16Z"/></g><g><path class="cls-1" d="m81.28,87.31c-.44,0-.79-.35-.79-.79v-7.66c0-.44.35-.79.79-.79s.79.35.79.79v7.66c0,.44-.35.79-.79.79Z"/><path class="cls-3" d="m97.26,75.82c.1.33.23.6.4.8.16.2.32.39.46.57.14.18.26.36.36.55.1.19.15.45.15.78,0,.71-.36,1.34-1.08,1.88-.72.55-1.82.82-3.29.82-1.85,0-3.22-.41-4.1-1.22-.89-.81-1.33-2.09-1.33-3.84s-.04-3.18-.13-4.3c-.09-1.11-.46-1.82-1.12-2.13-.3-.13-.65-.17-1.03-.13-.38.04-.76.15-1.14.32v3.5c0,1.22-.04,2.33-.11,3.34-.08,1.01-.33,1.85-.76,2.51-.46.68-.97,1.18-1.54,1.48-.57.3-1.3.46-2.19.46s-1.62-.27-2.2-.82c-.58-.54-.87-1.49-.87-2.83v-20.33c0-.58.07-1.05.21-1.41.14-.35.35-.63.65-.82.29-.19.64-.32,1.05-.38.4-.06.87-.1,1.41-.1h4.22c2.13,0,3.89.18,5.28.53,1.39.36,2.5.84,3.33,1.46.82.62,1.4,1.36,1.73,2.2.33.85.51,1.75.53,2.72.02.76-.06,1.51-.27,2.24-.2.74-.52,1.41-.95,2.03-.43.62-.98,1.15-1.63,1.6-.66.44-1.43.77-2.32.97.18.08.41.15.7.21.29.06.6.14.91.23.32.09.64.2.97.34.33.14.62.31.87.51.48.43.86.88,1.14,1.35.28.47.51.96.68,1.46.18.51.34,1.05.48,1.62.14.57.32,1.17.55,1.81Zm-11.02-15.05c-.3,0-.51.04-.63.13-.11.09-.18.31-.21.67v4.75c.02.38.1.63.21.76.11.13.32.19.63.19.89,0,1.56-.29,2.01-.87.46-.58.68-1.37.68-2.36,0-1.19-.23-2.03-.68-2.53-.46-.49-1.13-.74-2.01-.74Z"/><g><path class="cls-13" d="m85.31,53.16c-1.49-.08-2.79-.74-2.61-4.59.26-5.52,2.72-8.3,2.72-8.3,0,0,2.4,4.88,2.5,8.65.05,2.01-1.13,4.33-2.61,4.24Z"/><path class="cls-10" d="m85.31,53.16s-1.63-1.29-1.34-3.64,1.18-3.92,1.18-3.92c0,0,1.38,2.45,1.24,4.42-.14,1.97-1.08,3.14-1.08,3.14Z"/></g><path class="cls-1" d="m79.01,58.3c-.26,0-.49-.18-.55-.44-.06-.26-.33-1.62.29-2.33.19-.21.52-.47,1.09-.42.31.02.54.29.52.6-.02.31-.3.54-.6.52-.12,0-.14.02-.15.03-.17.2-.14.92-.05,1.35.07.3-.12.6-.42.67-.04,0-.08.01-.13.01Z"/><path class="cls-1" d="m89.26,56.53s-.08,0-.13-.01c-2.46-.57-7.01-.48-7.05-.48-.34,0-.57-.24-.57-.55,0-.31.24-.57.55-.57.19,0,4.73-.09,7.33.51.3.07.49.37.42.67-.06.26-.29.43-.55.43Z"/></g><g><path class="cls-1" d="m124.54,85.12c-.44,0-.79-.35-.79-.79v-6.78c0-.44.35-.79.79-.79s.79.35.79.79v6.78c0,.44-.35.79-.79.79Z"/><path class="cls-18" d="m129.82,70.8c-.32-.04-.58-.15-.78-.32v2.74c0,1.19-.04,2.27-.11,3.25-.08.98-.33,1.78-.76,2.41-.43.68-.99,1.17-1.69,1.46-.7.29-1.49.44-2.38.44s-1.58-.26-2.17-.78c-.58-.52-.87-1.44-.87-2.76v-20.33c0-.58.06-1.06.19-1.43.13-.37.32-.65.59-.86.27-.2.59-.34.97-.42.38-.08.82-.11,1.33-.11,1.72,0,2.97.39,3.74,1.18.77.79,1.16,1.89,1.16,3.31v6.23h2.09c1.22,0,2.15.38,2.81,1.14v-9.12c0-.58.07-1.06.21-1.43.14-.37.34-.65.61-.84.26-.19.59-.32.96-.38.38-.06.82-.1,1.32-.1,1.72-.02,2.96.35,3.73,1.12.77.77,1.15,1.87,1.15,3.29v16.57c0,.58.02,1.06.08,1.43.05.37.1.67.15.91.05.24.1.46.15.65.05.19.08.4.08.63,0,.56-.26,1.04-.78,1.46-.52.42-1.42.63-2.71.63-.88,0-1.67-.15-2.36-.44-.69-.29-1.27-.78-1.72-1.46-.43-.63-.68-1.44-.76-2.41-.08-.98-.11-2.06-.11-3.25v-2.36h-3.12c-.36,0-.69-.02-1.01-.06Z"/><g><path class="cls-13" d="m125.5,52.9c-1.49-.08-2.79-.74-2.61-4.59.26-5.52,2.72-8.3,2.72-8.3,0,0,2.4,4.88,2.5,8.65.05,2.01-1.13,4.33-2.61,4.24Z"/><path class="cls-10" d="m125.5,52.9s-1.63-1.29-1.34-3.64,1.18-3.92,1.18-3.92c0,0,1.38,2.45,1.24,4.42-.14,1.97-1.08,3.14-1.08,3.14Z"/></g><path class="cls-1" d="m121.97,57.57c-.3,0-.54-.23-.56-.53,0-.13-.04-1.32.7-2.02.27-.25.75-.53,1.5-.44.31.04.53.31.49.62-.04.31-.31.53-.62.49-.36-.04-.52.06-.61.15-.32.3-.35.98-.35,1.14.01.31-.22.57-.53.59,0,0-.02,0-.03,0Z"/><path class="cls-1" d="m135.09,56.96c-.27,0-.51-.19-.55-.47-.01-.07-.09-.7.37-1.24.39-.45,1.01-.68,1.86-.68.31,0,.56.25.56.56s-.25.56-.56.56c-.48,0-.83.1-1,.28-.14.16-.12.36-.12.36.03.3-.18.58-.49.62-.02,0-.05,0-.07,0Z"/></g><g><path class="cls-1" d="m151.53,86.5s-.06,0-.09,0c-.43-.05-.75-.44-.7-.87l.87-8.05c.05-.43.43-.75.87-.7.43.05.75.44.7.87l-.87,8.05c-.04.4-.39.7-.78.7Z"/><path class="cls-14" d="m154.75,54.34c2.12.23,3.85.69,5.19,1.4,1.34.71,2.37,1.65,3.08,2.84.72,1.19,1.15,2.63,1.32,4.33.16,1.7.12,3.66-.11,5.87-.24,2.22-.59,4.14-1.04,5.77-.46,1.63-1.11,2.96-1.96,3.98-.85,1.02-1.94,1.73-3.28,2.15-1.33.42-3,.52-4.99.3l-6.21-.67c-.91-.1-1.65-.44-2.21-1.02-.56-.58-.77-1.53-.63-2.84l2.18-20.29c.06-.58.18-1.04.36-1.39.18-.35.42-.6.71-.76.3-.16.65-.25,1.06-.27.41-.02.88,0,1.41.06l5.11.55Zm-2.16,20.6c.58.06,1.08-.06,1.49-.37.42-.31.76-.78,1.05-1.4.28-.62.52-1.37.7-2.26.18-.88.34-1.88.46-2.99.24-2.19.23-3.94-.03-5.24-.26-1.3-.96-2.01-2.12-2.14-.23-.02-.4-.02-.52.02-.12.04-.21.14-.28.31-.07.17-.13.41-.17.73-.05.31-.1.75-.16,1.3l-.99,9.22c-.06.55-.1,1.01-.13,1.36-.03.35-.02.63,0,.84.03.21.1.35.2.44.11.09.27.14.5.17Z"/><g><path class="cls-13" d="m154.72,53.35c-1.47-.25-2.68-1.06-2.07-4.86.89-5.46,3.65-7.93,3.65-7.93,0,0,1.83,5.12,1.5,8.88-.18,2-1.62,4.17-3.08,3.92Z"/><path class="cls-10" d="m154.72,53.35s-1.47-1.47-.91-3.77,1.62-3.76,1.62-3.76c0,0,1.09,2.6.73,4.53-.37,1.94-1.44,3-1.44,3Z"/></g><path class="cls-1" d="m147.18,57.41s-.04,0-.06,0c-.31-.03-.53-.31-.5-.61.02-.25.28-2.43,1.68-2.57.3-.03.58.19.61.5.03.31-.19.58-.5.61-.29.03-.61.87-.68,1.57-.03.29-.27.5-.56.5Z"/><path class="cls-1" d="m158.11,56.72c-.07,0-.15-.01-.22-.05-1.06-.45-5.92-.9-7.7-1.04-.31-.02-.54-.29-.52-.6.02-.31.29-.54.6-.52.68.05,6.64.52,8.06,1.13.28.12.42.45.29.74-.09.21-.3.34-.52.34Z"/></g><g><path class="cls-1" d="m167.07,87.54s-.06,0-.1,0c-.43-.05-.74-.44-.69-.88l.81-6.73c.05-.43.44-.74.88-.69.43.05.74.44.69.88l-.81,6.73c-.05.4-.39.69-.78.69Z"/><path class="cls-16" d="m173.94,78.04c-.4-.05-.77-.14-1.1-.27-.33-.13-.56-.35-.7-.68-.19.31-.39.6-.59.89-.2.28-.4.55-.61.81-.6.74-1.19,1.33-1.76,1.74-.57.42-1.12.73-1.64.93-.52.21-1.03.32-1.52.35-.49.03-.96.02-1.41-.04-.88-.11-1.48-.44-1.81-1-.33-.56-.19-1.47.42-2.72.4-.77.86-1.68,1.38-2.72.52-1.05,1.08-2.16,1.66-3.34.59-1.18,1.19-2.4,1.8-3.65.61-1.25,1.21-2.46,1.79-3.63.59-1.17,1.13-2.28,1.64-3.32.51-1.05.96-1.96,1.36-2.73.27-.55.56-.99.88-1.31.32-.32.66-.56,1.02-.72.36-.16.76-.25,1.2-.26.44-.01.9.01,1.41.07l.72.09c1.58.24,2.8.79,3.67,1.65.87.86,1.5,2.16,1.9,3.92.79,3.62,1.46,6.64,2.01,9.07.55,2.43.99,4.42,1.31,5.98.32,1.56.56,2.75.72,3.59.15.84.24,1.48.26,1.95,0,.56-.22.99-.69,1.29-.47.3-1.15.4-2.03.29-.91-.11-1.66-.22-2.28-.33-.61-.11-1.13-.29-1.56-.53-.43-.24-.8-.59-1.12-1.05-.32-.46-.64-1.1-.97-1.94-.12-.24-.27-.84-.44-1.78l-4.94-.59Zm2.11-15.33c.01,1.38-.12,2.88-.39,4.51-.27,1.63-.68,3.25-1.23,4.87l1.21.15c1.11.13,1.88.57,2.33,1.31-.16-.99-.33-2.01-.51-3.07-.18-1.06-.35-2.06-.52-3.03-.17-.96-.33-1.86-.48-2.68-.16-.82-.29-1.51-.4-2.06Z"/><g><path class="cls-13" d="m179.05,55.06c-1.47-.25-2.68-1.06-2.07-4.86.89-5.46,3.65-7.93,3.65-7.93,0,0,1.83,5.12,1.5,8.88-.18,2-1.62,4.17-3.08,3.92Z"/><path class="cls-10" d="m179.05,55.06s-1.47-1.47-.91-3.77,1.62-3.76,1.62-3.76c0,0,1.09,2.6.73,4.53s-1.44,3-1.44,3Z"/></g><path class="cls-1" d="m171.77,63.82c-.09,0-.17-.02-.26-.06-.28-.14-.38-.48-.24-.75l2.1-4.07c.14-.27.48-.38.75-.24.28.14.38.48.24.75l-2.1,4.07c-.1.19-.3.3-.5.3Z"/><path class="cls-1" d="m180.18,59.09c-.07,0-.15-.01-.22-.04-.02,0-1.97-.82-3.31-.94-.95-.09-1.57.16-1.58.16-.28.11-.61-.02-.73-.31-.12-.29.02-.61.3-.73.03-.01.86-.35,2.1-.24,1.51.14,3.56.99,3.65,1.03.29.12.42.45.3.73-.09.21-.3.34-.52.34Z"/></g><g><path class="cls-1" d="m194.36,90.21s-.05,0-.08,0c-.43-.04-.75-.43-.71-.86l.65-6.75c.04-.43.43-.74.86-.71.43.04.75.43.71.86l-.65,6.75c-.04.41-.38.71-.78.71Z"/><path class="cls-9" d="m204.75,65.08c-.53,1.02-1.05,1.9-1.57,2.66-.52.75-.99,1.44-1.42,2.06-.43.62-.79,1.22-1.09,1.79-.3.57-.48,1.18-.54,1.84l-.36,3.78c-.12,1.21-.26,2.3-.43,3.26-.17.96-.5,1.74-.99,2.33-.52.64-1.14,1.07-1.86,1.29-.72.22-1.52.29-2.41.21-1.34-.13-2.24-.42-2.72-.89-.48-.47-.69-.99-.63-1.57.02-.23.07-.43.14-.62.07-.18.15-.39.23-.63.09-.23.17-.52.26-.87.08-.35.15-.81.21-1.39l.56-5.83c-.3-.59-.59-1.26-.88-2.01-.28-.75-.55-1.52-.81-2.31-.26-.79-.5-1.58-.73-2.36-.23-.79-.44-1.53-.63-2.24-.4-1.36-.68-2.48-.83-3.34-.15-.87-.17-1.54-.07-2.01.1-.47.31-.79.64-.95.33-.16.78-.21,1.33-.16.66.06,1.18.15,1.58.27.4.11.74.34,1.04.69.3.35.58.87.86,1.57.28.7.64,1.67,1.08,2.91.34.97.51,1.95.52,2.91,0,.97-.18,2.04-.58,3.23.62-1.19,1.03-2.22,1.21-3.11.19-.89.36-1.47.51-1.76.69-1.38,1.27-2.46,1.72-3.23.46-.77.94-1.34,1.44-1.69.5-.36,1.11-.55,1.81-.57.7-.02,1.65.02,2.83.14.81.08,1.4.24,1.78.5.38.25.59.64.62,1.15.03.51-.12,1.17-.44,1.98-.32.81-.79,1.81-1.41,3Z"/><g><path class="cls-13" d="m193.24,56.57c-1.45-.34-2.62-1.2-1.79-4.97,1.19-5.4,4.09-7.72,4.09-7.72,0,0,1.54,5.22,1,8.95-.29,1.99-1.85,4.07-3.29,3.74Z"/><path class="cls-10" d="m193.24,56.57s-1.38-1.55-.7-3.81c.69-2.26,1.83-3.67,1.83-3.67,0,0,.95,2.65.47,4.57-.48,1.91-1.6,2.91-1.6,2.91Z"/></g><path class="cls-1" d="m189.14,60.37c-.28,0-.52-.2-.55-.49-.05-.39-.13-1.33.29-1.81.17-.19.4-.3.65-.3.62,0,2.17.19,2.24.2.31.04.53.32.49.63-.04.31-.32.53-.63.49-.38-.05-1.4-.16-1.93-.19-.04.19-.04.54,0,.84.04.31-.18.59-.48.63-.02,0-.05,0-.07,0Z"/><path class="cls-1" d="m199.09,61.75c-.08,0-.16-.02-.24-.05-.28-.13-.4-.47-.27-.75.04-.09,1.07-2.21,2.91-2.09.31.02.54.29.52.6-.02.31-.28.55-.6.52-1.06-.06-1.81,1.44-1.82,1.45-.1.2-.3.32-.51.32Z"/><path class="cls-1" d="m204.71,60.17s-.05,0-.07,0l-1.48-.2c-.31-.04-.52-.32-.48-.63.04-.31.32-.52.63-.48l1.48.2c.31.04.52.32.48.63-.04.28-.28.49-.56.49Z"/></g><g><path class="cls-1" d="m108.42,85.26c-.44,0-.79-.35-.79-.79v-6.78c0-.44.35-.79.79-.79s.79.35.79.79v6.78c0,.44-.35.79-.79.79Z"/><path class="cls-15" d="m118.44,54.51c.32.47.48,1.29.48,2.45,0,.94-.15,1.69-.44,2.24-.29.56-.8.9-1.54,1.03-.79.15-1.63.2-2.55.13-.91-.06-1.74-.16-2.47-.29v14.71c0,.58.02,1.05.06,1.41.04.36.09.65.15.89.06.24.11.46.15.65.04.19.06.4.06.63,0,.58-.25,1.08-.76,1.5-.5.42-1.4.63-2.69.63-.91,0-1.7-.15-2.38-.44-.68-.29-1.25-.78-1.7-1.46-.43-.63-.68-1.44-.76-2.41-.08-.98-.11-2.07-.11-3.29v-12.81c-.76.13-1.6.23-2.51.3-.91.08-1.77.03-2.58-.15-.74-.13-1.24-.47-1.52-1.03-.28-.56-.42-1.3-.42-2.24,0-1.16.15-1.98.46-2.45.3-.47.91-.7,1.82-.7h17.41c.91,0,1.53.23,1.84.7Z"/><g><path class="cls-13" d="m107.38,52.5c-1.49-.08-2.79-.74-2.61-4.59.26-5.52,2.72-8.3,2.72-8.3,0,0,2.4,4.88,2.5,8.65.05,2.01-1.13,4.33-2.61,4.24Z"/><path class="cls-10" d="m107.38,52.5s-1.63-1.29-1.34-3.64,1.18-3.92,1.18-3.92c0,0,1.38,2.45,1.24,4.42-.14,1.97-1.08,3.14-1.08,3.14Z"/></g><path class="cls-1" d="m98.22,56.72c-.29,0-.54-.23-.56-.53,0-.11-.04-1.06.6-1.62.27-.24.76-.49,1.54-.34.3.06.5.35.45.65-.06.31-.35.51-.65.45-.28-.05-.47-.02-.59.08-.21.18-.23.62-.22.72.02.31-.22.57-.53.59-.01,0-.02,0-.03,0Z"/><path class="cls-1" d="m115.75,55.54h0l-13.99-.1c-.31,0-.56-.25-.56-.56,0-.31.25-.56.56-.56h0l13.99.1c.31,0,.56.25.56.56,0,.31-.25.56-.56.56Z"/></g><g><path class="cls-15" d="m173.1,30.6c-.51,1.03-1.01,1.93-1.51,2.69-.5.76-.96,1.46-1.37,2.09-.41.63-.76,1.23-1.05,1.81-.28.58-.45,1.19-.5,1.85l-.27,3.79c-.09,1.21-.2,2.3-.35,3.27-.15.97-.46,1.75-.93,2.35-.5.65-1.11,1.09-1.83,1.33-.72.24-1.52.33-2.4.27-1.34-.1-2.25-.37-2.74-.83-.49-.45-.71-.97-.67-1.55.02-.23.06-.43.12-.62.06-.19.14-.4.22-.63.08-.24.16-.53.23-.88.08-.35.14-.82.18-1.4l.42-5.84c-.31-.58-.62-1.25-.92-1.99-.3-.75-.59-1.51-.86-2.29-.27-.78-.54-1.56-.78-2.34-.25-.78-.48-1.52-.68-2.22-.44-1.35-.74-2.46-.9-3.32-.17-.86-.21-1.53-.12-2.01.08-.48.29-.8.62-.96.33-.17.77-.23,1.33-.19.66.05,1.18.12,1.58.23.4.11.75.33,1.06.67.31.34.6.86.9,1.55.29.69.67,1.66,1.14,2.88.36.97.56,1.93.59,2.9.03.97-.14,2.05-.5,3.24.59-1.2.97-2.25,1.14-3.14.17-.89.32-1.48.47-1.78.66-1.4,1.21-2.49,1.65-3.27.44-.78.9-1.36,1.4-1.73.5-.37,1.1-.57,1.8-.61.7-.04,1.65-.01,2.83.07.81.06,1.41.21,1.8.45.39.24.6.62.64,1.13.04.51-.09,1.17-.39,1.99-.3.82-.75,1.83-1.34,3.03Z"/><g><path class="cls-13" d="m168.76,22.56c-1.47-.25-2.68-1.06-2.07-4.86.89-5.46,3.64-7.94,3.64-7.94,0,0,1.83,5.12,1.5,8.88-.18,2-1.62,4.17-3.08,3.92Z"/><path class="cls-10" d="m168.76,22.56s-1.47-1.47-.91-3.77c.56-2.3,1.62-3.76,1.62-3.76,0,0,1.09,2.6.73,4.53s-1.44,3-1.44,3Z"/></g><path class="cls-1" d="m157.38,25.94c-.27,0-.51-.2-.55-.48-.06-.38-.15-1.33.27-1.82.17-.2.4-.31.65-.31.62-.01,2.17.16,2.24.17.31.03.53.31.5.62-.03.31-.3.53-.62.5-.38-.04-1.4-.14-1.93-.16-.04.19-.03.54,0,.84.04.31-.17.59-.47.64-.03,0-.06,0-.08,0Z"/><path class="cls-1" d="m167.35,27.16c-.08,0-.16-.02-.23-.05-.28-.13-.41-.46-.28-.74.04-.09,1.04-2.22,2.87-2.14.31.02.55.28.53.59-.02.31-.28.54-.59.53-1.06-.06-1.79,1.47-1.8,1.48-.09.21-.3.33-.51.33Z"/><path class="cls-1" d="m172.94,25.49s-.04,0-.07,0l-1.48-.17c-.31-.04-.53-.31-.49-.62.04-.31.31-.53.62-.49l1.48.17c.31.04.53.31.49.62-.03.29-.28.5-.56.5Z"/></g><g><path class="cls-18" d="m77.08,39.55c-.32,0-.59-.08-.81-.23l.32,2.72c.14,1.18.23,2.26.26,3.24.04.98-.12,1.81-.48,2.49-.35.73-.85,1.28-1.51,1.65-.66.37-1.43.61-2.31.71-.86.1-1.6-.07-2.24-.52-.64-.45-1.03-1.33-1.19-2.64l-2.35-20.2c-.07-.58-.06-1.06.02-1.44.08-.38.25-.69.49-.92.24-.23.55-.41.91-.53.37-.12.8-.21,1.31-.27,1.71-.2,3,.05,3.85.74.86.69,1.37,1.74,1.53,3.15l.72,6.19,2.08-.24c1.21-.14,2.18.13,2.93.81l-1.06-9.06c-.07-.58-.05-1.06.04-1.44.1-.38.26-.68.5-.9.24-.22.55-.38.91-.49.37-.11.8-.19,1.3-.25,1.7-.22,2.98,0,3.83.68.85.68,1.36,1.72,1.53,3.13l1.92,16.46c.07.58.15,1.05.24,1.41.09.36.18.66.26.89.08.23.15.44.23.62.07.18.12.39.15.61.06.55-.14,1.07-.6,1.54-.47.48-1.34.79-2.61.94-.88.1-1.68.05-2.4-.16-.72-.21-1.35-.63-1.88-1.25-.5-.58-.84-1.35-1.03-2.31-.19-.96-.35-2.03-.49-3.21l-.27-2.34-3.1.36c-.35.04-.69.06-1.01.06Z"/><g><path class="cls-13" d="m72.9,22.35c-1.48.2-2.88-.19-3.44-4-.81-5.47,1.06-8.67,1.06-8.67,0,0,3.3,4.33,4.12,8,.44,1.96-.28,4.46-1.74,4.67Z"/><path class="cls-10" d="m72.9,22.35s-1.85-.96-2.01-3.31c-.17-2.36.4-4.08.4-4.08,0,0,1.83,2.14,2.07,4.1.24,1.96-.46,3.29-.46,3.29Z"/></g><path class="cls-1" d="m68.34,32.03c-.28,0-.52-.21-.56-.49l-.51-3.97c-.04-.31.18-.59.49-.63.31-.04.59.18.63.49l.51,3.97c.04.31-.18.59-.48.63-.02,0-.05,0-.07,0Z"/><path class="cls-1" d="m67.73,26.28c-.1,0-.19-.02-.28-.08-.26-.15-.36-.48-.21-.75.05-.09.55-.92,2.15-1.29,1.03-.24,2.82.21,3.03.27.3.08.48.38.4.68-.08.3-.38.48-.68.4-.66-.17-1.92-.39-2.49-.26-1.1.26-1.43.75-1.43.76-.11.17-.29.27-.48.27Z"/><path class="cls-1" d="m80.54,25.79c-.24,0-.46-.15-.53-.39-.03-.09-.28-.94.15-1.67.17-.3.53-.7,1.25-.86,2.04-.47,3.52-.06,3.58-.04.3.09.47.39.38.69-.08.3-.39.47-.69.39-.01,0-1.28-.34-3.02.06-.26.06-.43.17-.53.33-.16.28-.08.68-.05.78.09.3-.07.61-.37.7-.06.02-.11.03-.17.03Z"/></g><g><path class="cls-14" d="m102.61,41.55c-.4.02-.78,0-1.13-.06-.35-.07-.62-.25-.81-.54-.13.34-.27.66-.42.98-.15.31-.3.61-.46.9-.46.84-.93,1.52-1.42,2.03-.49.51-.97.92-1.45,1.21-.48.3-.95.5-1.43.62-.48.12-.94.19-1.4.22-.89.05-1.54-.17-1.96-.66-.42-.49-.45-1.41-.07-2.76.25-.83.54-1.8.87-2.93.32-1.12.67-2.32,1.04-3.59.37-1.27.74-2.57,1.11-3.91.37-1.34.75-2.64,1.11-3.89.37-1.25.71-2.44,1.02-3.57.31-1.12.6-2.1.85-2.93.17-.59.38-1.08.64-1.45.26-.37.55-.67.88-.89.33-.22.71-.38,1.13-.47.43-.09.89-.15,1.4-.18l.72-.04c1.6-.05,2.9.27,3.9.96,1.01.69,1.86,1.86,2.58,3.52,1.43,3.42,2.63,6.27,3.61,8.56.98,2.29,1.76,4.17,2.36,5.64.6,1.47,1.05,2.61,1.35,3.4.3.79.51,1.42.61,1.87.11.55-.04,1.02-.45,1.4-.41.38-1.06.6-1.94.65-.91.06-1.68.08-2.3.08-.62,0-1.17-.08-1.63-.24-.47-.16-.9-.44-1.29-.84-.39-.39-.83-.97-1.31-1.73-.17-.22-.42-.77-.75-1.67l-4.97.3Zm-.68-15.46c.26,1.36.4,2.86.43,4.51.02,1.65-.09,3.32-.34,5.01l1.21-.07c1.11-.07,1.96.22,2.53.87-.34-.94-.69-1.92-1.05-2.92s-.72-1.97-1.05-2.89c-.34-.92-.65-1.77-.96-2.55-.3-.78-.56-1.43-.77-1.95Z"/><g><path class="cls-13" d="m101.51,17.77c-1.49.06-2.84-.48-3.03-4.33-.26-5.52,1.93-8.52,1.93-8.52,0,0,2.85,4.64,3.3,8.38.24,2-.72,4.41-2.2,4.47Z"/><path class="cls-10" d="m101.51,17.77s-1.74-1.14-1.67-3.5.81-4.02.81-4.02c0,0,1.61,2.31,1.65,4.29.04,1.97-.79,3.23-.79,3.23Z"/></g><path class="cls-1" d="m99.06,23.92s-.05,0-.07,0c-.31-.04-.52-.32-.48-.63.02-.13.44-3.15,2.77-3.15.31,0,.56.25.56.56s-.25.56-.56.56c-1.36,0-1.66,2.15-1.66,2.17-.04.28-.28.49-.56.49Z"/><path class="cls-1" d="m105.95,21.9c-.15,0-.3-.06-.41-.18-.99-1.07-2.57-.63-2.59-.63-.3.08-.61-.09-.69-.39-.08-.3.09-.61.39-.69.09-.03,2.27-.62,3.72.95.21.23.2.58-.03.79-.11.1-.24.15-.38.15Z"/></g><g><path class="cls-9" d="m126.19,42.89c0,.41-.03.8-.08,1.18-.05.38-.16.72-.32,1.01-.16.29-.41.53-.72.7-.32.18-.74.27-1.27.27h-1.98c-.91,0-1.68-.26-2.3-.78-.62-.52-.93-1.44-.93-2.76v-18.05c0-1.85.37-3.16,1.12-3.93.75-.77,1.77-1.16,3.06-1.16h3.31c2.03,0,3.74.21,5.13.63,1.39.42,2.51,1.01,3.36,1.79.85.77,1.44,1.72,1.79,2.85.34,1.13.48,2.41.4,3.86-.08,1.62-.44,3.02-1.08,4.2-.65,1.18-1.47,2.12-2.47,2.83-1,.71-2.12,1.17-3.34,1.37-1.23.2-2.45.14-3.67-.19v6.2Zm0-9.77c.51,0,.98-.13,1.43-.38.44-.25.82-.58,1.14-.99.32-.4.56-.86.74-1.35.18-.49.27-.99.27-1.5,0-.84-.16-1.6-.49-2.28-.33-.68-.86-1.03-1.6-1.03-.25,0-.47.02-.65.06-.18.04-.33.13-.46.29-.13.15-.22.38-.29.68-.06.3-.09.72-.09,1.25v5.25Z"/><g><path class="cls-13" d="m126.67,17.97c-1.49-.12-2.77-.82-2.49-4.66.4-5.52,2.93-8.22,2.93-8.22,0,0,2.27,4.94,2.27,8.71,0,2.01-1.25,4.3-2.72,4.17Z"/><path class="cls-10" d="m126.67,17.97s-1.59-1.34-1.24-3.67c.35-2.34,1.28-3.89,1.28-3.89,0,0,1.32,2.49,1.12,4.45-.2,1.96-1.17,3.11-1.17,3.11Z"/></g><path class="cls-1" d="m119.69,25c-.31,0-.56-.25-.56-.55,0-.1-.01-2.42,1.4-3.76.71-.67,1.63-.97,2.74-.89.31.02.54.29.52.6-.02.31-.27.55-.6.52-.79-.05-1.41.14-1.89.59-1.06,1-1.06,2.92-1.06,2.94,0,.31-.25.56-.55.57h0Z"/><path class="cls-1" d="m132.5,22.05c-.1,0-.19-.02-.28-.08-1.77-1.04-5.23-1.05-6.37-1.05-.39,0-.46,0-.57-.04-.29-.1-.45-.41-.35-.71.09-.26.35-.42.62-.38.06,0,.16,0,.31,0,1.21,0,4.9,0,6.93,1.2.27.16.36.5.2.77-.1.18-.29.28-.48.28Z"/></g><g><path class="cls-3" d="m144.49,44.25c-.02.41-.07.8-.13,1.17-.07.38-.19.71-.37.99-.18.28-.43.51-.76.67-.33.16-.75.23-1.28.2l-1.97-.1c-.91-.05-1.66-.34-2.26-.89-.59-.55-.86-1.48-.79-2.8l.9-18.03c.09-1.85.53-3.14,1.32-3.87.78-.73,1.82-1.07,3.11-1.01l3.3.17c2.02.1,3.72.4,5.09.88,1.37.49,2.46,1.14,3.27,1.95.81.81,1.36,1.79,1.64,2.94.29,1.14.35,2.43.21,3.87-.16,1.62-.59,3-1.29,4.14-.7,1.14-1.57,2.05-2.61,2.7-1.04.66-2.17,1.06-3.41,1.2-1.24.14-2.46.02-3.65-.37l-.31,6.19Zm.49-9.76c.51.03.99-.08,1.44-.31.46-.23.85-.54,1.19-.93.34-.39.61-.83.81-1.31.2-.48.32-.98.34-1.49.04-.84-.09-1.6-.38-2.3-.29-.7-.81-1.07-1.54-1.1-.25-.01-.47,0-.65.02-.18.03-.34.12-.47.26-.13.15-.24.37-.32.67s-.13.72-.16,1.25l-.26,5.24Z"/><g><path class="cls-13" d="m146.62,19.33c-1.48-.21-2.71-.98-2.2-4.8.74-5.48,3.43-8.03,3.43-8.03,0,0,1.97,5.07,1.74,8.83-.12,2.01-1.51,4.21-2.97,4Z"/><path class="cls-10" d="m146.62,19.33s-1.51-1.43-1.01-3.74c.49-2.31,1.52-3.81,1.52-3.81,0,0,1.16,2.57.85,4.51-.32,1.95-1.35,3.03-1.35,3.03Z"/></g><path class="cls-1" d="m138.71,26.39h0c-.31,0-.56-.26-.55-.57,0-.1.04-2.42,1.49-3.73.72-.65,1.65-.94,2.76-.83.31.03.54.3.51.61-.03.31-.31.54-.61.51-.79-.07-1.42.11-1.9.54-1.08.97-1.12,2.89-1.12,2.91,0,.31-.25.55-.56.55Z"/><path class="cls-1" d="m151.58,23.72c-.1,0-.2-.03-.29-.08-1.74-1.08-5.2-1.16-6.34-1.19-.39,0-.46-.01-.57-.05-.29-.1-.44-.43-.34-.72.09-.26.36-.41.62-.36.06,0,.16,0,.31,0,1.21.03,4.9.12,6.9,1.36.26.16.34.51.18.77-.11.17-.29.27-.48.27Z"/></g></g></svg>