<?xml version="1.0" encoding="UTF-8"?>
<svg id="_레이어_2" data-name="레이어 2" xmlns="http://www.w3.org/2000/svg" viewBox="0 0 752.5 138.22">
  <defs>
    <style>
      .cls-1 {
        fill: none;
        stroke: #000;
        stroke-miterlimit: 10;
        stroke-width: 2px;
      }

      .cls-2 {
        fill: #231815;
        stroke-width: 0px;
      }
    </style>
  </defs>
  <g id="_레이어_1-2" data-name="레이어 1">
    <g>
      <g>
        <path class="cls-2" d="m126.94,55.58c.63,0,1.16-.32,1.11-1.16-1.01-16.98-.7-24.58-.7-33.78,0-7.85-4.35-19.08-22.28-20.46-12.42-.96-20.73,3.05-25.09,8.85-.91,0-2.77,0-4.07,0-.39,0-.75,0-1.1,0l-4.49,2.97c.29,1.98.36,3.86.36,7.28,0,12.29.33,18.4-.7,35.14-.05.84.48,1.16,1.11,1.16h9.63c.63,0,1.16-.32,1.11-1.16-1.01-16.98-.7-22.85-.7-35.14,0-3.35.12-5.38.35-7.53,3.74-5.41,10.33-8.78,19.32-8.11,10.61.79,16.1,7.98,16.35,16.38.37,12.64.24,17.64-.37,34.4-.03.84.48,1.16,1.11,1.16h9.06Z"/>
        <path class="cls-2" d="m.02,30.88c.55,18.96,14.17,26.59,28.68,26.59,9.56,0,15.71-3.65,18.97-6.64v.12c.09,1.37.24,2.15.51,3.47.16.82.42,1.16,1.06,1.16h8.82c.63,0,1.14-.3,1.04-1.13-1.07-17.39-.88-23.93-.88-36.7,0-2.18.04-4.17.29-7.57.11-1.33-.14-1.15-6.17-1.15-.39,0-.6,0-.6,0l-.93.61C45.46,2.27,37.84-.08,29.65.04,13.88.26-.6,9.38.02,30.88ZM25.74,2.95c10-1.59,20.13,4.45,21.75,21.44.05.5.11,1.5.11,3.68,0,.88-.04,14.17-.03,18.36-2.87,4.07-7.48,6.93-13.11,7.67-11.31,1.48-20.4-3.57-22.79-20.08-2.4-16.52,1.48-29.06,14.07-31.07Z"/>
        <path class="cls-2" d="m194.98,17.74c0-2.18.04-4.17.29-7.57.11-1.33-.14-1.15-6.17-1.15-.39,0-.6,0-.6,0l-.93.61C182.23,2.27,174.61-.08,166.42.04c-15.77.22-30.25,9.34-29.63,30.84.55,18.96,14.17,26.59,28.68,26.59,9.56,0,15.71-3.65,18.97-6.64v.12c.09,1.37.24,2.15.51,3.47.16.82.42,1.16,1.06,1.16h8.82c.63,0,1.14-.3,1.04-1.13-1.07-17.39-.88-23.93-.88-36.7Zm-10.64,28.69c-2.87,4.07-7.48,6.93-13.11,7.67-11.31,1.48-20.4-3.57-22.79-20.08-2.4-16.52,1.48-29.06,14.07-31.07,10-1.59,20.13,4.45,21.75,21.44.05.5.11,1.5.11,3.68,0,.88-.04,14.17-.03,18.36Z"/>
        <path class="cls-2" d="m253.92,20.01c.37,12.64.24,17.64-.37,34.4-.03.84.48,1.16,1.11,1.16h9.06c.63,0,1.16-.32,1.11-1.16-1.01-16.98-.7-24.58-.7-33.78,0-7.85-4.35-19.08-22.28-20.46-12.42-.96-20.73,3.05-25.09,8.85-.91,0-2.77,0-4.07,0-.39,0-.76,0-1.1,0l-4.49,2.97c.29,1.98.36,3.86.36,7.28,0,12.29.33,18.4-.7,35.14-.05.84.48,1.16,1.11,1.16h9.63c.63,0,1.16-.32,1.11-1.16-1.01-16.98-.7-22.85-.7-35.14,0-3.35.12-5.38.35-7.53,3.74-5.41,10.33-8.78,19.32-8.11,10.61.79,16.1,7.98,16.35,16.38Z"/>
        <path class="cls-2" d="m322.33,54.48c-.95-16.04-.72-27-.72-38.62,0-3.93.17-7.47.5-10.16.16-1.26-.26-1.07-5.54-1.07h-.61l-4.24,2.81c.23,3.09.34,5.19.34,8.42,0,11.61.25,22.8-.72,38.62-.05.79.45,1.1,1.05,1.1h8.9c.6,0,1.09-.31,1.05-1.1Z"/>
        <path class="cls-2" d="m275.64,38.99c-.09,12.54,5.95,17.12,14.9,17.61,2.05.11,6.9.34,10.99-3.19.56-.49.31-.69-.24-1.45-.56-.76-.78-.89-1.19-.52-.86.76-2.91,2.1-5.5,2.1-10.04,0-8.99-13.36-8.99-18.81,0-8.88.17-14.82.17-20.8,0-1.95.04-1.4.1-2.82h1.28c12.35,0,14.11.42,14.79.19.41-.14.05-1.23-.34-2.37-.36-1.08-.53-1.48-1.73-1.48h-13.84c.18-3.17.4-5.34.52-6.29.16-1.33-.93-1.14-6.52-1.14l-4.49,2.97c.33,4.74.27,4.99.27,10.95s-.08,12.76-.17,25.06Z"/>
      </g>
      <g>
        <path class="cls-2" d="m183.5,103.44h-.91c-.17,0-.32.14-.32.32l-.04,3.07h0s-.2,13.63-.2,13.63l-14.54-16.84c-.09-.11-.23-.17-.38-.17h-.37c-.27,0-.5.22-.5.5v21.95c0,.17.14.32.32.32h.9c.17,0,.32-.14.32-.32v-16.42l14.35,16.62c.06.07.15.11.24.11h1.13c.17,0,.32-.14.32-.32v-22.13c0-.17-.14-.32-.32-.32Z"/>
        <path class="cls-2" d="m153.34,103.44h-2.29c-.34,0-.65.2-.79.51l-9.93,21.8c-.1.21.06.45.29.45h.79c.12,0,.24-.07.29-.19l4.87-10.7h8.78l4.82,10.7c.05.11.16.19.29.19h3.21c.23,0,.38-.24.29-.45l-9.82-21.8c-.14-.31-.45-.51-.79-.51Zm-6.21,10.64l3.85-8.46,3.81,8.46h-7.67Z"/>
        <path class="cls-2" d="m135.51,104.11c.43.26.81.56,1.22.89.22.18.45.36.65.57.14.15.22.21.22.36,0,.13-.07.21-.23.39l-.22.22c-.11.11-.17.15-.31.15-.11,0-.19-.05-.26-.12-.52-.51-1.04-1.01-1.66-1.4-.76-.47-1.56-.74-2.35-.87-.9-.14-1.59-.11-2.43.08-.34.08-1.23.31-1.99.98s-1.24,1.6-1.25,2.65c-.02,1.15.44,2.13,1.37,2.94.93.82,2.21,1.44,3.85,1.87,2.26.6,4.06,1.5,5.4,2.72,1.33,1.22,1.99,2.66,1.97,4.33-.02,1.34-.38,2.53-1.09,3.55-.71,1.03-1.7,1.81-2.97,2.36-1.27.54-2.64.81-4.29.78-1.51-.02-3.15-.48-4.49-1.19-1.51-.8-2.67-1.99-3.62-3.34-.05-.07-.07-.11-.07-.19,0-.09.04-.12.08-.17l.58-.49s.1-.06.18-.06.14.02.18.07c.43.49.81.98,1.26,1.43s.93.87,1.46,1.22c1.5,1,3.41,1.44,5.2,1.28,1.16-.11,2.35-.49,3.28-1.23.89-.71,1.3-1.84,1.32-2.92.03-2.18-1.72-3.76-5.25-4.72-2.31-.6-4.12-1.5-5.43-2.72-1.31-1.22-1.96-2.68-1.93-4.39.02-1.23.34-2.32.97-3.26.63-.94,1.57-1.75,2.7-2.26.99-.45,1.97-.69,3.07-.73,1.73-.06,3.43.33,4.89,1.21Z"/>
        <path class="cls-2" d="m97.88,116.07c-.58-1.07-1.83-1.99-2.83-2.41-.06-.02-.18-.08-.28-.13-.11-.05-.1-.11-.1-.13,0-.04.03-.08.1-.11.06-.03.12-.06.16-.08.81-.51,1.47-1.16,1.96-1.96.49-.8.74-1.59.74-2.38,0-1.09-.29-2.04-.89-2.87-.6-.82-1.44-1.47-2.52-1.93-1.09-.46-2.35-.7-3.78-.7-.64,0-2.96.03-4.05.02h0s-2.76.02-2.76.02c-.2,0-.37.16-.37.37v22.04c0,.2.16.37.37.37h2.87c1,0,3.44,0,4.19-.02,1.49-.06,3.32-.27,4.46-.82,1.13-.55,2.01-1.34,2.65-2.36.63-1.02.95-2.21.96-3.55,0-1.17-.29-2.29-.87-3.36Zm-11.15-11.4c5.46-.39,6.76,1.43,7.2,2.13.8,1.27.62,3.29-.57,4.61-.6.66-1.43,1.05-2.46,1.28-1.01.22-3.35.13-4.16.13v-8.15Zm8.29,17.3c-.15.32-.34.62-.56.9-.51.63-1.19,1.12-1.96,1.42-1.1.42-2.25.57-3.48.64-.77.04-1.55.02-2.32-.02l.03-10.82c.19-.04,2.36-.03,3.35.09,1.26.15,2.57.46,3.56,1.28,1.92,1.59,2.35,4.42,1.37,6.51Z"/>
        <path class="cls-2" d="m105.57,118.25c.03,2.37.75,4.55,2.74,5.77,3.68,2.27,9.42.37,9.87-4.48.14-1.48.17-3.04.17-4.55v-11.19c0-.21.17-.37.37-.37h.82c.21,0,.37.17.37.37,0,0,0,14.43,0,14.45-.06,2.14-.47,4.03-1.84,5.59s-3.3,2.48-5.33,2.64c-3.91.32-7.78-.81-9.6-4.54-1.21-2.49-1.01-5.19-1.03-8.05-.02-3.08,0-6.15,0-9.23,0-.29,0-.57,0-.86,0-.21.17-.37.37-.37h2.7c.21,0,.37.17.37.37,0,0,0,14.44,0,14.45Z"/>
        <path class="cls-2" d="m61.43,126.19h2.71c.2,0,.37-.16.37-.37v-21.05h7.09c.18,0,.31-.19.24-.36l-.36-.83c-.04-.09-.13-.16-.24-.16h-17.19c-.1,0-.19.06-.24.15l-.36.83c-.07.17.05.36.24.36h7.38v21.05c0,.2.16.37.37.37Z"/>
        <path class="cls-2" d="m32.59,126.19h.8c.13,0,.24-.07.29-.19l4.87-10.69h8.31l4.8,10.66c.06.13.19.22.33.22h3.11c.27,0,.44-.28.33-.52l-9.74-21.63c-.17-.37-.54-.61-.95-.61h-1.62c-.41,0-.78.24-.95.61l-9.88,21.69c-.1.21.06.45.29.45Zm10.13-20.06l3.58,7.94h-7.2l3.62-7.94Z"/>
        <g>
          <g>
            <path class="cls-2" d="m211.08,125.39c-2.38,0-4.45-.49-6.23-1.48-1.78-.98-3.15-2.3-4.12-3.95-.97-1.65-1.45-3.48-1.45-5.47s.49-3.86,1.48-5.51c.98-1.65,2.36-2.97,4.12-3.95,1.76-.98,3.83-1.48,6.21-1.48,3.17,0,5.78.85,7.82,2.54l-2.09.7c-1.53-1.67-3.44-2.5-5.73-2.5-1.69,0-3.21.47-4.55,1.41-1.34.94-2.39,2.19-3.15,3.75-.76,1.56-1.15,3.24-1.15,5.04,0,2.68.84,5.02,2.52,7.03,1.68,2.01,3.79,3.01,6.33,3.01,2.16,0,4.03-.78,5.61-2.33l1.92.9c-2.02,1.53-4.53,2.29-7.54,2.29Z"/>
            <path class="cls-2" d="m211.08,125.46c-2.38,0-4.49-.5-6.26-1.48-1.78-.99-3.17-2.32-4.15-3.98-.97-1.66-1.46-3.51-1.46-5.51s.5-3.89,1.49-5.55c.99-1.66,2.38-3,4.15-3.98,1.76-.99,3.86-1.48,6.24-1.48,3.17,0,5.82.86,7.87,2.56l.1.09-2.26.75-.03-.04c-1.51-1.64-3.42-2.47-5.68-2.47-1.67,0-3.19.47-4.51,1.4-1.32.93-2.37,2.18-3.13,3.72-.76,1.54-1.14,3.22-1.14,5.01,0,2.65.84,4.99,2.5,6.98,1.66,1.98,3.77,2.98,6.27,2.98,2.13,0,4-.78,5.56-2.31l.04-.04.05.02,2.04.95-.1.08c-2.02,1.53-4.58,2.31-7.58,2.31Zm0-21.83c-2.35,0-4.43.49-6.17,1.47-1.74.97-3.12,2.29-4.09,3.93-.97,1.63-1.46,3.48-1.46,5.47s.49,3.8,1.44,5.43,2.33,2.95,4.09,3.93c1.75.97,3.84,1.47,6.19,1.47,2.92,0,5.41-.74,7.39-2.2l-1.77-.83c-1.58,1.54-3.48,2.32-5.63,2.32-2.55,0-4.7-1.02-6.39-3.04-1.68-2.01-2.54-4.39-2.54-7.07,0-1.81.39-3.51,1.15-5.07.77-1.56,1.84-2.83,3.18-3.78,1.34-.95,2.89-1.43,4.59-1.43,2.29,0,4.22.84,5.76,2.49l1.91-.64c-2.01-1.62-4.59-2.44-7.67-2.44Z"/>
          </g>
          <g>
            <path class="cls-2" d="m232.38,125.39c-2.38,0-4.45-.49-6.23-1.48-1.78-.98-3.15-2.3-4.12-3.95-.97-1.65-1.45-3.48-1.45-5.47s.49-3.86,1.48-5.51c.98-1.65,2.36-2.97,4.12-3.95,1.76-.98,3.83-1.48,6.21-1.48s4.46.49,6.25,1.48c1.79.98,3.18,2.3,4.16,3.95.98,1.65,1.48,3.49,1.48,5.51s-.49,3.82-1.48,5.47c-.98,1.65-2.36,2.97-4.14,3.95-1.78.98-3.86,1.48-6.27,1.48Zm0-.86c2.59,0,4.72-1,6.39-3.01,1.67-2.01,2.5-4.35,2.5-7.03,0-1.8-.38-3.48-1.15-5.04-.76-1.56-1.82-2.81-3.15-3.75-1.34-.94-2.87-1.41-4.59-1.41s-3.21.47-4.55,1.41c-1.34.94-2.39,2.19-3.15,3.75-.76,1.56-1.15,3.24-1.15,5.04,0,2.68.84,5.02,2.52,7.03,1.68,2.01,3.79,3.01,6.33,3.01Z"/>
            <path class="cls-2" d="m232.38,125.46c-2.38,0-4.49-.5-6.26-1.48-1.78-.99-3.17-2.32-4.15-3.98-.97-1.66-1.46-3.51-1.46-5.51s.5-3.89,1.49-5.55c.99-1.66,2.38-3,4.15-3.98,1.76-.99,3.86-1.48,6.24-1.48s4.49.5,6.28,1.48c1.79.99,3.2,2.32,4.19,3.98.99,1.66,1.49,3.52,1.49,5.55s-.5,3.85-1.49,5.51c-.98,1.66-2.39,2.99-4.17,3.98-1.78.98-3.9,1.48-6.3,1.48Zm0-21.83c-2.35,0-4.43.49-6.17,1.47-1.74.97-3.12,2.29-4.09,3.93-.97,1.63-1.46,3.48-1.46,5.47s.49,3.8,1.44,5.43,2.33,2.95,4.09,3.93c1.75.97,3.84,1.47,6.19,1.47s4.48-.49,6.23-1.47c1.76-.97,3.14-2.29,4.11-3.93.97-1.63,1.46-3.46,1.46-5.43s-.49-3.84-1.46-5.47c-.97-1.63-2.36-2.95-4.13-3.93-1.77-.97-3.86-1.47-6.21-1.47Zm0,20.97c-2.55,0-4.7-1.02-6.39-3.04-1.68-2.01-2.54-4.39-2.54-7.07,0-1.81.39-3.51,1.15-5.07.77-1.56,1.84-2.83,3.18-3.78,1.34-.95,2.89-1.43,4.59-1.43s3.29.48,4.63,1.43c1.34.95,2.41,2.22,3.18,3.78.77,1.56,1.15,3.27,1.15,5.07,0,2.68-.85,5.06-2.52,7.07-1.67,2.02-3.84,3.04-6.45,3.04Zm0-20.24c-1.67,0-3.19.47-4.51,1.4-1.32.93-2.37,2.18-3.13,3.72-.76,1.54-1.14,3.22-1.14,5.01,0,2.65.84,4.99,2.5,6.98,1.66,1.98,3.77,2.98,6.27,2.98s4.69-1,6.33-2.98c1.65-1.98,2.48-4.33,2.48-6.98,0-1.78-.38-3.47-1.14-5.01-.76-1.54-1.81-2.79-3.13-3.72-1.32-.93-2.85-1.4-4.55-1.4Z"/>
          </g>
          <g>
            <path class="cls-2" d="m257.49,125.43h-3.03l-9.3-21.75h3.03l8.6,20.56,8.85-20.56h1.15l-9.3,21.75Z"/>
            <path class="cls-2" d="m257.54,125.5h-3.13l-.02-.05-9.35-21.86h3.2l.02.05,8.53,20.39,8.8-20.44h1.31l-.05.1-9.32,21.8Zm-3.03-.15h2.93l9.23-21.6h-.98l-8.91,20.67-.07-.16-8.58-20.51h-2.87l9.24,21.6Z"/>
          </g>
          <g>
            <path class="cls-2" d="m280.44,125.39c-2.35,0-4.41-.49-6.19-1.48-1.78-.98-3.16-2.3-4.14-3.95-.98-1.65-1.48-3.48-1.48-5.47,0-2.24.48-4.17,1.45-5.8.97-1.62,2.28-2.89,3.93-3.79,1.65-.9,3.47-1.35,5.47-1.35s3.62.29,4.96.88c1.34.59,2.41,1.3,3.22,2.15.8.85,1.39,1.71,1.76,2.58.37.87.55,1.6.55,2.17l-9.18,1.48c-6.15,1.01-9.22,1.57-9.22,1.68,0,2.7.85,5.05,2.56,7.05,1.71,1.99,3.84,2.99,6.41,2.99,2.27,0,4.15-.79,5.65-2.38l3.07-.77c-.91.81-2.77,2.74-4.83,3.39-1.39.44-2.73.61-4.01.61Zm-8.7-11.94l15.62-2.65-.16-.66c-.14-.44-.36-.98-.68-1.64-.31-.66-.77-1.3-1.35-1.95-.59-.64-1.34-1.18-2.25-1.62-.92-.44-2.04-.66-3.38-.66-1.58,0-2.96.45-4.12,1.35-1.16.9-2.07,2.06-2.72,3.48s-.93,2.69-.95,4.33Z"/>
            <path class="cls-2" d="m280.44,125.46c-2.35,0-4.45-.5-6.22-1.48-1.78-.99-3.18-2.32-4.17-3.98-.99-1.66-1.49-3.51-1.49-5.51,0-2.24.49-4.21,1.46-5.83.97-1.63,2.31-2.91,3.96-3.82,1.66-.9,3.51-1.36,5.5-1.36s3.65.3,4.99.89c1.34.59,2.43,1.32,3.24,2.17.81.85,1.4,1.73,1.78,2.6.37.88.56,1.62.56,2.2v.06h-.06s-9.18,1.49-9.18,1.49c-7.06,1.16-8.9,1.54-9.15,1.64,0,2.66.86,5,2.54,6.96,1.68,1.97,3.82,2.96,6.35,2.96,2.24,0,4.12-.79,5.6-2.35v-.02s.04,0,.04,0l3.07-.77.07.13c-.13.12-.29.26-.46.42-.98.91-2.63,2.43-4.4,2.99-1.3.41-2.66.62-4.04.62Zm-.94-21.83c-1.97,0-3.8.45-5.43,1.34-1.63.89-2.95,2.16-3.91,3.76-.96,1.61-1.44,3.54-1.44,5.76,0,1.97.49,3.8,1.46,5.43.97,1.63,2.35,2.95,4.11,3.93,1.75.97,3.82,1.47,6.15,1.47,1.36,0,2.7-.21,3.99-.61,1.74-.55,3.37-2.05,4.34-2.95.08-.08.16-.15.24-.22l-2.75.69c-1.51,1.58-3.42,2.38-5.69,2.38-2.58,0-4.75-1.01-6.47-3.02-1.71-2-2.58-4.38-2.58-7.09,0-.11,0-.23,9.28-1.75l9.11-1.46c-.01-.55-.2-1.25-.55-2.08-.36-.86-.95-1.72-1.75-2.56-.8-.84-1.87-1.55-3.19-2.13-1.32-.58-2.98-.88-4.93-.88Zm-7.83,9.91v-.09c.03-1.68.31-2.94.96-4.36.66-1.42,1.58-2.61,2.75-3.51,1.17-.91,2.57-1.37,4.16-1.37,1.34,0,2.49.22,3.41.66.92.44,1.69.99,2.28,1.63.59.65,1.05,1.31,1.36,1.96.31.66.54,1.21.68,1.65l.18.74h-.08s-15.71,2.68-15.71,2.68Zm7.87-9.17c-1.56,0-2.93.45-4.07,1.34-1.15.89-2.06,2.05-2.7,3.45-.63,1.37-.91,2.6-.94,4.2l15.45-2.62-.15-.58c-.13-.42-.36-.97-.67-1.62-.31-.64-.76-1.29-1.34-1.93-.58-.63-1.33-1.17-2.23-1.6-.9-.43-2.03-.65-3.35-.65Z"/>
          </g>
        </g>
      </g>
    </g>
    <g>
      <g>
        <path class="cls-2" d="m557.11,55.58c.63,0,1.16-.32,1.11-1.16-1.01-16.98-.7-24.58-.7-33.78,0-7.85-4.35-19.08-22.28-20.46-12.42-.96-20.73,3.05-25.09,8.85-.91,0-2.77,0-4.07,0-.39,0-.75,0-1.1,0l-4.49,2.97c.29,1.98.36,3.86.36,7.28,0,12.29.33,18.4-.7,35.14-.05.84.48,1.16,1.11,1.16h9.63c.63,0,1.16-.32,1.11-1.16-1.01-16.98-.7-22.85-.7-35.14,0-3.35.12-5.38.35-7.53,3.74-5.41,10.33-8.78,19.32-8.11,10.61.79,16.1,7.98,16.35,16.38.37,12.64.24,17.64-.37,34.4-.03.84.48,1.16,1.11,1.16h9.06Z"/>
        <path class="cls-2" d="m430.19,30.88c.55,18.96,14.17,26.59,28.68,26.59,9.56,0,15.71-3.65,18.97-6.64v.12c.09,1.37.24,2.15.51,3.47.16.82.42,1.16,1.06,1.16h8.82c.63,0,1.14-.3,1.04-1.13-1.07-17.39-.88-23.93-.88-36.7,0-2.18.04-4.17.29-7.57.11-1.33-.14-1.15-6.17-1.15-.39,0-.6,0-.6,0l-.93.61C475.63,2.27,468.01-.08,459.82.04c-15.77.22-30.25,9.34-29.63,30.84Zm25.72-27.92c10-1.59,20.13,4.45,21.75,21.44.05.5.11,1.5.11,3.68,0,.88-.04,14.17-.03,18.36-2.87,4.07-7.48,6.93-13.11,7.67-11.31,1.48-20.4-3.57-22.79-20.08-2.4-16.52,1.48-29.06,14.07-31.07Z"/>
        <path class="cls-2" d="m625.15,17.74c0-2.18.04-4.17.29-7.57.11-1.33-.14-1.15-6.17-1.15-.39,0-.6,0-.6,0l-.93.61c-5.34-7.36-12.97-9.72-21.16-9.6-15.77.22-30.25,9.34-29.63,30.84.55,18.96,14.17,26.59,28.68,26.59,9.56,0,15.71-3.65,18.97-6.64v.12c.09,1.37.24,2.15.51,3.47.16.82.42,1.16,1.06,1.16h8.82c.63,0,1.14-.3,1.04-1.13-1.07-17.39-.88-23.93-.88-36.7Zm-10.64,28.69c-2.87,4.07-7.48,6.93-13.11,7.67-11.31,1.48-20.4-3.57-22.79-20.08-2.4-16.52,1.48-29.06,14.07-31.07,10-1.59,20.13,4.45,21.75,21.44.05.5.11,1.5.11,3.68,0,.88-.04,14.17-.03,18.36Z"/>
        <path class="cls-2" d="m684.09,20.01c.37,12.64.24,17.64-.37,34.4-.03.84.48,1.16,1.11,1.16h9.06c.63,0,1.16-.32,1.11-1.16-1.01-16.98-.7-24.58-.7-33.78,0-7.85-4.35-19.08-22.28-20.46-12.42-.96-20.73,3.05-25.09,8.85-.91,0-2.77,0-4.07,0-.39,0-.76,0-1.1,0l-4.49,2.97c.29,1.98.36,3.86.36,7.28,0,12.29.33,18.4-.7,35.14-.05.84.48,1.16,1.11,1.16h9.63c.63,0,1.16-.32,1.11-1.16-1.01-16.98-.7-22.85-.7-35.14,0-3.35.12-5.38.35-7.53,3.74-5.41,10.33-8.78,19.32-8.11,10.61.79,16.1,7.98,16.35,16.38Z"/>
        <path class="cls-2" d="m752.5,54.48c-.95-16.04-.72-27-.72-38.62,0-3.93.17-7.47.5-10.16.16-1.26-.26-1.07-5.54-1.07h-.61l-4.24,2.81c.23,3.09.34,5.19.34,8.42,0,11.61.25,22.8-.72,38.62-.05.79.45,1.1,1.05,1.1h8.9c.6,0,1.09-.31,1.05-1.1Z"/>
        <path class="cls-2" d="m705.81,38.99c-.09,12.54,5.95,17.12,14.9,17.61,2.05.11,6.9.34,10.99-3.19.56-.49.31-.69-.24-1.45-.56-.76-.78-.89-1.19-.52-.86.76-2.91,2.1-5.5,2.1-10.04,0-8.99-13.36-8.99-18.81,0-8.88.17-14.82.17-20.8,0-1.95.04-1.4.1-2.82h1.28c12.35,0,14.11.42,14.79.19.41-.14.05-1.23-.34-2.37-.36-1.08-.53-1.48-1.73-1.48h-13.84c.18-3.17.4-5.34.52-6.29.16-1.33-.93-1.14-6.52-1.14l-4.49,2.97c.33,4.74.27,4.99.27,10.95s-.08,12.76-.17,25.06Z"/>
      </g>
      <g>
        <path class="cls-2" d="m598.27,102.78h-.91c-.17,0-.32.14-.32.32l-.04,3.07h0s-.2,13.63-.2,13.63l-14.54-16.84c-.09-.11-.23-.17-.38-.17h-.37c-.27,0-.5.22-.5.5v21.95c0,.17.14.32.32.32h.9c.17,0,.32-.14.32-.32v-16.42l14.35,16.62c.06.07.15.11.24.11h1.13c.17,0,.32-.14.32-.32v-22.13c0-.17-.14-.32-.32-.32Z"/>
        <path class="cls-2" d="m568.1,102.78h-2.29c-.34,0-.65.2-.79.51l-9.93,21.8c-.1.21.06.45.29.45h.79c.12,0,.24-.07.29-.19l4.87-10.7h8.78l4.82,10.7c.05.11.16.19.29.19h3.21c.23,0,.38-.24.29-.45l-9.82-21.8c-.14-.31-.45-.51-.79-.51Zm-6.21,10.64l3.85-8.46,3.81,8.46h-7.67Z"/>
        <path class="cls-2" d="m550.27,103.44c.43.26.81.56,1.22.89.22.18.45.36.65.57.14.15.22.21.22.36,0,.13-.07.21-.23.39l-.22.22c-.11.11-.17.15-.31.15-.11,0-.19-.05-.26-.12-.52-.51-1.04-1.01-1.66-1.4-.76-.47-1.56-.74-2.35-.87-.9-.14-1.59-.11-2.43.08-.34.08-1.23.31-1.99.98-.77.68-1.24,1.6-1.25,2.65-.02,1.15.44,2.13,1.37,2.94.93.82,2.21,1.44,3.85,1.87,2.26.6,4.06,1.5,5.4,2.72,1.33,1.22,1.99,2.66,1.97,4.33-.02,1.34-.38,2.53-1.09,3.55-.71,1.03-1.7,1.81-2.97,2.36s-2.64.81-4.29.78c-1.51-.02-3.15-.48-4.49-1.19-1.51-.8-2.67-1.99-3.62-3.34-.05-.07-.07-.11-.07-.19,0-.09.04-.12.08-.17l.58-.49s.1-.06.18-.06.14.02.18.07c.43.49.81.98,1.26,1.43s.93.87,1.46,1.22c1.5,1,3.41,1.44,5.2,1.28,1.16-.11,2.35-.49,3.28-1.23.89-.71,1.3-1.84,1.32-2.92.03-2.18-1.72-3.76-5.25-4.72-2.31-.6-4.12-1.5-5.43-2.72s-1.96-2.68-1.93-4.39c.02-1.23.34-2.32.97-3.26.63-.94,1.57-1.75,2.7-2.26.99-.45,1.97-.69,3.07-.73,1.73-.06,3.43.33,4.89,1.21Z"/>
        <path class="cls-2" d="m512.65,115.41c-.58-1.07-1.83-1.99-2.83-2.41-.06-.02-.18-.08-.28-.13-.11-.05-.1-.11-.1-.13,0-.04.03-.08.1-.11.06-.03.12-.06.16-.08.81-.51,1.47-1.16,1.96-1.96.49-.8.74-1.59.74-2.38,0-1.09-.29-2.04-.89-2.87-.6-.82-1.44-1.47-2.52-1.93-1.09-.46-2.35-.7-3.78-.7-.64,0-2.96.03-4.05.02h0s-2.76.02-2.76.02c-.2,0-.37.16-.37.37v22.04c0,.2.16.37.37.37h2.87c1,0,3.44,0,4.19-.02,1.49-.06,3.32-.27,4.46-.82,1.13-.55,2.01-1.34,2.65-2.36.63-1.02.95-2.21.96-3.55,0-1.17-.29-2.29-.87-3.36Zm-11.15-11.4c5.46-.39,6.76,1.43,7.2,2.13.8,1.27.62,3.29-.57,4.61-.6.66-1.43,1.05-2.46,1.28-1.01.22-3.35.13-4.16.13v-8.15Zm8.29,17.3c-.15.32-.34.62-.56.9-.51.63-1.19,1.12-1.96,1.42-1.1.42-2.25.57-3.48.64-.77.04-1.55.02-2.32-.02l.03-10.82c.19-.04,2.36-.03,3.35.09,1.26.15,2.57.46,3.56,1.28,1.92,1.59,2.35,4.42,1.37,6.51Z"/>
        <path class="cls-2" d="m520.34,117.59c.03,2.37.75,4.55,2.74,5.77,3.68,2.27,9.42.37,9.87-4.48.14-1.48.17-3.04.17-4.55v-11.19c0-.21.17-.37.37-.37h.82c.21,0,.37.17.37.37,0,0,0,14.43,0,14.45-.06,2.14-.47,4.03-1.84,5.59s-3.3,2.48-5.33,2.64c-3.91.32-7.78-.81-9.6-4.54-1.21-2.49-1.01-5.19-1.03-8.05-.02-3.08,0-6.15,0-9.23,0-.29,0-.57,0-.86,0-.21.17-.37.37-.37h2.7c.21,0,.37.17.37.37,0,0,0,14.44,0,14.45Z"/>
        <path class="cls-2" d="m476.19,125.52h2.71c.2,0,.37-.16.37-.37v-21.05h7.09c.18,0,.31-.19.24-.36l-.36-.83c-.04-.09-.13-.16-.24-.16h-17.19c-.1,0-.19.06-.24.15l-.36.83c-.07.17.05.36.24.36h7.38v21.05c0,.2.16.37.37.37Z"/>
        <path class="cls-2" d="m447.36,125.52h.8c.13,0,.24-.07.29-.19l4.87-10.69h8.31l4.8,10.66c.06.13.19.22.33.22h3.11c.27,0,.44-.28.33-.52l-9.74-21.63c-.17-.37-.54-.61-.95-.61h-1.62c-.41,0-.78.24-.95.61l-9.88,21.69c-.1.21.06.45.29.45Zm10.13-20.06l3.58,7.94h-7.2l3.62-7.94Z"/>
        <path class="cls-2" d="m624.64,125.38h-3.8l-9.06-21.84,3.45.03,8.6,20.26,8.31-20.29h1.56l-9.06,21.84Z"/>
        <path class="cls-2" d="m639.5,106.36c-.37,0-.8-.09-1.27-.42s-.72-.84-.72-1.52.24-1.23.72-1.56c.48-.33.86-.41,1.23-.41s.83.08,1.3.41c.47.33.7.85.7,1.56s-.23,1.19-.7,1.52-.89.42-1.26.42Zm1.48,19.02h-2.95v-16.97h2.95v16.97Z"/>
        <path class="cls-2" d="m649.61,125.38h-3.27v-27.32h3.27v27.32Z"/>
        <path class="cls-2" d="m658.69,125.38h-3.33v-27.32h3.33v27.32Z"/>
        <path class="cls-2" d="m684.09,125.38h-2.95v-3.41c-1.52,2.25-4.1,3.37-7.74,3.37-3.11,0-5.6-.71-7.46-2.12-1.86-1.41-2.79-3.22-2.79-5.41s.92-4.1,2.77-5.55c1.85-1.45,4.34-2.18,7.48-2.18,1.78,0,3.35.31,4.69.93,1.34.62,2.36,1.43,3.05,2.45v-3.62c0-1.97-.58-3.4-1.74-4.28-1.16-.88-2.88-1.32-5.17-1.32-1.54,0-2.77.18-3.67.56s-1.54.83-1.92,1.38c-.37.55-.56,1.12-.56,1.73h-2.87c.1-.63.46-1.28,1.08-1.95s1.56-1.24,2.83-1.71,2.98-.7,5.11-.7c2.55,0,4.54.29,5.97.88,1.42.59,2.43,1.41,3.01,2.45.58,1.04.88,2.22.88,3.54v14.97Zm-10.38-.7c2.37,0,4.19-.69,5.47-2.08,1.28-1.39,1.92-3.01,1.92-4.87,0-1.26-.29-2.43-.86-3.5-.57-1.07-1.4-1.94-2.5-2.61-1.09-.67-2.43-1.01-4.03-1.01-2.39,0-4.28.72-5.65,2.16-1.37,1.44-2.05,3.09-2.05,4.96s.68,3.49,2.03,4.87c1.36,1.39,3.25,2.08,5.67,2.08Z"/>
        <path class="cls-2" d="m726.33,125.34c-2.29,0-4.3-.49-6.03-1.48-1.73-.99-3.07-2.31-4.03-3.97-.96-1.66-1.44-3.49-1.44-5.49,0-2.25.47-4.19,1.42-5.82.94-1.63,2.22-2.9,3.83-3.81,1.61-.9,3.38-1.36,5.33-1.36s3.52.29,4.83.88c1.3.59,2.35,1.31,3.13,2.16s1.36,1.71,1.72,2.59c.36.88.54,1.6.54,2.18l-8.94,1.48c-5.98,1.12-8.28,1.45-8.27,1.56.16,2.5.87,5.2,2.54,7.2,1.66,2,3.74,3,6.25,3,2.21,0,3.3-.79,4.76-2.39l3.57-1.18c-.91.93-2.99,3.05-5.29,3.81-1.35.44-2.66.62-3.91.62Zm-8.02-12.4l14.32-2.36-.15-.62c-.13-.41-.33-.93-.62-1.55-.29-.62-.7-1.23-1.24-1.84-.54-.61-1.23-1.12-2.07-1.53-.84-.41-1.87-.62-3.1-.62-1.45,0-2.71.43-3.78,1.28-1.07.85-1.9,1.95-2.5,3.29s-.85,2.4-.87,3.95Z"/>
        <path class="cls-2" d="m708.15,127.58c-1.87-.95-5.07-1.45-9.6-1.5-1.94-.03-3.63-.25-5.05-.68-1.42-.42-2.13-1.08-2.13-1.95,0-.99.52-1.71,1.56-2.18.88.55,1.98.97,3.29,1.25,1.32.29,2.64.43,3.97.43,2.47,0,4.54-.39,6.18-1.17,1.65-.78,2.89-1.82,3.71-3.13.82-1.3,1.24-2.72,1.24-4.26,0-1.89-.48-3.68-1.8-5.04-1.39-1.44-3.04-2.22-4.32-2.65l.09.02c1.51.25,4.23-1.47,4.68-2.26l-2.69-.05c-1.41,1.77-4.05,1.72-4.84,1.66-.89-.13-1.64-.19-2.26-.19-2.55,0-4.68.38-6.36,1.15-1.69.77-2.95,1.8-3.79,3.08-.84,1.29-1.26,2.72-1.26,4.28,0,1.29.31,2.52.94,3.68.63,1.17,1.52,2.12,2.69,2.86-.72.3-1.24.7-1.55,1.19-.32.49-.48.97-.48,1.44,0,1.01.41,1.76,1.24,2.24.82.48,1.76.81,2.81.99,1.05.18,2,.29,2.85.35l1.04.08c2.71.14,4.73.45,6.06.95,1.33.49,2.2,1.05,2.61,1.67.41.62.62,1.2.62,1.75,0,1.67-.49,2.95-1.46,3.83-.97.88-2.05,1.47-3.23,1.77-1.18.3-2.07.45-2.65.45-3.17,0-5.53-1.06-7.1-3.17-1.06-1.4-1.6-2.78-1.6-4.16,0-.25.03-.48.08-.7l-2.95,1.23c.64,2.17,1.76,3.78,3.35,4.83,1.6,1.06,3.22,1.74,4.87,2.06,1.65.32,2.75.47,3.31.47,1.78,0,3.49-.23,5.13-.7,1.63-.47,2.98-1.18,4.03-2.14,1.05-.96,1.58-2.17,1.58-3.62,0-1.84-.94-3.23-2.81-4.18Zm-16.36-13.19c0-1.33.32-2.56.97-3.69s1.59-2.05,2.85-2.75c1.25-.7,2.77-1.05,4.57-1.05s3.33.35,4.53,1.05c1.2.7,2.09,1.62,2.69,2.75.59,1.13.89,2.36.89,3.69s-.3,2.52-.91,3.65c-.61,1.13-1.51,2.04-2.71,2.73-1.2.69-2.7,1.03-4.49,1.03s-3.31-.34-4.57-1.03c-1.25-.69-2.2-1.6-2.85-2.73-.65-1.13-.97-2.35-.97-3.65Z"/>
      </g>
    </g>
    <line class="cls-1" x1="377.75" y1="24.61" x2="377.75" y2="113.61"/>
  </g>
</svg>