<?xml version="1.0" encoding="utf-8"?>
<!-- Generator: Adobe Illustrator 25.4.1, SVG Export Plug-In . SVG Version: 6.00 Build 0)  -->
<svg version="1.1" id="Layer_1" xmlns="http://www.w3.org/2000/svg" xmlns:xlink="http://www.w3.org/1999/xlink" x="0px" y="0px"
	 viewBox="0 0 64 64" style="enable-background:new 0 0 64 64;" xml:space="preserve">
<style type="text/css">
	.st0{fill:#111111;}
</style>
<path id="path-1_00000044870000027742041670000016017131319291965859_" class="st0" d="M32,4c15.5,0,28,12.5,28,28S47.5,60,32,60
	S4,47.5,4,32S16.5,4,32,4z M30,42h-7.9l0.1,0.6c0.1,0.4,0.2,0.7,0.3,1.1l0.2,0.7l0.2,0.7c0.2,0.6,0.4,1.1,0.6,1.6l0.2,0.6l0.3,0.6
	c0.2,0.4,0.3,0.8,0.5,1.2l0.3,0.6c1.5,2.9,3.3,5,5.3,5.9L30,42z M41.9,42H34l0,13.5c1.9-0.9,3.7-3,5.3-5.9l0.3-0.6
	c0.2-0.4,0.4-0.8,0.5-1.2l0.3-0.6l0.2-0.6c0.2-0.5,0.4-1.1,0.6-1.6l0.2-0.7l0.2-0.7c0.1-0.4,0.2-0.7,0.3-1.1L41.9,42z M18,42l-7.8,0
	c2.5,5.5,7.1,9.9,12.7,12.2c-0.8-1.2-1.6-2.5-2.2-4l-0.3-0.7c-0.4-1-0.8-2.1-1.2-3.2l-0.2-0.7l-0.1-0.4l0,0l-0.2-0.8
	C18.4,43.7,18.2,42.8,18,42z M53.8,42L46,42c-0.2,0.8-0.4,1.7-0.6,2.5l-0.2,0.8l-0.1,0.4l0,0l-0.2,0.7c-0.4,1.1-0.8,2.2-1.2,3.2
	l-0.3,0.7c-0.7,1.5-1.4,2.8-2.2,4C46.8,51.9,51.3,47.5,53.8,42z M17.3,26l-8.6,0C8.3,27.9,8,29.9,8,32c0,2.1,0.3,4.1,0.8,6l8.6,0
	c-0.2-1.9-0.3-3.9-0.3-6C17,29.9,17.1,27.9,17.3,26z M30,26l-8.6,0c0,0,0,0,0,0.1l-0.1,0.8c-0.2,1.5-0.3,3.1-0.3,4.7l0,0.4
	c0,1.8,0.1,3.5,0.3,5.1l0.1,0.8l0,0.1H30V26z M55.2,26l-8.6,0c0.2,1.9,0.3,3.9,0.3,6c0,2.1-0.1,4.1-0.3,6l8.6,0
	c0.5-1.9,0.8-3.9,0.8-6C56,29.9,55.7,27.9,55.2,26z M42.6,26H34v12l8.6,0c0,0,0,0,0-0.1l0.1-0.8c0.2-1.6,0.3-3.4,0.3-5.1
	c0-1.8-0.1-3.5-0.3-5.1L42.6,26L42.6,26z M22.9,9.8l-0.2,0.1c-5.5,2.3-10,6.7-12.5,12.1l7.8,0c0.2-0.8,0.4-1.7,0.6-2.5l0.2-0.8
	l0.1-0.4l0,0l0.2-0.7c0.4-1.1,0.8-2.2,1.2-3.2l0.3-0.7C21.3,12.3,22,11,22.9,9.8z M24.7,14.4l-0.3,0.6c-0.2,0.4-0.4,0.8-0.5,1.2
	l-0.3,0.6l-0.2,0.6c-0.2,0.5-0.4,1.1-0.6,1.6l-0.2,0.7l-0.2,0.7c-0.1,0.4-0.2,0.7-0.3,1.1L22.1,22H30l0-13.5
	C28.1,9.3,26.3,11.4,24.7,14.4z M41.1,9.8L41.1,9.8c0.8,1.2,1.6,2.5,2.2,4l0.3,0.7c0.4,1,0.8,2.1,1.2,3.2l0.2,0.7l0.1,0.4l0,0
	l0.2,0.8c0.2,0.8,0.4,1.6,0.6,2.5l7.8,0C51.3,16.5,46.8,12.1,41.1,9.8z M34,8.5L34,22h7.9l-0.1-0.6c-0.1-0.4-0.2-0.7-0.3-1.1
	l-0.2-0.7L41.1,19c-0.2-0.6-0.4-1.1-0.6-1.6l-0.2-0.6l-0.3-0.6c-0.2-0.4-0.3-0.8-0.5-1.2l-0.3-0.6C37.7,11.4,35.9,9.3,34,8.5z"/>
</svg>
