<?xml version="1.0" encoding="utf-8"?>
<!-- Generator: Adobe Illustrator 25.4.1, SVG Export Plug-In . SVG Version: 6.00 Build 0)  -->
<svg version="1.1" id="Layer_1" xmlns="http://www.w3.org/2000/svg" xmlns:xlink="http://www.w3.org/1999/xlink" x="0px" y="0px"
	 viewBox="0 0 64 64" style="enable-background:new 0 0 64 64;" xml:space="preserve">
<path d="M7.4,4.6L32,29.2L56.6,4.6c0.7-0.7,1.9-0.8,2.7-0.1l0.1,0.1c0.8,0.8,0.8,2,0,2.8l0,0L34.8,32l24.6,24.6c0.8,0.8,0.8,2,0,2.8
	c-0.8,0.8-2,0.8-2.8,0L32,34.8L7.4,59.4c-0.7,0.7-1.9,0.8-2.7,0.1l-0.1-0.1c-0.8-0.8-0.8-2,0-2.8l0,0L29.2,32L4.6,7.4
	c-0.8-0.8-0.8-2,0-2.8S6.6,3.8,7.4,4.6z"/>
</svg>
