<?xml version="1.0" encoding="utf-8"?>
<!-- Generator: Adobe Illustrator 26.0.1, SVG Export Plug-In . SVG Version: 6.00 Build 0)  -->
<svg version="1.1" id="Layer_1" xmlns="http://www.w3.org/2000/svg" xmlns:xlink="http://www.w3.org/1999/xlink" x="0px" y="0px"
	 viewBox="0 0 64 64" style="enable-background:new 0 0 64 64;" xml:space="preserve">
<path d="M10.1,10l43.5,0c1.9,0,2.8,0.2,3.5,0.5l0.2,0.1c0,0,0.1,0,0.1,0.1c0.8,0.4,1.5,1.1,1.9,1.9l0.1,0.2c0.3,0.7,0.5,1.4,0.5,3.1
	l0,0.6v34.2l0,0.6c0,1.5-0.2,2.3-0.5,2.9l-0.1,0.2c0,0,0,0.1-0.1,0.1c-0.4,0.8-1.1,1.5-1.9,1.9l-0.2,0.1c-0.7,0.3-1.4,0.5-3.1,0.5
	l-0.6,0H10.4l-0.6,0c-1.5,0-2.3-0.2-2.9-0.5l-0.2-0.1c0,0-0.1,0-0.1-0.1c-0.8-0.4-1.5-1.1-1.9-1.9l-0.1-0.2C4.2,53.5,4,52.7,4,50.9
	l0-34.5c0-1.9,0.2-2.8,0.5-3.5l0.1-0.2c0,0,0-0.1,0.1-0.1c0.4-0.8,1.1-1.5,1.9-1.9l0.2-0.1C7.5,10.2,8.3,10,10.1,10z M53.8,14H10.2
	l-0.4,0l-0.4,0c-0.1,0-0.1,0-0.2,0l-0.3,0c-0.1,0-0.2,0-0.2,0c-0.1,0-0.1,0-0.3,0.1c-0.1,0.1-0.2,0.1-0.2,0.2
	c-0.1,0.1-0.1,0.1-0.1,0.3c0,0.1,0,0.1,0,0.2l0,0.3c0,0.1,0,0.1,0,0.2l0,0.4l0,0.4v34.7l0,0.4l0,0.4c0,0.1,0,0.1,0,0.2l0,0.3
	c0,0.1,0,0.2,0,0.2c0,0.1,0,0.1,0.1,0.3c0.1,0.1,0.1,0.2,0.2,0.2c0.1,0.1,0.1,0.1,0.3,0.1c0.1,0,0.1,0,0.2,0l0.3,0
	c0.1,0,0.1,0,0.2,0l0.4,0l0.4,0l0.2,0h43.2l0.5,0c0.1,0,0.1,0,0.2,0l0.4,0c0.1,0,0.1,0,0.2,0l0.3,0c0.1,0,0.2,0,0.2,0
	c0.1,0,0.1,0,0.3-0.1c0.1-0.1,0.2-0.1,0.2-0.2c0.1-0.1,0.1-0.1,0.1-0.3c0-0.1,0-0.1,0-0.2l0-0.3c0-0.1,0-0.1,0-0.2l0-0.4l0-0.4
	l0-0.2V16.4l0-0.5c0-0.1,0-0.1,0-0.2l0-0.4c0-0.1,0-0.1,0-0.2l0-0.3c0-0.1,0-0.2,0-0.2c0-0.1,0-0.1-0.1-0.3
	c-0.1-0.1-0.1-0.2-0.2-0.2c-0.1-0.1-0.1-0.1-0.3-0.1c-0.1,0-0.1,0-0.2,0l-0.3,0c-0.1,0-0.1,0-0.2,0l-0.4,0L53.8,14z M60,23v4H4v-4
	H60z M20,4c1.1,0,1.9,0.8,2,1.9L22,6v11c0,1.1-0.9,2-2,2c-1.1,0-1.9-0.8-2-1.9l0-0.1V6C18,4.9,18.9,4,20,4z M44,4
	c1.1,0,1.9,0.8,2,1.9L46,6v11c0,1.1-0.9,2-2,2c-1.1,0-1.9-0.8-2-1.9l0-0.1V6C42,4.9,42.9,4,44,4z"/>
</svg>
