<?xml version="1.0" encoding="utf-8"?>
<!-- Generator: Adobe Illustrator 25.4.1, SVG Export Plug-In . SVG Version: 6.00 Build 0)  -->
<svg version="1.1" id="Layer_1" xmlns="http://www.w3.org/2000/svg" xmlns:xlink="http://www.w3.org/1999/xlink" x="0px" y="0px"
	 viewBox="0 0 64 64" style="enable-background:new 0 0 64 64;" xml:space="preserve">
<style type="text/css">
	.st0{fill-rule:evenodd;clip-rule:evenodd;}
</style>
<path id="path-1_00000080193648215132417360000008927241120540969649_" class="st0" d="M32,4c15.5,0,28,12.5,28,28S47.5,60,32,60
	S4,47.5,4,32S16.5,4,32,4z M32,44c-2.2,0-4,1.8-4,4c0,2.2,1.8,4,4,4c2.1,0,4-1.8,4-4C36,45.8,34.1,44,32,44z M32.5,14
	c-6.2,0-11.3,3.4-11.5,10.1h6.4c0.2-3.3,2.6-4.9,5.1-4.9c2.7,0,4.9,1.8,4.9,4.6c0,2.5-1.7,4.2-3.8,5.5c-3.2,1.9-4.5,3.9-4.6,10.2V40
	h5.9v-0.5c0-3.7,0.8-5.5,3.7-7.2c3.3-1.9,5.3-4.6,5.3-8.6C44,17.7,39.3,14,32.5,14z" fill="#BABABA"/>
</svg>
