<?xml version="1.0" encoding="UTF-8"?><svg id="_레이어_2" xmlns="http://www.w3.org/2000/svg" viewBox="0 0 185.65 171.32"><defs><style>.cls-1{fill:#fff;}.cls-2{fill:#231f20;fill-rule:evenodd;stroke:#000;stroke-miterlimit:10;stroke-width:.57px;}</style></defs><g id="icons"><g><path class="cls-2" d="m92.68.28c51.07,0,92.69,32.76,92.69,73.2s-41.62,72.9-92.69,72.9c-5.61,0-10.92-.59-16.24-1.18l-37.19,25.09c-2.07,1.48-3.54.3-3.54.3-1.77-1.48-.89-3.54-.89-3.54l9.15-31.58h0C17.7,122.48.28,99.46.28,73.48.28,33.05,41.61.28,92.68.28h0Z"/><g><path class="cls-1" d="m52.83,59.91h-8.56v31.58c0,1.77-.59,3.25-1.18,4.13-.89.89-1.77,1.18-2.95,1.18s-2.07-.3-2.66-1.18c-.89-.89-1.18-2.36-1.18-4.13v-31.58h-8.56c-1.48,0-2.36-.3-2.95-.89-.89-.59-1.18-1.48-1.18-2.66s.3-2.07,1.18-2.66c.59-.59,1.48-.89,2.95-.89h25.09c1.18,0,2.36.3,2.95.89.59.89.89,1.48.89,2.66s-.3,2.07-.89,2.66c-.59.59-1.77.89-2.95.89h0Z"/><path class="cls-1" d="m81.76,91.19l-1.77-5.31h-15.94l-1.77,5.31c-.59,2.36-1.48,3.84-1.77,4.43-.59.89-1.48,1.18-2.66,1.18-.89,0-1.77-.3-2.66-1.18-.59-.89-1.18-1.77-1.18-2.66,0-.59.3-1.18.3-2.07.3-.59.59-1.48.89-2.36l10.04-28.34c.3-.59.59-1.77.89-2.95.59-.89.89-2.07,1.48-2.66.3-.89.89-1.48,1.77-1.77.59-.59,1.48-.89,2.66-.89s2.07.3,2.66.89c.89.3,1.48.89,1.77,1.77.59.59.89,1.48,1.18,2.36.3.89.89,1.77,1.18,3.25l10.33,28.04c.59,2.07,1.18,3.54,1.18,4.43,0,1.18-.59,2.07-1.18,2.95-.89.89-1.77,1.18-2.66,1.18-.59,0-1.18,0-1.77-.3-.3-.3-.59-.59-.89-1.18-.59-.3-.89-.89-1.18-1.77-.3-.89-.59-1.77-.89-2.36h0Zm-15.64-12.1h11.81l-5.9-17.71-5.9,17.71Z"/><path class="cls-1" d="m104.78,57.25v31.58h13.87c1.18,0,2.36.3,2.95,1.18.59.59.89,1.48.89,2.66,0,.89-.3,1.77-.89,2.36-.59.59-1.77,1.18-2.95,1.18h-16.83c-1.77,0-2.95-.59-3.84-1.48-.59-.89-1.18-2.07-1.18-4.13v-33.35c0-1.77.59-2.95,1.18-3.84.89-.89,1.77-1.48,2.95-1.48s2.07.59,2.66,1.48c.89.89,1.18,2.07,1.18,3.84h0Z"/><path class="cls-1" d="m136.36,57.25v15.35l15.64-18c.59-.89,1.18-1.48,1.77-2.07.59-.3,1.18-.59,2.07-.59,1.18,0,2.07.59,2.66,1.18.89.89,1.18,1.77,1.18,2.66,0,1.48-.59,2.66-1.77,3.84l-9.74,10.04,11.22,17.71c.89,1.18,1.48,2.36,1.77,3.25.3.89.59,1.77.59,2.66s-.3,1.77-1.18,2.36c-.59.89-1.48,1.18-2.66,1.18s-2.07-.3-2.66-.89c-.59-.3-1.18-1.18-1.77-2.07-.59-.89-.89-1.48-1.18-2.36l-9.45-15.94-6.49,7.08v8.85c0,1.77-.3,3.25-1.18,4.13-.59.89-1.48,1.18-2.66,1.18-.89,0-1.48-.3-2.07-.59-.59-.3-1.18-.89-1.48-1.48-.3-.59-.3-1.18-.3-2.07,0-.59-.3-1.77-.3-3.25v-32.17c0-1.77.59-2.95,1.18-3.84.59-.89,1.77-1.48,2.95-1.48s2.07.59,2.66,1.48c.89.89,1.18,2.07,1.18,3.84h0Z"/></g></g></g></svg>