<?xml version="1.0" encoding="UTF-8"?><svg id="_레이어_1" xmlns="http://www.w3.org/2000/svg" viewBox="0 0 80 80"><defs><style>.cls-1{fill:none;stroke:#5ad3c0;stroke-linecap:round;stroke-linejoin:round;stroke-width:3.64px;}</style></defs><line class="cls-1" x1="10" y1="68.82" x2="70" y2="68.82"/><polyline class="cls-1" points="15.11 68.82 15.11 11.18 51.7 11.18 51.7 68.82"/><polyline class="cls-1" points="52.52 20.8 64.89 20.8 64.89 67.16"/><polyline class="cls-1" points="30.03 68.1 30.03 57.62 36.78 57.62 36.78 68.1"/><line class="cls-1" x1="23.46" y1="20.96" x2="23.46" y2="17.98"/><line class="cls-1" x1="33.41" y1="20.96" x2="33.41" y2="17.98"/><line class="cls-1" x1="43.35" y1="20.96" x2="43.35" y2="17.98"/><line class="cls-1" x1="23.46" y1="31.01" x2="23.46" y2="28.03"/><line class="cls-1" x1="33.41" y1="31.01" x2="33.41" y2="28.03"/><line class="cls-1" x1="43.35" y1="31.01" x2="43.35" y2="28.03"/><line class="cls-1" x1="23.46" y1="41.06" x2="23.46" y2="38.08"/><line class="cls-1" x1="33.41" y1="41.06" x2="33.41" y2="38.08"/><line class="cls-1" x1="43.35" y1="41.06" x2="43.35" y2="38.08"/><line class="cls-1" x1="23.46" y1="51.11" x2="23.46" y2="48.13"/><line class="cls-1" x1="33.41" y1="51.11" x2="33.41" y2="48.13"/><line class="cls-1" x1="43.35" y1="51.11" x2="43.35" y2="48.13"/><line class="cls-1" x1="23.46" y1="61.16" x2="23.46" y2="58.18"/><line class="cls-1" x1="43.35" y1="61.16" x2="43.35" y2="58.18"/><line class="cls-1" x1="58.07" y1="31.01" x2="58.07" y2="28.03"/><line class="cls-1" x1="58.07" y1="41.06" x2="58.07" y2="38.08"/><line class="cls-1" x1="58.07" y1="51.11" x2="58.07" y2="48.13"/><line class="cls-1" x1="58.07" y1="61.16" x2="58.07" y2="58.18"/></svg>