<?xml version="1.0" encoding="UTF-8"?><svg id="_레이어_1" xmlns="http://www.w3.org/2000/svg" viewBox="0 0 80 80"><defs><style>.cls-1{fill:#5ad3c0;}</style></defs><g id="_---App-Main"><g id="app-home_xsmall"><g id="head"><g id="Group"><g id="pictogram_icon-form-clear"><path id="Combined-Shape" class="cls-1" d="m37.21,12.23c0-1.65,1.72-2.69,3.17-2.02l.2.1,24.57,14.44c1.39.81,1.46,2.75.22,3.68l-.22.15-23.47,13.8v7.66c.05,0,.1,0,.16,0l.94.04c.16,0,.31.02.47.03l.92.06c.46.03.91.07,1.36.11l.89.09.88.1.87.12.85.13.84.14.82.15.81.16.79.17c.13.03.26.06.39.09l.76.19.75.2c1.1.3,2.14.64,3.11,1l.63.25c4.46,1.8,7.21,4.25,7.21,6.95s-2.62,5.03-6.9,6.82l-.62.25c-1.06.41-2.2.79-3.43,1.12l-.75.2-.76.19c-.13.03-.26.06-.39.09l-.79.17-.81.16-.82.15-.84.14-.85.13-.87.12-.88.1-.89.09c-.45.04-.9.08-1.36.11l-.92.06c-.15,0-.31.02-.47.03l-.94.04c-.31.01-.63.02-.95.03h-.96c-.16.01-.32.02-.48.02h-.48s-.96-.02-.96-.02c-.32,0-.63-.02-.95-.03l-.94-.04c-.16,0-.31-.02-.47-.03l-.92-.06c-.46-.03-.91-.07-1.36-.11l-.89-.09-.88-.1-.87-.12-.85-.13-.84-.14-.82-.15-.81-.16-.79-.17c-.13-.03-.26-.06-.39-.09l-.76-.19-.75-.2c-1.1-.3-2.14-.64-3.11-1l-.63-.25c-4.46-1.8-7.21-4.25-7.21-6.95s2.62-5.03,6.9-6.82l.62-.25c1.06-.41,2.2-.79,3.43-1.12l.75-.2.76-.19c.13-.03.26-.06.39-.09l.79-.17.81-.16.82-.15.84-.14.85-.13.87-.12.88-.1.89-.09c.45-.04.9-.08,1.36-.11l.92-.06c.15,0,.31-.02.47-.03l.94-.04h.16V12.23Zm4.47,42.26v3.29c0,1.23-1,2.22-2.24,2.22s-2.23-.99-2.23-2.22v-3.29c-5.52.2-10.57,1.13-14.3,2.58-.43.17-.84.34-1.21.51l-.53.25c-.42.21-.8.41-1.13.61l-.37.23-.33.22-.28.21c-.13.1-.25.19-.35.28l-.18.17c-.21.21-.31.37-.31.47s.1.26.31.47l.18.17c.1.09.21.18.35.28l.28.21.33.22.37.23c.33.19.7.4,1.13.61l.53.25c.37.17.77.34,1.21.51,4.23,1.65,10.16,2.62,16.54,2.62s12.3-.98,16.54-2.62c.43-.17.84-.34,1.21-.51l.53-.25c.42-.21.8-.41,1.13-.61l.37-.23.33-.22.28-.21c.13-.1.25-.19.35-.28l.18-.17c.21-.21.31-.37.31-.47s-.1-.26-.31-.47l-.18-.17c-.1-.09-.21-.18-.35-.28l-.28-.21-.33-.22-.37-.23c-.33-.19-.7-.4-1.13-.61l-.53-.25c-.37-.17-.77-.34-1.21-.51-3.73-1.45-8.78-2.38-14.3-2.58Zm0-38.37v21.1l17.95-10.55-17.95-10.55Z"/></g></g></g></g></g></svg>