<?xml version="1.0" encoding="UTF-8"?><svg id="_레이어_1" xmlns="http://www.w3.org/2000/svg" viewBox="0 0 80 80"><defs><style>.cls-1{fill:none;stroke:#5ad3c0;stroke-linecap:round;stroke-linejoin:round;stroke-width:3.68px;}</style></defs><line class="cls-1" x1="65.7" y1="30.81" x2="65.7" y2="65.71"/><line class="cls-1" x1="14.3" y1="65.71" x2="14.3" y2="30.81"/><polygon class="cls-1" points="21.15 14.29 58.85 14.29 70.32 30.49 49.73 30.49 40 22.35 30.27 30.49 9.68 30.49 21.15 14.29 21.15 14.29"/><path class="cls-1" d="m33.32,65.71v-12.77c0-3.09,3.01-5.61,6.68-5.61h0c3.67,0,6.68,2.53,6.68,5.61v12.77"/><polygon class="cls-1" points="21.01 37.25 26.51 37.25 26.51 44.11 21.01 44.11 21.01 37.25 21.01 37.25"/><polygon class="cls-1" points="21.01 50.61 26.51 50.61 26.51 59.26 21.01 59.26 21.01 50.61 21.01 50.61"/><polygon class="cls-1" points="53.49 50.61 58.99 50.61 58.99 59.26 53.49 59.26 53.49 50.61 53.49 50.61"/><polygon class="cls-1" points="53.49 37.25 58.99 37.25 58.99 44.11 53.49 44.11 53.49 37.25 53.49 37.25"/><path class="cls-1" d="m40,31.4c2.35,0,4.26,1.68,4.26,3.76s-1.91,3.76-4.26,3.76-4.26-1.68-4.26-3.76,1.91-3.76,4.26-3.76h0Z"/><line class="cls-1" x1="10.79" y1="65.71" x2="69.21" y2="65.71"/></svg>