<?xml version="1.0" encoding="UTF-8"?><svg id="_레이어_2" xmlns="http://www.w3.org/2000/svg" viewBox="0 0 84.65 39.21"><defs><style>.cls-1{fill:#5ad3c0;}.cls-2{fill:#fff;stroke:#fff;stroke-miterlimit:10;stroke-width:.52px;}</style></defs><g id="_레이어_1-2"><rect class="cls-1" x="0" y="0" width="84.65" height="39.21" rx="19.6" ry="19.6"/><g><path class="cls-2" d="m16.9,12.08l7.61,11.51v-11.62c0-.75.16-1.32.49-1.7.32-.38.76-.57,1.31-.57s1.02.19,1.35.57c.33.38.49.94.49,1.7v15.37c0,1.71-.71,2.57-2.13,2.57-.36,0-.68-.05-.96-.15-.28-.1-.55-.26-.8-.49-.25-.22-.48-.48-.69-.78-.21-.3-.43-.6-.64-.91l-7.42-11.38v11.45c0,.75-.17,1.31-.52,1.69s-.79.57-1.33.57-1.01-.19-1.35-.58c-.34-.39-.51-.95-.51-1.69v-15.07c0-.64.07-1.14.21-1.51.17-.4.45-.73.84-.98.39-.25.81-.38,1.27-.38.36,0,.66.06.91.17.25.12.47.27.67.47.19.2.39.45.59.76.2.31.41.64.62.97Z"/><path class="cls-2" d="m45.35,13.09h-8.92v4.8h8.21c.6,0,1.05.14,1.35.41.3.27.45.63.45,1.07s-.15.81-.44,1.09-.75.42-1.36.42h-8.21v5.56h9.22c.62,0,1.09.14,1.41.43.32.29.47.67.47,1.15s-.16.84-.47,1.13c-.32.29-.78.43-1.41.43h-10.75c-.86,0-1.48-.19-1.86-.57-.38-.38-.57-1-.57-1.85v-14.69c0-.57.08-1.03.25-1.39.17-.36.43-.62.79-.79.36-.16.82-.25,1.38-.25h10.45c.63,0,1.1.14,1.41.42s.46.65.46,1.1-.15.83-.46,1.11-.78.42-1.41.42Z"/><path class="cls-2" d="m64.52,26.5l-3.16-11.71-3.2,11.71c-.25.89-.45,1.53-.59,1.91s-.4.73-.77,1.04c-.36.31-.85.46-1.45.46-.49,0-.89-.09-1.21-.27-.32-.18-.57-.44-.77-.77-.2-.33-.36-.73-.48-1.19-.12-.46-.24-.88-.33-1.27l-3.25-13.15c-.2-.76-.29-1.35-.29-1.75,0-.51.18-.93.53-1.28.36-.35.79-.52,1.32-.52.72,0,1.2.23,1.45.69.25.46.47,1.13.65,2.01l2.56,11.41,2.87-10.67c.21-.82.4-1.44.57-1.87.17-.43.44-.79.83-1.11.38-.31.9-.47,1.56-.47s1.18.16,1.55.49c.37.32.62.68.77,1.06.14.38.33,1.01.57,1.89l2.89,10.67,2.56-11.41c.12-.59.24-1.06.35-1.4.11-.34.3-.64.57-.91.27-.27.66-.4,1.18-.4s.95.17,1.31.51c.36.34.54.77.54,1.29,0,.36-.1.95-.29,1.75l-3.25,13.15c-.22.89-.41,1.54-.55,1.95s-.4.78-.75,1.09c-.35.31-.85.47-1.49.47-.6,0-1.09-.15-1.45-.45-.36-.3-.62-.64-.76-1.02-.14-.38-.34-1.02-.6-1.94Z"/></g></g></svg>