<?xml version="1.0" encoding="UTF-8"?><svg id="_迹_1" xmlns="http://www.w3.org/2000/svg" viewBox="0 0 649 649"><defs><style>.cls-1,.cls-2{fill:#5ad3c0;}.cls-2{stroke:#5ad3c0;stroke-miterlimit:10;stroke-width:7px;}</style></defs><g><path class="cls-2" d="m224.67,394.5c-2.13,0-4.26-.82-5.88-2.46-3.2-3.25-3.16-8.47.09-11.67L495.96,107.56c3.24-3.2,8.47-3.16,11.67.09,3.2,3.25,3.16,8.47-.09,11.67L230.46,392.13c-1.61,1.58-3.7,2.37-5.79,2.37Z"/><path class="cls-2" d="m263.29,355.89c-2.86,0-5.64-1.49-7.17-4.15-.69-1.2-16.76-30.03-4.37-75.12,7.37-26.82,23.28-53.81,47.29-80.24,29.66-32.63,71.91-64.56,125.58-94.89,2.5-1.41,5.55-1.42,8.06-.03,2.51,1.39,4.12,3.99,4.24,6.86.02.35,1.52,35.72,0,75.28-.17,4.55-3.98,8.09-8.56,7.93-4.55-.17-8.1-4.01-7.93-8.56.92-24.05.71-46.53.41-60.24-107.78,63.47-142.89,120.82-153.18,158.27-10.59,38.54,2.65,62.31,2.78,62.54,2.26,3.95.9,9-3.06,11.26-1.29.74-2.7,1.09-4.09,1.09Z"/><path class="cls-2" d="m452.07,280.88h-100.12c-4.56,0-8.25-3.69-8.25-8.25s3.69-8.25,8.25-8.25h100.12c4.56,0,8.25,3.69,8.25,8.25s-3.69,8.25-8.25,8.25Z"/><path class="cls-2" d="m307.14,383.43c-11.97,0-24.07-2.39-35.87-8.13-4.1-1.99-5.8-6.93-3.81-11.03,1.99-4.1,6.93-5.81,11.03-3.81,42.11,20.49,92.02-12.95,116.76-33.37h-71.9c-4.56,0-8.25-3.69-8.25-8.25s3.69-8.25,8.25-8.25h93.33c3.31,0,6.3,1.98,7.59,5.02,1.29,3.05.64,6.57-1.65,8.95-2.76,2.86-57.55,58.87-115.47,58.87Z"/><path class="cls-2" d="m491.81,236.87h-96.95c-4.56,0-8.25-3.69-8.25-8.25s3.69-8.25,8.25-8.25h92.46c7.65-12.47,31.46-56.94,14.36-102.89-1.59-4.27.58-9.02,4.86-10.61,4.27-1.59,9.02.58,10.61,4.86,23.18,62.29-16.92,119.3-18.64,121.7-1.55,2.16-4.05,3.44-6.71,3.44Z"/><path class="cls-2" d="m429.35,116.93c-3.46,0-6.68-2.19-7.83-5.65-1.44-4.32.9-8.99,5.22-10.43,6.05-2.02,59.76-19.09,80.84,1.99,3.22,3.22,3.22,8.45,0,11.67-3.22,3.22-8.45,3.22-11.67,0-10.52-10.52-44.81-4.36-63.96,2-.86.29-1.74.42-2.6.42Z"/><path class="cls-2" d="m369,242.92c-4.56,0-8.25-3.69-8.25-8.25v-82.52c0-4.56,3.69-8.25,8.25-8.25s8.25,3.69,8.25,8.25v82.52c0,4.56-3.69,8.25-8.25,8.25Z"/></g><path class="cls-1" d="m119.19,491.4c.38,0,1.1-.05,1.37-.37.18-.22.36-.46-.12-.46-.38,0-1.1.05-1.37.37-.18.22-.36.46.12.46h0Z"/><path class="cls-1" d="m172.33,418.9c-18.37-.88-37.99-.4-55.25,6.63-18.55,7.56-34.12,22.04-38.28,42.34-4.04,19.73,1.12,41.48,16.07,55.56,17,16.02,41.74,20.93,64.27,22.65,46.7,3.56,92.29-11.63,136.64-23.97,41.22-11.47,84.72-21.41,126.02-8.6,2.75.85,5.53,1.74,8.19,2.85-2.1-.87.16.12.48.29,1.25.69,2.61,1.32,3.75,2.2-2.03-1.57.12.22.19.46-.71-2.49.44,1.16.77,1.83-1.08-2.19,0,.06.18.47.86,2.12,1.7,4.41,2.85,6.43,5.92,10.39,17.16,16.42,28.59,18.66,11.24,2.21,23.02,2.64,34.44,2.89,13.4.29,27.08-.73,39.96-4.63,7.5-2.27,13.11-10.47,10.61-18.37-2.39-7.55-10.33-13.04-18.37-10.61-9.85,2.98-17.83,3.7-28.32,3.65-9.56-.04-19.27-.44-28.77-1.56,2.58.3-2.07-.39-2.99-.59-1.78-.4-3.5-.92-5.23-1.46-2.76-.87-.65-.33-.11-.04-.75-.41-1.5-.85-2.26-1.25-3.42-1.8,1.19,1.15-.48-.38-1.06-.97-1.52-2.1-.51-.36-.48-.83-.93-1.63-1.38-2.47,1.12,2.13-.01-.03-.19-.46-1.09-2.58-2.04-5.35-3.55-7.75-3.15-5.01-7.75-9.09-12.89-11.96-18-10.04-41.06-13.16-61.33-13.68-21.31-.55-42.75,2.55-63.54,6.99-41.53,8.87-81.53,24.87-123.81,30.3-18.27,2.34-39.32,2.5-57.8-1.83-8.81-2.07-16.45-4.5-22.7-9.53-.42-.34-2.66-2.49-3.63-3.54-.5-.55-2.23-2.92-.62-.63-.52-.74-1.03-1.49-1.51-2.27-.96-1.55-1.79-3.16-2.55-4.81,1.31,2.83-.72-2.52-.93-3.36s-1.01-6.47-.79-3.42c-.16-2.28-.26-4.55-.14-6.84.05-.91.12-1.82.23-2.73-.37,3.05.34-1.25.41-1.53.21-.88.45-1.76.71-2.63.1-.33,1.33-3.7.66-2.07s.5-.98.68-1.32c.52-1.01,1.16-1.96,1.68-2.96,1.19-2.27.54-.95.05-.3.84-1.12,1.82-2.18,2.78-3.19.64-.67,1.3-1.32,1.98-1.95.24-.22,3.65-2.85,1.19-1.09,1.67-1.2,3.41-2.3,5.21-3.29.7-.39,6.01-2.78,3.16-1.67,2.18-.85,4.4-1.59,6.65-2.22s4.62-1.18,6.95-1.63c.95-.18,1.9-.33,2.85-.5,2.77-.5-.64.02,1.06-.17,9.45-1.07,18.98-1.01,28.47-.56,7.84.37,15.41-7.03,15.11-14.9-.32-8.4-6.5-14.71-14.9-15.11h0Z"/></svg>