<?xml version="1.0" encoding="utf-8"?>
<!-- Generator: Adobe Illustrator 25.4.1, SVG Export Plug-In . SVG Version: 6.00 Build 0)  -->
<svg version="1.1" id="Layer_1" xmlns="http://www.w3.org/2000/svg" xmlns:xlink="http://www.w3.org/1999/xlink" x="0px" y="0px"
	 viewBox="0 0 64 64" style="enable-background:new 0 0 64 64;" xml:space="preserve">
<path id="path-1_00000071557416507105029470000010970543897828225676_" d="M39.5,4l0.9,0l0.8,0L42,4l0.8,0l0.7,0l0.7,0l0.6,0.1
	c0.2,0,0.4,0,0.6,0.1l0.6,0.1l0.5,0.1c0.5,0.1,1,0.2,1.4,0.3l0.4,0.1c0.1,0,0.1,0,0.2,0.1L49,4.9l0.4,0.1l0.4,0.1l0.4,0.1l0.2,0.1
	l0.3,0.1L51,5.7l0.3,0.2L51.6,6l0.2,0.1c2.5,1.3,4.5,3.2,5.8,5.7l0.3,0.5l0.2,0.3l0.2,0.3l0.2,0.3l0.1,0.3l0.1,0.2l0.1,0.4l0.1,0.4
	l0.1,0.4l0.1,0.4c0,0.1,0,0.1,0.1,0.2l0.1,0.4c0.1,0.4,0.2,0.9,0.3,1.4l0.1,0.5l0.1,0.6c0,0.1,0,0.2,0,0.3l0.1,0.6l0,0.7
	c0,0.1,0,0.2,0,0.3l0,0.7l0,0.8l0,0.8l0,0.8l0,0.9v15l0,0.9l0,0.8l0,0.8l0,0.8l0,0.7l0,0.7l-0.1,0.6c0,0.2,0,0.4-0.1,0.6l-0.1,0.6
	l-0.1,0.5c-0.1,0.5-0.2,1-0.3,1.4l-0.1,0.4c0,0.1,0,0.1-0.1,0.2L59.1,49l-0.1,0.4l-0.1,0.4l-0.1,0.4l-0.1,0.2l-0.1,0.3L58.3,51
	l-0.2,0.3L58,51.6l-0.1,0.2c-1.3,2.5-3.2,4.5-5.7,5.8L51.6,58l-0.3,0.2L51,58.3l-0.3,0.2l-0.3,0.1l-0.2,0.1l-0.4,0.1l-0.4,0.1
	L49,59.1l-0.4,0.1c-0.1,0-0.1,0-0.2,0.1l-0.4,0.1c-0.4,0.1-0.9,0.2-1.4,0.3l-0.5,0.1l-0.6,0.1c-0.1,0-0.2,0-0.3,0l-0.6,0.1l-0.7,0
	c-0.1,0-0.2,0-0.3,0l-0.7,0L42,60l-0.8,0l-0.8,0l-0.9,0h-15l-0.9,0l-0.8,0L22,60l-0.8,0l-0.7,0l-0.7,0l-0.6-0.1
	c-0.2,0-0.4,0-0.6-0.1l-0.6-0.1l-0.5-0.1c-0.5-0.1-1-0.2-1.4-0.3l-0.4-0.1c-0.1,0-0.1,0-0.2-0.1L15,59.1l-0.4-0.1l-0.4-0.1l-0.4-0.1
	l-0.2-0.1l-0.3-0.1L13,58.3l-0.3-0.2L12.4,58l-0.2-0.1c-2.5-1.3-4.5-3.2-5.8-5.7L6,51.6l-0.2-0.3L5.7,51l-0.2-0.3l-0.1-0.3l-0.1-0.2
	l-0.1-0.4l-0.1-0.4L4.9,49l-0.1-0.4c0-0.1,0-0.1-0.1-0.2l-0.1-0.4c-0.1-0.4-0.2-0.9-0.3-1.4l-0.1-0.5l-0.1-0.6c0-0.1,0-0.2,0-0.3
	l-0.1-0.6l0-0.7c0-0.1,0-0.2,0-0.3l0-0.7L4,42l0-0.8l0-0.8l0-0.9l0-15.4l0-0.9l0-0.8l0-0.8l0-0.7c0-0.1,0-0.2,0-0.3l0-0.7l0.1-0.6
	c0-0.2,0-0.4,0.1-0.6l0.1-0.6l0.1-0.5c0.1-0.5,0.2-1,0.3-1.4l0.1-0.4c0-0.1,0-0.1,0.1-0.2L4.9,15l0.1-0.4l0.1-0.4l0.1-0.4l0.1-0.2
	l0.1-0.3L5.7,13l0.2-0.3L6,12.4l0.1-0.2c1.3-2.5,3.2-4.5,5.7-5.8L12.4,6l0.3-0.2L13,5.7l0.3-0.2l0.3-0.1l0.2-0.1l0.4-0.1l0.4-0.1
	L15,4.9l0.4-0.1c0.1,0,0.1,0,0.2-0.1l0.4-0.1c0.4-0.1,0.9-0.2,1.4-0.3l0.5-0.1l0.6-0.1c0.1,0,0.2,0,0.3,0l0.6-0.1l0.7,0
	c0.1,0,0.2,0,0.3,0l0.7,0L22,4l0.8,0l0.8,0l0.9,0H39.5z M39.9,8H24.1l-0.9,0l-0.8,0l-0.7,0l-0.7,0l-0.7,0c-0.1,0-0.2,0-0.3,0
	l-0.6,0.1c-0.9,0.1-1.6,0.2-2.3,0.3l-0.4,0.1c-0.8,0.2-1.6,0.5-2.3,0.9l-0.4,0.2c-1.9,1-3.4,2.5-4.4,4.4l-0.2,0.3
	c0,0.1-0.1,0.1-0.1,0.2l-0.2,0.3l-0.2,0.4c-0.4,0.9-0.6,1.9-0.8,3.1L8.2,19l-0.1,0.6l0,0.6l0,0.6l0,0.7l0,0.7c0,0.1,0,0.2,0,0.4
	l0,0.8l0,0.8v15.8l0,0.9l0,0.8l0,0.7l0,0.7l0,0.7c0,0.1,0,0.2,0,0.3l0.1,0.6c0.1,0.9,0.2,1.6,0.3,2.3l0.1,0.4
	c0.2,0.8,0.5,1.6,0.9,2.3l0.2,0.4c1,1.9,2.5,3.4,4.4,4.4l0.3,0.2c0.1,0,0.1,0.1,0.2,0.1l0.3,0.2l0.4,0.2c0.9,0.4,1.9,0.6,3.1,0.8
	l0.5,0.1l0.6,0.1l0.6,0l0.6,0l0.7,0l0.7,0c0.1,0,0.2,0,0.4,0l0.8,0l0.8,0h15.8l0.8,0l0.8,0l0.7,0l0.7,0l0.6,0l0.6,0l0.6-0.1
	c0.1,0,0.2,0,0.3,0l0.5-0.1c1.3-0.2,2.2-0.4,3.1-0.8l0.4-0.2l0.3-0.2l0.3-0.2c0.1,0,0.1-0.1,0.2-0.1c1.9-1,3.4-2.5,4.4-4.4l0.2-0.3
	c0-0.1,0.1-0.1,0.1-0.2l0.2-0.3l0.2-0.4c0.4-0.9,0.6-1.9,0.8-3.1l0.1-0.5l0.1-0.6l0-0.6l0-0.6l0-0.7l0-0.7c0-0.1,0-0.2,0-0.4l0-0.8
	l0-0.8V24.1l0-0.8l0-0.8l0-0.7l0-0.7l0-0.6l0-0.6l-0.1-0.6c0-0.1,0-0.2,0-0.3l-0.1-0.5c-0.2-1.3-0.4-2.2-0.8-3.1l-0.2-0.4l-0.2-0.3
	l-0.2-0.3c0-0.1-0.1-0.1-0.1-0.2c-1-1.9-2.5-3.4-4.4-4.4l-0.3-0.2c-0.1,0-0.1-0.1-0.2-0.1l-0.3-0.2l-0.4-0.2
	c-0.9-0.4-1.9-0.6-3.1-0.8L45,8.2l-0.6-0.1l-0.6,0l-0.6,0l-0.7,0l-0.7,0c-0.1,0-0.2,0-0.4,0l-0.8,0L39.9,8z M32,20
	c6.6,0,12,5.4,12,12s-5.4,12-12,12s-12-5.4-12-12S25.4,20,32,20z M32,24c-4.4,0-8,3.6-8,8s3.6,8,8,8s8-3.6,8-8S36.4,24,32,24z
	 M47.5,13c1.9,0,3.5,1.6,3.5,3.5S49.4,20,47.5,20S44,18.4,44,16.5S45.6,13,47.5,13z"/>
</svg>
