<?xml version="1.0" encoding="utf-8"?>
<!-- Generator: Adobe Illustrator 25.4.1, SVG Export Plug-In . SVG Version: 6.00 Build 0)  -->
<svg version="1.1" id="Layer_1" xmlns="http://www.w3.org/2000/svg" xmlns:xlink="http://www.w3.org/1999/xlink" x="0px" y="0px"
	 viewBox="0 0 64 64" style="enable-background:new 0 0 64 64;" xml:space="preserve">
<style type="text/css">
	.st0{fill:#111111;}
</style>
<path class="st0" d="M32,15c1.1,0,1.9,0.8,2,1.9l0,0.1v13h13c1.1,0,2,0.9,2,2c0,1.1-0.8,1.9-1.9,2L47,34H34v13c0,1.1-0.9,2-2,2
	c-1.1,0-1.9-0.8-2-1.9l0-0.1V34H17c-1.1,0-2-0.9-2-2c0-1.1,0.8-1.9,1.9-2l0.1,0h13V17C30,15.9,30.9,15,32,15z"/>
</svg>
