<?xml version="1.0" encoding="utf-8"?>
<!-- Generator: Adobe Illustrator 25.4.1, SVG Export Plug-In . SVG Version: 6.00 Build 0)  -->
<svg version="1.1" id="Layer_1" xmlns="http://www.w3.org/2000/svg" xmlns:xlink="http://www.w3.org/1999/xlink" x="0px" y="0px"
     viewBox="0 0 64 64" style="enable-background:new 0 0 64 64;" xml:space="preserve">
<style type="text/css">
	.st0{fill-rule:evenodd;clip-rule:evenodd;fill:#111111;}
</style>
    <path id="path-1_00000010307971185364154960000017828098159989788048_" class="st0" d="M32,4c15.5,0,28,12.5,28,28S47.5,60,32,60
	S4,47.5,4,32S16.5,4,32,4z M45.1,18.3c-0.9-0.6-2.2-0.3-2.8,0.6l0,0L25.9,44.4l-9.3-13.5l-0.1-0.1c-0.7-0.8-1.8-1-2.7-0.4
	c-0.9,0.6-1.1,1.9-0.5,2.8l0,0l11,16l0.1,0.1c0.8,1,2.5,1,3.2-0.2l0,0l18-28l0.1-0.1C46.3,20,46,18.9,45.1,18.3z" fill="#DFDFDF"/>
</svg>
