<?xml version="1.0" encoding="utf-8"?>
<!-- Generator: Adobe Illustrator 25.4.1, SVG Export Plug-In . SVG Version: 6.00 Build 0)  -->
<svg version="1.1" id="Layer_1" xmlns="http://www.w3.org/2000/svg" xmlns:xlink="http://www.w3.org/1999/xlink" x="0px" y="0px"
	 viewBox="0 0 64 64" style="enable-background:new 0 0 64 64;" xml:space="preserve">
<path id="path-1_00000058551646841958733910000006453479260031769000_" d="M30.8,14.4c0.8-0.6,1.9-0.6,2.6,0.1l0,0l22,21l0.1,0.1
	c0.7,0.8,0.7,1.9-0.1,2.7c-0.8,0.8-2,0.8-2.8,0.1l0,0L34,20.7V61c0,1.1-0.9,2-2,2c-1.1,0-1.9-0.8-2-1.9l0-0.1V20.7L11.4,38.4
	l-0.1,0.1c-0.8,0.6-2,0.6-2.7-0.2c-0.8-0.8-0.7-2.1,0.1-2.8l0,0l22-21L30.8,14.4z M56,4l0.1,0c1,0.1,1.9,0.9,1.9,2c0,1.1-0.9,2-2,2
	l0,0H8L7.9,8C6.8,7.9,6,7.1,6,6c0-1.1,0.9-2,2-2l0,0H56z" fill="#bababa"/>
</svg>
