<?xml version="1.0" encoding="UTF-8"?><svg id="_레이어_1" xmlns="http://www.w3.org/2000/svg" viewBox="0 0 80 80"><defs><style>.cls-1{fill:none;stroke:#5ad3c0;stroke-linecap:round;stroke-linejoin:round;stroke-width:3.64px;}</style></defs><polygon class="cls-1" points="34.31 21.1 40.84 23.48 38.47 30.02 31.93 27.64 34.31 21.1 34.31 21.1"/><polygon class="cls-1" points="57.6 13.29 61.25 19.21 55.33 22.86 51.68 16.94 57.6 13.29 57.6 13.29"/><path class="cls-1" d="m35.39,56.36c2.86,0,5.18,2.32,5.18,5.18s-2.32,5.18-5.18,5.18-5.18-2.32-5.18-5.18,2.32-5.18,5.18-5.18h0Z"/><path class="cls-1" d="m55.31,56.36c2.86,0,5.18,2.32,5.18,5.18s-2.32,5.18-5.18,5.18-5.18-2.32-5.18-5.18,2.32-5.18,5.18-5.18h0Z"/><path class="cls-1" d="m51.25,32.15c2.06,0,3.72,1.67,3.72,3.72s-1.67,3.72-3.72,3.72-3.72-1.67-3.72-3.72,1.67-3.72,3.72-3.72h0Z"/><polyline class="cls-1" points="10 15.35 20.52 15.35 30.28 47.22 64.8 47.22 70 24.93"/></svg>