<?xml version="1.0" encoding="iso-8859-1"?>
<!-- Generator: Adobe Illustrator 25.4.1, SVG Export Plug-In . SVG Version: 6.00 Build 0)  -->
<svg version="1.1" id="&#xB808;&#xC774;&#xC5B4;_1" xmlns="http://www.w3.org/2000/svg" xmlns:xlink="http://www.w3.org/1999/xlink"
	 x="0px" y="0px" viewBox="0 0 71.276 65.89" style="enable-background:new 0 0 71.276 65.89;" xml:space="preserve">
<g>
	<g>
		<path style="stroke:#000000;stroke-width:0.3;stroke-miterlimit:10;" d="M57.165,16.845c-1.503-2.149-4.263-3.647-6.333-4.083
			c-0.074-0.067-0.149-0.134-0.226-0.199c-2.441-2.051-6.028-2.595-8.525-2.442c-0.707-0.545-1.522-0.918-2.443-1.113
			c-3.374-0.713-7.336,1.198-9.901,3.181c-0.515-0.203-1.076-0.271-1.687-0.208c-3.421,0.357-6.319,1.701-8.615,3.997
			c-2.295,2.295-3.64,5.194-3.997,8.615c-0.064,0.611,0.005,1.172,0.207,1.687c-1.983,2.566-3.893,6.525-3.181,9.899
			c0.194,0.922,0.568,1.737,1.113,2.444c-0.153,2.495,0.394,6.092,2.449,8.532c0.063,0.075,0.128,0.147,0.193,0.218
			c0.437,2.071,1.938,4.835,4.088,6.337c1.084,0.757,2.26,1.145,3.448,1.145c0.332,0,0.665-0.03,0.998-0.091
			c1.072-0.196,2.47-0.988,3.036-3.644c0.358-1.678,0.254-3.463,0.163-4.362c0.677-1.416,1.214-3.912,1.394-4.814
			c0.164-0.117,0.32-0.239,0.47-0.371c1.04-0.913,2.324-2.981,2.691-5.907c1.521-0.263,2.927-1.05,4.248-2.37
			c1.321-1.321,2.108-2.728,2.372-4.25c2.751-0.352,4.92-1.566,5.905-2.689c0.132-0.149,0.254-0.306,0.37-0.469
			c0.824-0.164,3.377-0.707,4.815-1.395c0.419,0.043,1.03,0.088,1.733,0.088c0.805,0,1.732-0.059,2.628-0.25
			c2.657-0.567,3.449-1.964,3.646-3.037C58.5,19.772,58.135,18.233,57.165,16.845L57.165,16.845z M51.341,17.622
			c0.289,3.576-0.771,4.638-1.727,5.164c-0.709,0.39-2.117,0.788-3.304,1.07c0.141-1.079-0.043-2.864-0.55-5.328
			c-0.513-2.49-1.232-4.953-1.75-5.987c-0.109-0.218-0.225-0.424-0.346-0.623c2.013,0.124,4.259,0.74,5.785,2.022
			C50.584,14.893,51.221,16.132,51.341,17.622L51.341,17.622z M15.374,40.208c0.198,0.121,0.405,0.237,0.623,0.346
			c1.035,0.517,3.496,1.237,5.987,1.75c1.929,0.397,3.443,0.597,4.526,0.597c0.3,0,0.566-0.016,0.8-0.047
			c-0.275,1.153-0.674,2.588-1.068,3.304c-0.526,0.956-1.588,2.016-5.165,1.728c-1.487-0.12-2.724-0.755-3.677-1.887
			C16.116,44.474,15.499,42.222,15.374,40.208L15.374,40.208z M24.428,52.997c-1.054,0.193-2.095-0.062-3.093-0.759
			c-1.06-0.74-1.94-1.891-2.547-3.055c0.664,0.266,1.38,0.431,2.145,0.493c0.415,0.034,0.86,0.058,1.322,0.058
			c1.331,0,2.789-0.204,3.981-0.986C26.194,50.736,25.729,52.758,24.428,52.997L24.428,52.997z M35.483,32.027
			c-1.822,1.823-3.754,2.342-6.078,1.634c-0.474-0.145-0.977,0.123-1.121,0.598c-0.145,0.475,0.123,0.977,0.598,1.121
			c0.617,0.188,1.216,0.307,1.799,0.359c-0.333,2.131-1.254,3.787-2.05,4.486c-0.362,0.318-0.788,0.575-1.338,0.807
			c-0.34,0.144-1.938,0.132-4.946-0.487c-2.318-0.477-4.65-1.149-5.546-1.597c-1.441-0.721-2.284-1.747-2.578-3.138
			c-0.52-2.467,0.825-5.656,2.54-8.022c0.229,0.197,0.488,0.384,0.776,0.563c1.259,0.782,2.536,1.708,3.772,2.605l0.334,0.242
			c0.402,0.291,0.963,0.201,1.255-0.2c0.291-0.402,0.201-0.964-0.2-1.255l-0.333-0.241c-1.262-0.915-2.566-1.861-3.879-2.677
			c-1.149-0.713-1.335-1.333-1.261-2.044c0.313-3,1.484-5.534,3.48-7.531c1.996-1.996,4.53-3.167,7.531-3.479
			c0.711-0.074,1.331,0.112,2.044,1.261c0.817,1.315,1.765,2.621,2.681,3.884C36.488,23.776,39.535,27.975,35.483,32.027
			L35.483,32.027z M39.195,27.224c-0.053-0.597-0.176-1.21-0.372-1.841c-0.779-2.521-2.624-5.064-4.408-7.524
			c-0.897-1.238-1.826-2.517-2.609-3.777c-0.179-0.289-0.367-0.547-0.563-0.776c2.366-1.714,5.557-3.06,8.024-2.539
			c1.39,0.294,2.416,1.137,3.137,2.577c0.448,0.896,1.12,3.229,1.597,5.546c0.62,3.008,0.631,4.606,0.487,4.946
			c-0.232,0.551-0.489,0.976-0.807,1.338C42.978,25.974,41.325,26.892,39.195,27.224L39.195,27.224z M56.454,20.972
			c-0.239,1.301-2.261,1.765-4.249,1.807c1.052-1.605,1.058-3.691,0.928-5.302c-0.062-0.766-0.227-1.481-0.493-2.145
			c1.163,0.606,2.312,1.484,3.052,2.544C56.391,18.875,56.647,19.916,56.454,20.972L56.454,20.972z M56.454,20.972"/>
	</g>
	<path style="stroke:#000000;stroke-width:0.3;stroke-miterlimit:10;" d="M38.444,13.474L38.444,13.474
		c-0.497,0-0.899,0.402-0.899,0.898c0,0.496,0.402,0.898,0.899,0.898c0.496,0,0.898-0.402,0.898-0.898
		C39.343,13.877,38.94,13.474,38.444,13.474L38.444,13.474z M38.444,13.474"/>
	<path style="stroke:#000000;stroke-width:0.3;stroke-miterlimit:10;" d="M29.819,20.932L29.819,20.932
		c-0.497,0-0.899,0.402-0.899,0.898c0,0.496,0.403,0.898,0.899,0.898c0.496,0,0.898-0.402,0.898-0.898
		C30.717,21.334,30.315,20.932,29.819,20.932L29.819,20.932z M29.819,20.932"/>
	<path style="stroke:#000000;stroke-width:0.3;stroke-miterlimit:10;" d="M23.17,19.854L23.17,19.854
		c-0.497,0-0.899,0.402-0.899,0.898c0,0.496,0.402,0.898,0.899,0.898c0.496,0,0.898-0.402,0.898-0.898
		C24.069,20.256,23.666,19.854,23.17,19.854L23.17,19.854z M23.17,19.854"/>
	<path style="stroke:#000000;stroke-width:0.3;stroke-miterlimit:10;" d="M19.082,35.397L19.082,35.397
		c-0.497,0-0.899,0.402-0.899,0.898c0,0.496,0.403,0.898,0.899,0.898c0.496,0,0.898-0.402,0.898-0.898
		C19.98,35.799,19.578,35.397,19.082,35.397L19.082,35.397z M19.082,35.397"/>
	<path style="stroke:#000000;stroke-width:0.3;stroke-miterlimit:10;" d="M21.553,45.909c0.496,0,0.898-0.402,0.898-0.898
		c0-0.496-0.403-0.898-0.898-0.898h0c-0.497,0-0.898,0.403-0.898,0.898C20.654,45.506,21.057,45.909,21.553,45.909L21.553,45.909z
		 M21.553,45.909"/>
	<path style="stroke:#000000;stroke-width:0.3;stroke-miterlimit:10;" d="M25.502,31.864L25.502,31.864
		c-0.497,0-0.899,0.403-0.899,0.898c0,0.496,0.402,0.898,0.899,0.898c0.496,0,0.898-0.402,0.898-0.898
		C26.4,32.266,25.998,31.864,25.502,31.864L25.502,31.864z M25.502,31.864"/>
</g>
</svg>
