<?xml version="1.0" encoding="iso-8859-1"?>
<!-- Generator: Adobe Illustrator 22.0.1, SVG Export Plug-In . SVG Version: 6.00 Build 0)  -->
<svg version="1.1" id="Capa_1" xmlns="http://www.w3.org/2000/svg" xmlns:xlink="http://www.w3.org/1999/xlink" x="0px" y="0px"
	 viewBox="389 581 74 72" style="enable-background:new 389 581 74 72;" xml:space="preserve">
<path style="fill:#1B1B1B;" d="M393.244,599.42c-0.155,0.188-0.242,0.423-0.247,0.666v36.861c0,7.199,6.415,13.055,14.3,13.055
	c0.066-0.007,0.13-0.02,0.194-0.039c0.19,0.057,0.392,0.052,0.579-0.012l50.162-15.94c0.017-0.005,0.028-0.018,0.044-0.024
	c0.072-0.03,0.14-0.068,0.204-0.113c0.245-0.129,0.416-0.364,0.464-0.636c0.023-0.073,0.038-0.149,0.045-0.225
	c0.001-0.017,0.01-0.032,0.01-0.05V596.1c0-0.033-0.016-0.06-0.019-0.092c0.002-0.038,0.002-0.076-0.001-0.114
	c-0.013-0.04-0.028-0.079-0.046-0.117c-0.063-0.188-0.172-0.358-0.316-0.494c-0.054-0.044-0.112-0.084-0.173-0.117
	c-0.055-0.035-0.112-0.065-0.172-0.09c-0.075-0.024-0.152-0.039-0.231-0.047c-0.047-0.013-0.094-0.022-0.142-0.029
	c-0.012,0-0.021,0.006-0.033,0.007c-0.012,0-0.023-0.005-0.036-0.005l-38.45,2.401c-0.145-3.363-2.318-6.301-5.491-7.424
	c0.149-0.738,0.464-1.432,0.92-2.031c1.174-1.264,2.87-1.91,4.588-1.748c0.608,0,1.1-0.492,1.1-1.1s-0.492-1.1-1.1-1.1
	c-2.824,0-4.947,0.867-6.309,2.576c-0.672,0.868-1.136,1.878-1.357,2.954c-0.194-0.014-0.387-0.03-0.584-0.03
	c-4.072,0.007-7.531,2.982-8.146,7.008c-1.089-0.97-2.496-1.506-3.954-1.508C396.342,595.008,393.971,596.813,393.244,599.42z
	 M406.198,647.758c-6.159-0.501-11-5.159-11-10.811V607.23c2.492,3.711,6.544,6.08,11,6.429V647.758z M425.999,612.601v-4.943
	l30.801-10.042v10.885l-35.201,11.482v-4.285c0.352,0.13,0.724,0.199,1.1,0.203C424.52,615.899,425.997,614.423,425.999,612.601z
	 M456.8,615.102l-35.201,11.482v-4.285l35.201-11.482V615.102z M421.599,628.899l35.201-11.482v4.285l-35.201,11.482V628.899z
	 M421.599,635.702v-0.202l35.201-11.482v8.14l-48.402,15.38v-7.737l7.128-2.323c0.978,1.534,3.014,1.985,4.549,1.008
	C421.026,637.88,421.601,636.829,421.599,635.702z M408.398,637.486v-4.287l6.6-2.154v4.289L408.398,637.486z M414.998,628.732
	l-6.6,2.154v-4.287l6.6-2.154V628.732z M414.998,622.132l-6.6,2.154v-10.887l6.6-2.154V622.132z M411.148,591.7
	c0.118,0,0.233,0.011,0.348,0.018c-0.009,0.815,0.068,1.629,0.229,2.428c0.115,0.499,0.559,0.853,1.071,0.854
	c0.083,0,0.166-0.009,0.247-0.028c0.592-0.136,0.962-0.726,0.826-1.318v0c-0.086-0.454-0.139-0.914-0.159-1.376
	c3.015,1.423,4.304,5.021,2.881,8.036s-5.021,4.304-8.036,2.881c-3.015-1.423-4.304-5.021-2.881-8.036
	C406.675,593.043,408.808,591.695,411.148,591.7z M402.7,599.832c0.109,0.319,0.362,0.569,0.682,0.676
	c1.517,4.29,6.224,6.538,10.515,5.021c2.654-0.938,4.645-3.167,5.28-5.909l30.152-1.883l-24.771,8.075
	c-0.016,0.005-0.026,0.018-0.041,0.023c-0.071,0.03-0.138,0.069-0.201,0.114c-0.245,0.128-0.416,0.363-0.462,0.635
	c-0.024,0.074-0.039,0.151-0.046,0.228c-0.001,0.016-0.009,0.029-0.009,0.045v5.742c0,0.608-0.492,1.1-1.1,1.1s-1.1-0.492-1.1-1.1
	V608.3c0-0.608-0.492-1.1-1.1-1.1s-1.1,0.492-1.1,1.1v27.402c0,0.608-0.492,1.1-1.1,1.1s-1.1-0.492-1.1-1.1v-25.972
	c-0.027-0.112-0.046-0.226-0.054-0.342c-0.005-0.015-0.017-0.026-0.023-0.041c-0.03-0.07-0.067-0.136-0.112-0.198
	c-0.056-0.121-0.148-0.221-0.264-0.286c-0.097-0.095-0.222-0.156-0.357-0.175c-0.08-0.026-0.163-0.043-0.247-0.05
	c-0.015-0.001-0.027-0.009-0.043-0.009c-0.057,0.007-0.114,0.018-0.169,0.034c-0.058,0.002-0.115,0.009-0.172,0.021l-8.61,2.809
	c-6.313-0.078-11.632-4.988-11.922-10.905c0.014-0.097,0.027-0.196,0.05-0.302c0.364-1.795,1.941-3.085,3.772-3.086
	C400.703,597.204,402.173,598.263,402.7,599.832z"/>
</svg>
