<?xml version="1.0" encoding="iso-8859-1"?>
<!-- Generator: Adobe Illustrator 25.4.1, SVG Export Plug-In . SVG Version: 6.00 Build 0)  -->
<svg version="1.1" id="&#xB808;&#xC774;&#xC5B4;_1" xmlns="http://www.w3.org/2000/svg" xmlns:xlink="http://www.w3.org/1999/xlink"
	 x="0px" y="0px" viewBox="0 0 93.645 83.913" style="enable-background:new 0 0 93.645 83.913;" xml:space="preserve">
<g>
	<g>
		<defs>
			
				<rect id="SVGID_1_" x="38.541" y="36.793" transform="matrix(0.9896 -0.1437 0.1437 0.9896 -7.4046 9.86)" width="52" height="38.771"/>
		</defs>
		<clipPath id="SVGID_00000145775082925371026310000010147173924048577432_">
			<use xlink:href="#SVGID_1_"  style="overflow:visible;"/>
		</clipPath>
		
			<path style="clip-path:url(#SVGID_00000145775082925371026310000010147173924048577432_);stroke:#000000;stroke-width:0.5;stroke-miterlimit:10;" d="
			M88.584,44.755c-0.015-0.019-0.05-0.055-0.082-0.088c-0.008-0.01-0.015-0.019-0.023-0.027l-0.008-0.007l-0.009-0.009l-0.029-0.029
			c-3.024-2.871-12.995-7.533-18.668-8.19c-4.835-0.562-7.009,1.243-7.871,2.37c-0.415,0.551-0.591,1.247-0.488,1.93l0.233,1.607
			l-1.649,1.177c-2.391-1.511-3.874-3.02-4.045-4.196c-0.016-0.11-0.054-0.217-0.112-0.312c-0.023-0.031-0.047-0.061-0.074-0.089
			c-0.04-0.057-0.086-0.109-0.138-0.155c-0.035-0.025-0.073-0.046-0.113-0.064c-0.053-0.033-0.111-0.061-0.17-0.082
			c-0.046-0.011-0.092-0.018-0.139-0.022c-0.046-0.011-0.093-0.018-0.141-0.022c-0.017,0.002-0.033,0.01-0.052,0.007
			c-0.018-0.003-0.029,0.002-0.045,0.005c-0.031,0.009-0.061,0.02-0.092,0.033c-0.061,0.015-0.121,0.036-0.177,0.064
			c-0.093,0.052-0.176,0.118-0.248,0.195c-0.032,0.037-0.061,0.076-0.086,0.117c-0.03,0.049-0.055,0.102-0.075,0.156
			c-0.018,0.047-0.031,0.095-0.039,0.144c-0.005,0.026-0.019,0.05-0.022,0.077c-0.015,0.177-0.042,0.566-0.065,1.084
			c-0.334,1.503-1.802,3.624-4.158,5.923c-0.98,0.957-1.446,2.324-1.253,3.68c0.068,0.426,0.201,0.84,0.395,1.226l-10.08,7.224
			c-0.015,0.01-0.023,0.026-0.037,0.037c-0.03,0.027-0.059,0.056-0.086,0.086c-0.044,0.047-0.083,0.098-0.116,0.154
			c-0.02,0.034-0.037,0.07-0.051,0.108c-0.024,0.06-0.042,0.123-0.051,0.188c-0.007,0.038-0.012,0.076-0.014,0.114
			c0.001,0.076,0.012,0.152,0.033,0.225c0.002,0.024,0.005,0.048,0.01,0.072l4.536,13.274l0.487,3.351
			c0.206,1.421,1.526,2.406,2.947,2.199l33.905-4.924c1.12-0.159,2.006-1.027,2.19-2.142c0.644-3.86,2.996-16.924,6.235-22.793
			c0.645-1.191,0.462-2.66-0.456-3.657C88.593,44.768,88.589,44.761,88.584,44.755L88.584,44.755z M69.565,38.126
			c4.31,0.499,11.182,3.505,15.157,5.924c-0.4,0.204-0.754,0.488-1.04,0.834c-1.446,1.82-2.553,3.885-3.266,6.098
			c-1.975-2.796-6.881-7.828-17.08-9.055l-0.147-1.012c4.554-0.309,9.094,0.774,13.018,3.105c0.403,0.234,0.919,0.108,1.168-0.286
			c0.249-0.394,0.142-0.914-0.242-1.178c-3.973-2.378-8.547-3.561-13.174-3.408C64.884,38.443,66.571,37.78,69.565,38.126
			L69.565,38.126z M59.558,45.267l0.016,0.01c0.526,0.314,1.052,0.609,1.558,0.876c0.977,0.509,1.515,1.59,1.331,2.677
			c-0.184,1.086-1.048,1.93-2.139,2.088L58.73,51.15c-2.196-0.715-2.787-5.256-2.853-8.683
			C56.978,43.554,58.216,44.496,59.558,45.267L59.558,45.267z M51.212,47.594c1.092-1.049,2.091-2.19,2.986-3.411
			c0.17,2.586,0.701,5.565,2.144,7.308l-3.002,0.436c-1.09,0.158-2.159-0.404-2.645-1.393c-0.486-0.99-0.278-2.179,0.514-2.945
			L51.212,47.594z M50.198,52.638c0.93,0.814,2.169,1.183,3.394,1.01l6.981-1.014c1.834-0.266,3.287-1.683,3.598-3.51
			c0.312-1.826-0.59-3.646-2.232-4.504c-0.108-0.057-0.203-0.115-0.309-0.172l1.179-0.842c10.592,1.171,15.107,6.618,16.567,8.924
			l-36.408,5.288L50.198,52.638z M40.723,59.896l38.973-5.661L77.788,66.16c-0.061,0.374-0.357,0.666-0.732,0.72l-32.334,4.696
			L40.723,59.896z M87.529,47.596c-3.369,6.11-5.769,19.413-6.424,23.344c-0.061,0.372-0.357,0.66-0.73,0.713l-33.902,4.924
			c-0.474,0.069-0.913-0.26-0.982-0.733l-0.374-2.573l32.188-4.675c1.126-0.159,2.017-1.034,2.195-2.158l2.091-13.071
			c0.528-2.7,1.705-5.232,3.429-7.376c0.271-0.336,0.673-0.538,1.104-0.557c0.431-0.019,0.849,0.148,1.148,0.459l0.009,0.01
			c0.005,0.006,0.013,0.01,0.018,0.017c0.443,0.445,0.537,1.129,0.232,1.677L87.529,47.596z M87.529,47.596"/>
	</g>
	<path style="stroke:#000000;stroke-width:0.5;stroke-miterlimit:10;" d="M46.804,60.764c-1.421,0.206-2.406,1.526-2.199,2.947
		c0.206,1.421,1.526,2.405,2.947,2.199c1.421-0.206,2.406-1.526,2.199-2.946C49.545,61.542,48.225,60.557,46.804,60.764
		L46.804,60.764z M47.303,64.194c-0.474,0.069-0.914-0.259-0.982-0.732c-0.069-0.474,0.259-0.914,0.733-0.983
		c0.474-0.069,0.913,0.259,0.982,0.733C48.104,63.686,47.776,64.125,47.303,64.194L47.303,64.194z M47.303,64.194"/>
	<path style="stroke:#000000;stroke-width:0.5;stroke-miterlimit:10;" d="M55.381,59.518c-2.368,0.344-4.01,2.543-3.666,4.911
		s2.543,4.01,4.911,3.666c2.368-0.344,4.01-2.543,3.666-4.911C59.946,60.817,57.748,59.177,55.381,59.518L55.381,59.518z
		 M56.378,66.38c-1.421,0.206-2.741-0.779-2.947-2.2c-0.206-1.421,0.779-2.74,2.199-2.947c1.421-0.206,2.74,0.778,2.947,2.199
		C58.783,64.854,57.799,66.174,56.378,66.38L56.378,66.38z M56.378,66.38"/>
	<path style="stroke:#000000;stroke-width:0.5;stroke-miterlimit:10;" d="M64.816,58.148c-1.421,0.206-2.406,1.526-2.2,2.947
		c0.206,1.421,1.526,2.405,2.947,2.199c1.421-0.206,2.406-1.526,2.199-2.946C67.556,58.926,66.237,57.941,64.816,58.148
		L64.816,58.148z M65.314,61.578c-0.474,0.069-0.914-0.259-0.982-0.732c-0.069-0.474,0.259-0.914,0.733-0.983
		c0.473-0.069,0.913,0.26,0.982,0.734C66.116,61.07,65.787,61.51,65.314,61.578L65.314,61.578z M65.314,61.578"/>
	<path style="stroke:#000000;stroke-width:0.5;stroke-miterlimit:10;" d="M72.051,59.725c-1.895,0.275-3.208,2.034-2.932,3.929
		c0.275,1.895,2.034,3.208,3.929,2.932c1.895-0.275,3.208-2.034,2.932-3.929C75.705,60.762,73.946,59.449,72.051,59.725
		L72.051,59.725z M72.798,64.87c-0.947,0.138-1.827-0.519-1.965-1.466c-0.138-0.947,0.519-1.827,1.466-1.965
		c0.947-0.138,1.827,0.519,1.965,1.466C74.402,63.853,73.746,64.733,72.798,64.87L72.798,64.87z M72.798,64.87"/>
	<path d="M50.162,67.536c-0.282-0.207-0.661-0.225-0.961-0.044c-0.1,0.055-0.188,0.131-0.257,0.221
		c-0.064,0.094-0.111,0.199-0.139,0.309c-0.033,0.109-0.041,0.224-0.021,0.336c0.049,0.349,0.303,0.634,0.645,0.721
		c0.342,0.087,0.701-0.042,0.911-0.325c0.028-0.047,0.056-0.095,0.083-0.152c0.048-0.103,0.076-0.214,0.083-0.327
		c0.003-0.055,0.001-0.111-0.006-0.166c-0.017-0.112-0.057-0.219-0.116-0.316C50.324,67.696,50.249,67.609,50.162,67.536
		L50.162,67.536z M50.162,67.536"/>
	<path d="M64.742,65.418c-0.282-0.207-0.661-0.225-0.961-0.044c-0.101,0.055-0.188,0.131-0.257,0.221
		c-0.064,0.094-0.11,0.199-0.139,0.309c-0.033,0.109-0.041,0.224-0.021,0.336c0.049,0.349,0.303,0.634,0.645,0.721
		c0.341,0.087,0.701-0.042,0.91-0.325c0.028-0.047,0.056-0.095,0.083-0.152c0.047-0.103,0.076-0.214,0.083-0.327
		c0.003-0.055,0.001-0.111-0.006-0.166c-0.017-0.112-0.057-0.219-0.116-0.316C64.905,65.578,64.83,65.491,64.742,65.418
		L64.742,65.418z M64.742,65.418"/>
	<path d="M76.788,57.906c0.028-0.048,0.056-0.096,0.083-0.152c0.048-0.103,0.076-0.214,0.083-0.327
		c0.003-0.055,0.001-0.11-0.006-0.165c-0.018-0.112-0.057-0.22-0.116-0.316c-0.059-0.098-0.133-0.185-0.221-0.257
		c-0.282-0.208-0.661-0.225-0.961-0.044c-0.101,0.055-0.188,0.131-0.257,0.221c-0.064,0.094-0.11,0.199-0.139,0.309
		c-0.033,0.108-0.041,0.224-0.021,0.336c0.049,0.348,0.303,0.634,0.645,0.72C76.218,58.318,76.578,58.19,76.788,57.906
		L76.788,57.906z M76.788,57.906"/>
</g>
<g>
	<path style="stroke:#000000;stroke-miterlimit:10;" d="M48.46,19.244c-0.733-1.139-1.64-2.156-2.687-3.016
		c-0.365-0.332-0.73-0.664-1.077-1.011c-0.326-0.325-0.64-0.663-0.953-1.002c-0.89-1.059-1.935-1.977-3.099-2.723
		c-1.581-0.995-3.286-1.775-5.072-2.322c-1.81-0.5-3.678-0.763-5.555-0.781c-1.327,0.065-2.633,0.353-3.863,0.853
		c-0.534,0.183-1.037,0.355-1.54,0.49c-0.438,0.117-0.881,0.219-1.323,0.322c-1.378,0.248-2.711,0.702-3.956,1.344
		c-1.214,0.777-2.308,1.726-3.25,2.817c-0.284,0.301-0.569,0.6-0.859,0.89c-0.346,0.345-0.71,0.679-1.081,1.014
		c-1.057,0.868-1.972,1.894-2.714,3.042c-0.609,1.191-1.025,2.472-1.231,3.793c-0.108,0.514-0.213,1.029-0.351,1.532
		c-0.115,0.43-0.249,0.861-0.382,1.295c-0.48,1.319-0.755,2.703-0.818,4.105c0.024,1.863,0.29,3.716,0.791,5.51
		c0.432,1.371,1.064,2.67,1.876,3.855c0.216,0.355,0.433,0.703,0.639,1.056l0.306,0.53c0.748,1.452,1.688,2.798,2.794,4
		c1.224,1.123,2.591,2.079,4.066,2.842l0.461,0.265c3.128,1.965,6.74,3.023,10.434,3.055c1.844-0.015,3.678-0.273,5.455-0.768
		c0.41-0.11,0.827-0.209,1.244-0.308c1.418-0.264,2.789-0.733,4.072-1.392c1.09-0.711,2.051-1.603,2.842-2.637
		c0.386-0.45,0.75-0.874,1.137-1.262c0.368-0.368,0.763-0.718,1.16-1.071c1.043-0.834,1.945-1.829,2.671-2.949
		c0.682-1.318,1.174-2.727,1.461-4.183c0.091-0.368,0.181-0.736,0.278-1.099c0.555-1.765,0.872-3.597,0.944-5.446
		c-0.049-1.85-0.341-3.687-0.87-5.461C49.996,22.62,49.339,20.877,48.46,19.244L48.46,19.244z M48.969,34.963
		c-0.099,0.373-0.193,0.749-0.284,1.125c-0.257,1.325-0.698,2.608-1.31,3.811c-0.654,0.987-1.459,1.864-2.386,2.599
		c-0.407,0.362-0.827,0.736-1.22,1.128c-0.426,0.426-0.827,0.892-1.213,1.343c-0.69,0.91-1.526,1.698-2.475,2.332
		c-1.164,0.589-2.406,1.007-3.689,1.244c-0.43,0.102-0.86,0.204-1.279,0.317c-1.657,0.463-3.367,0.705-5.088,0.72
		c-1.721-0.028-3.43-0.284-5.084-0.762c-1.635-0.492-3.197-1.2-4.645-2.104l-0.465-0.268c-1.365-0.702-2.632-1.582-3.766-2.616
		c-1.016-1.114-1.88-2.359-2.569-3.7l-0.308-0.536c-0.213-0.365-0.435-0.727-0.658-1.091c-0.738-1.069-1.315-2.24-1.714-3.476
		c-0.469-1.674-0.72-3.402-0.745-5.14c0.068-1.259,0.322-2.501,0.755-3.686c0.142-0.451,0.278-0.899,0.397-1.35
		c0.142-0.528,0.255-1.065,0.369-1.606c0.179-1.173,0.54-2.311,1.071-3.373c0.671-1.02,1.494-1.93,2.441-2.7
		c0.385-0.349,0.768-0.699,1.13-1.06c0.298-0.299,0.592-0.608,0.885-0.917c0.849-0.991,1.836-1.854,2.93-2.565
		c1.123-0.569,2.325-0.969,3.564-1.189c0.458-0.106,0.916-0.213,1.369-0.332c0.551-0.147,1.103-0.337,1.634-0.52
		c1.084-0.445,2.233-0.708,3.403-0.777c1.753,0.017,3.497,0.263,5.187,0.731c1.664,0.518,3.254,1.252,4.728,2.182
		c1.041,0.677,1.975,1.507,2.771,2.46c0.326,0.351,0.653,0.703,0.991,1.04c0.363,0.363,0.744,0.71,1.125,1.057
		c0.938,0.763,1.752,1.666,2.416,2.677c0.814,1.525,1.422,3.151,1.809,4.836c0.493,1.655,0.767,3.367,0.816,5.093
		C49.786,31.611,49.486,33.317,48.969,34.963L48.969,34.963z M48.969,34.963"/>
	<path style="stroke:#000000;stroke-miterlimit:10;" d="M17.186,28.284c0.392-0.002,0.709-0.322,0.706-0.715
		c-0.002-0.392-0.322-0.709-0.715-0.707c-0.983,0-2.842,0.743-2.842,3.553c0,0.393,0.318,0.711,0.711,0.711
		c0.392,0,0.71-0.318,0.71-0.711C15.756,28.431,16.943,28.292,17.186,28.284L17.186,28.284z M17.186,28.284"/>
	<path style="stroke:#000000;stroke-miterlimit:10;" d="M41.508,32.569c-0.247-0.064-0.509,0.01-0.687,0.193
		c-0.178,0.183-0.244,0.447-0.173,0.692c0.071,0.245,0.267,0.433,0.515,0.493c0.09,0.022,2.179,0.579,1.608,3.435
		c-0.077,0.384,0.171,0.757,0.554,0.836c0.047,0.01,0.095,0.015,0.142,0.014c0.337,0,0.628-0.238,0.696-0.569
		C44.83,34.324,42.718,32.871,41.508,32.569L41.508,32.569z M41.508,32.569"/>
	<path style="stroke:#000000;stroke-miterlimit:10;" d="M27.124,43.205c-0.696,0.085-1.394-0.145-1.902-0.629
		c-0.259-0.394-0.348-0.875-0.249-1.335c0.094-0.381-0.139-0.766-0.52-0.86c-0.381-0.094-0.766,0.139-0.86,0.52
		c-0.2,0.881-0.017,1.805,0.503,2.543c0.766,0.85,1.889,1.288,3.028,1.182c0.393,0,0.711-0.318,0.711-0.71
		C27.835,43.523,27.517,43.205,27.124,43.205L27.124,43.205z M27.124,43.205"/>
	<path style="stroke:#000000;stroke-miterlimit:10;" d="M36.045,18.217c0.401-0.296,0.908-0.408,1.397-0.311
		c0.489,0.098,0.914,0.397,1.17,0.825c0.141,0.211,0.384,0.331,0.637,0.315c0.253-0.016,0.479-0.167,0.591-0.395
		c0.113-0.227,0.095-0.498-0.046-0.709c-0.464-0.742-1.214-1.261-2.073-1.432c-0.859-0.172-1.75,0.018-2.465,0.525
		c-0.211,0.141-0.331,0.384-0.315,0.637c0.017,0.253,0.167,0.479,0.394,0.591C35.564,18.376,35.834,18.358,36.045,18.217
		L36.045,18.217z M36.045,18.217"/>
	<path style="stroke:#000000;stroke-miterlimit:10;" d="M31.446,35.368c1.016-0.246,1.905-0.863,2.491-1.729
		c0.334-0.624,0.386-1.362,0.142-2.027c-0.08-0.241-0.283-0.421-0.532-0.472c-0.249-0.051-0.506,0.035-0.675,0.225
		c-0.169,0.19-0.223,0.456-0.143,0.697c0.118,0.288,0.104,0.614-0.039,0.891c-0.395,0.52-0.958,0.886-1.593,1.038
		c-0.347,0.088-0.574,0.422-0.53,0.778c0.045,0.355,0.347,0.622,0.706,0.621C31.331,35.39,31.389,35.382,31.446,35.368
		L31.446,35.368z M31.446,35.368"/>
	<path style="stroke:#000000;stroke-miterlimit:10;" d="M19.309,23.31c0.059,0,0.117-0.007,0.173-0.021
		c0.38-0.095,0.612-0.481,0.517-0.862c-0.173-0.572-0.096-1.19,0.212-1.703c0.308-0.512,0.817-0.871,1.403-0.988
		c0.378-0.098,0.607-0.482,0.512-0.86c-0.095-0.379-0.477-0.61-0.857-0.518c-0.956,0.201-1.785,0.791-2.288,1.629
		c-0.503,0.838-0.633,1.847-0.36,2.785C18.7,23.088,18.983,23.31,19.309,23.31L19.309,23.31z M19.309,23.31"/>
	<path style="stroke:#000000;stroke-miterlimit:10;" d="M44.596,23.381c-0.723-1.391-2.436-1.935-3.829-1.217l-1.262,0.654
		c-1.393,0.723-1.939,2.437-1.219,3.832l0.654,1.261c0.345,0.671,0.944,1.176,1.664,1.403c0.718,0.229,1.498,0.163,2.167-0.185
		l1.262-0.654c1.392-0.723,1.936-2.437,1.217-3.831L44.596,23.381z M44.08,26.381c-0.113,0.359-0.366,0.659-0.702,0.831
		l-1.262,0.653c-0.335,0.174-0.726,0.208-1.085,0.094c-0.36-0.114-0.66-0.366-0.833-0.702l-0.653-1.262
		c-0.174-0.335-0.208-0.726-0.094-1.085c0.114-0.36,0.367-0.66,0.703-0.833l1.262-0.653c0.201-0.105,0.425-0.16,0.651-0.16
		c0.147,0.001,0.292,0.025,0.432,0.071c0.36,0.114,0.66,0.366,0.832,0.702l0.653,1.262C44.159,25.631,44.194,26.021,44.08,26.381
		L44.08,26.381z M44.08,26.381"/>
	<path style="stroke:#000000;stroke-miterlimit:10;" d="M36.57,39.31l-1.333-0.491c-1.473-0.542-3.107,0.213-3.649,1.686
		l-0.491,1.333c-0.261,0.707-0.229,1.489,0.086,2.174c0.316,0.684,0.891,1.215,1.598,1.476l1.334,0.491
		c0.707,0.261,1.489,0.229,2.174-0.087c0.684-0.316,1.215-0.891,1.475-1.599l0.491-1.333c0.26-0.708,0.229-1.49-0.087-2.174
		C37.853,40.101,37.278,39.57,36.57,39.31L36.57,39.31z M36.925,42.467l-0.493,1.334c-0.13,0.354-0.395,0.641-0.738,0.799
		c-0.342,0.158-0.733,0.174-1.087,0.043l-1.334-0.491c-0.736-0.272-1.113-1.088-0.842-1.824l0.491-1.334
		c0.271-0.737,1.087-1.115,1.824-0.845l1.33,0.497c0.735,0.271,1.113,1.085,0.845,1.82H36.925z M36.925,42.467"/>
	<path style="stroke:#000000;stroke-miterlimit:10;" d="M23.059,34.662c-0.175-1.56-1.581-2.682-3.141-2.507l-1.412,0.159
		c-1.559,0.177-2.681,1.582-2.507,3.142l0.158,1.412c0.161,1.436,1.373,2.523,2.819,2.526c0.108,0,0.216-0.007,0.323-0.019
		l1.412-0.158c1.559-0.176,2.681-1.582,2.506-3.142L23.059,34.662z M20.552,37.805l-1.412,0.159c-0.78,0.087-1.483-0.474-1.57-1.254
		l-0.158-1.412c-0.042-0.374,0.066-0.75,0.301-1.045c0.235-0.295,0.577-0.484,0.952-0.526l1.412-0.158
		c0.053-0.007,0.107-0.01,0.16-0.01c0.722,0,1.33,0.543,1.411,1.261l0.158,1.413c0.043,0.375-0.066,0.751-0.301,1.046
		C21.269,37.574,20.927,37.763,20.552,37.805L20.552,37.805z M20.552,37.805"/>
	<path style="stroke:#000000;stroke-miterlimit:10;" d="M27.5,19.616l1.373,0.364c0.239,0.063,0.486,0.095,0.733,0.096
		c1.288-0.002,2.413-0.87,2.743-2.115l0.364-1.373c0.193-0.729,0.089-1.504-0.29-2.156c-0.379-0.652-1.001-1.127-1.729-1.32
		l-1.373-0.364c-0.729-0.193-1.504-0.088-2.156,0.29c-0.652,0.379-1.126,1.001-1.319,1.73l-0.364,1.373
		C25.082,17.657,25.985,19.211,27.5,19.616L27.5,19.616z M26.855,16.504l0.364-1.373c0.165-0.623,0.729-1.057,1.373-1.057
		c0.123,0,0.246,0.017,0.365,0.049l1.373,0.363c0.758,0.202,1.21,0.979,1.009,1.737l-0.363,1.374
		c-0.202,0.758-0.979,1.21-1.737,1.009l-1.373-0.364c-0.365-0.097-0.676-0.334-0.865-0.66
		C26.811,17.256,26.759,16.868,26.855,16.504L26.855,16.504z M26.855,16.504"/>
	<path style="stroke:#000000;stroke-miterlimit:10;" d="M30.9,26.413l-0.529-1.319c-0.585-1.456-2.239-2.162-3.695-1.578
		l-1.319,0.53c-1.456,0.585-2.162,2.239-1.578,3.694l0.529,1.319c0.585,1.456,2.239,2.163,3.695,1.579l1.319-0.529
		C30.778,29.523,31.485,27.869,30.9,26.413L30.9,26.413z M29.569,28.03c-0.147,0.347-0.427,0.621-0.777,0.76l-1.319,0.53
		c-0.728,0.292-1.555-0.062-1.847-0.789l-0.529-1.319c-0.292-0.728,0.061-1.555,0.789-1.847l1.319-0.529
		c0.728-0.292,1.555,0.061,1.847,0.789l0.53,1.319C29.723,27.292,29.719,27.683,29.569,28.03L29.569,28.03z M29.569,28.03"/>
</g>
</svg>
