<?xml version="1.0" encoding="utf-8"?>
<!-- Generator: Adobe Illustrator 25.4.1, SVG Export Plug-In . SVG Version: 6.00 Build 0)  -->
<svg version="1.1" id="Layer_1" xmlns="http://www.w3.org/2000/svg" xmlns:xlink="http://www.w3.org/1999/xlink" x="0px" y="0px"
	 viewBox="0 0 64 64" style="enable-background:new 0 0 64 64;" xml:space="preserve">
<path id="path-1_00000047040467909378404950000016388280511969838987_" d="M57.5,41c1.4,0,2.5,1.1,2.5,2.5c0,1.3-1,2.4-2.3,2.5
	l-0.2,0h-50C6.1,46,5,44.9,5,43.5c0-1.3,1-2.4,2.3-2.5l0.2,0H57.5z M57.5,17c1.4,0,2.5,1.1,2.5,2.5c0,1.3-1,2.4-2.3,2.5l-0.2,0h-50
	C6.1,22,5,20.9,5,19.5c0-1.3,1-2.4,2.3-2.5l0.2,0H57.5z"/>
</svg>
