<svg width="64" height="64" xmlns="http://www.w3.org/2000/svg" xmlns:xlink="http://www.w3.org/1999/xlink">
    <defs>
        <path d="m36.327 7.262 18.934 16.294A5 5 0 0 1 57 27.346v27.653l-.002.265-.014.48c-.043.895-.17 1.418-.375 1.85l-.109.21a4.377 4.377 0 0 1-.121.201c-.406.636-1 1.135-1.758 1.475l-.241.102-.25.092c-.514.172-1.137.278-2.204.314l-.572.012H12.646l-.572-.012c-1.067-.036-1.69-.142-2.204-.314l-.25-.092-.24-.102c-.759-.34-1.353-.839-1.759-1.475a4.377 4.377 0 0 1-.121-.202l-.11-.21c-.204-.43-.331-.954-.374-1.849l-.014-.48L7 27.346a5 5 0 0 1 1.739-3.79L27.673 7.262c2.536-1.683 6.118-1.683 8.654 0zm-2.395 3.22c-1.128-.64-2.722-.643-3.853-.006l-.034.02-18.697 16.092a1 1 0 0 0-.34.634l-.008.124.001 27.836.01.372.02.282.027.013.103.038.023.007c.034.01.074.018.122.026l.17.024.223.021.288.017.659.018H51.27l.522-.01.32-.013.254-.018.197-.02.208-.034.065-.017.105-.039.028-.013.017-.21.012-.389L53 55V27.346a1 1 0 0 0-.259-.672l-.089-.086-18.698-16.092-.022-.014z" id="a"/>
    </defs>
    <use fill="#000" fill-rule="nonzero" xlink:href="#a"/>
</svg>
