<svg width="194" height="76" viewBox="0 0 194 76" xmlns="http://www.w3.org/2000/svg" xmlns:xlink="http://www.w3.org/1999/xlink">
    <defs>
        <path id="2yszrvhyza" d="M0 0h26.062v30.026H0z"/>
        <path id="3u80wh7fvc" d="M0 0h26.063v30.026H0z"/>
        <path id="2rp403wu1e" d="M0 0h25.221v30.103H0z"/>
        <path id="239yr51s7g" d="M0 0h39.938v30.027H0z"/>
        <path id="6a0sfq4iri" d="M0 0h39.143v33H0z"/>
    </defs>
    <g fill="none" fill-rule="evenodd">
        <path d="M0 0h194v76H0z"/>
        <path d="M187.949 53.613c-.215-.585-.448-3.925-.468-4.607-.056-3.293-.058-16.414.003-20.023.018-.652.249-4.035.465-4.623l.04-.11c.05-.139-.078-.276-.257-.276h-5.931c-.179 0-.308.137-.258.276l.041.11c.215.588.44 3.97.457 4.622.061 3.61.058 16.733.004 20.026-.022.686-.247 4.02-.461 4.605l-.041.11c-.05.139.08.276.258.276h5.931c.179 0 .307-.137.257-.276l-.04-.11z" fill="#040000"/>
        <g transform="translate(47.46 23.974)">
            <mask id="a2s5tkopmb" fill="#fff">
                <use xlink:href="#2yszrvhyza"/>
            </mask>
            <path d="M25.799 0H23.07c-.223 0-.403.153-.39.336.096 1.316.169 6.346.169 12.35 0 5.612-.063 10.049-.15 11.722-.01.209-.342.28-.476.103-2.039-2.699-3.747-5.222-6.768-9.489C10.05 7.392 6.39 1.275 5.712.172A.391.391 0 0 0 5.372 0H.232C.027 0-.036.166.02.33c.303.892.422 1.626.563 4C.654 5.537.639 7.545.639 15.42c0 6.994-.077 12.84-.182 14.272-.014.183.165.335.39.335h2.29c.224 0 .402-.153.39-.336-.098-1.32-.17-6.383-.17-12.425 0-5.644.063-7.803.15-9.487.01-.208.344-.28.479-.101 1.978 2.625 4.813 6.78 7.608 10.935 5.636 8.38 6.846 10.13 7.525 11.241a.4.4 0 0 0 .346.173h5.883c.223 0 .402-.151.39-.334-.099-1.428-.172-7.261-.172-14.24 0-3.835.022-7.588.058-10.43.083-2.474.176-4.043.388-4.636l.04-.11c.05-.138-.077-.276-.253-.276" fill="#040000" mask="url(#a2s5tkopmb)"/>
        </g>
        <g transform="translate(120.295 23.974)">
            <mask id="bvh6nuload" fill="#fff">
                <use xlink:href="#3u80wh7fvc"/>
            </mask>
            <path d="M25.8 0h-2.73c-.223 0-.403.153-.389.336.095 1.316.168 6.346.168 12.35 0 5.612-.063 10.049-.15 11.722-.01.209-.342.28-.475.103-2.04-2.699-3.747-5.222-6.769-9.489C10.051 7.392 6.391 1.275 5.712.172A.393.393 0 0 0 5.372 0H.233C.026 0-.037.166.02.33c.304.892.423 1.626.564 4C.655 5.537.64 7.545.64 15.42c0 6.994-.078 12.84-.182 14.272-.014.183.164.335.389.335h2.29c.223 0 .402-.153.389-.336-.096-1.32-.168-6.383-.168-12.425 0-5.644.062-7.803.15-9.487.01-.208.344-.28.478-.101 1.979 2.625 4.813 6.78 7.608 10.935 5.636 8.38 6.846 10.13 7.525 11.241a.4.4 0 0 0 .346.173h5.883c.224 0 .401-.151.389-.334-.097-1.428-.171-7.261-.171-14.24 0-3.835.022-7.588.058-10.43.083-2.474.176-4.043.389-4.636l.039-.11c.05-.138-.077-.276-.253-.276" fill="#040000" mask="url(#bvh6nuload)"/>
        </g>
        <g transform="translate(151.277 23.897)">
            <mask id="ilsf03qshf" fill="#fff">
                <use xlink:href="#2rp403wu1e"/>
            </mask>
            <path d="M23.981.354c-.148-.24-.464-.379-.792-.35l-2.55.029c-1.72.031-4.447.044-8.028.044-3.581 0-6.31-.013-8.028-.044L2.032.003c-.328-.028-.643.112-.791.351L.029 2.061c-.096.155.062.333.273.305.972-.127 1.472-.273 7.249-.273l1.847.002c.205 0 .378.127.39.293.108 1.291.187 7.74.187 14.227 0 3.207-.02 6.15-.052 8.465-.017.623-.186 4.044-.4 4.636l-.04.11c-.05.139.077.277.254.277h5.869c.177 0 .305-.138.255-.276l-.04-.11c-.215-.593-.39-4.014-.406-4.637a623.317 623.317 0 0 1-.052-8.465c0-6.487.08-12.936.185-14.227.014-.166.186-.293.391-.293l2.268-.002c5.776 0 5.74.146 6.713.273.21.028.368-.15.273-.305L23.98.354z" fill="#040000" mask="url(#ilsf03qshf)"/>
        </g>
        <g transform="translate(77.007 23.973)">
            <mask id="eies7hqx1h" fill="#fff">
                <use xlink:href="#239yr51s7g"/>
            </mask>
            <path d="M39.927 29.75c-.048-.245-1.9-2.282-6.22-9.59-3.644-6.162-9.914-18.5-10.332-19.6a6.635 6.635 0 0 1-.053-.132c-.02-.05-.038-.095-.046-.11C23.17.123 22.936 0 22.673 0h-5.92c-.212 0-.255.162-.22.33.09.406-.49 1.66-.863 2.413-1.246 2.473-7.725 14.429-8.224 15.35C2.953 26.103.2 29.345.018 29.75c-.072.163.08.277.258.277h2.888l.001-.007h.859c.279 0 .527-.137.623-.348.653-1.445 3.676-7.233 7.534-14.392.17-.267.41-.507.88-.518 1.011-.049 2.666-.09 5.616-.09 2.766 0 4.337.03 5.402.073.302.017.643.079.856.477 3.864 7.172 6.909 13 7.565 14.451.094.21.343.347.62.347h.681v.007H39.67c.179 0 .308-.138.257-.277M22.925 12.593c-.918.012-2.75.034-4.248.035-1.863 0-3.352-.013-4.451-.035-.282-.006-.463-.243-.35-.45 1.743-3.214 3.295-6.227 4.455-8.298.094-.167.39-.167.483 0 1.16 2.073 2.716 5.088 4.46 8.304.112.207-.07.44-.35.444" fill="#040000" mask="url(#eies7hqx1h)"/>
        </g>
        <g transform="translate(5 21)">
            <mask id="0yitbmp8mj" fill="#fff">
                <use xlink:href="#6a0sfq4iri"/>
            </mask>
            <path d="M39.132 32.716a1.288 1.288 0 0 0-.041-.081c-.455-.821-5.48-8.649-10.314-17.783-2.59-4.936-4.587-8.585-7.01-14.376-.113-.267-.267-.465-.568-.475h-.05L12.504 0a.18.18 0 0 0-.183.175V.84c0 .093.08.17.176.173.757.03 1.516.103 2.195.446a3.92 3.92 0 0 1 1.52 1.4c.156.244.285.506.377.779.077.225-.012.527-.116.742-1.374 2.849-8.55 15.806-9.028 16.69C2.952 29.077.199 32.318.018 32.723c-.071.162.079.276.258.276l3.748-.006c.279 0 .527-.138.622-.348.654-1.446 3.677-7.233 7.534-14.393.171-.266.41-.505.882-.517 1.01-.049 2.665-.09 5.616-.09 2.76 0 3.981.045 5.045.09.472.012.71.251.881.517.546 1.019 3.576 6.673 4.673 8.756 1.695 3.225 2.507 4.823 2.872 5.631.095.21.343.347.621.347l6.105.007c.179 0 .308-.14.257-.277m-16.558-17.15c-.92.012-2.399.035-3.896.035-1.868 0-3.359-.013-4.458-.036-.282-.006-.459-.238-.347-.445 1.772-3.267 3.29-6.047 4.45-8.174a.212.212 0 0 1 .368.002c1.144 2.136 2.38 4.628 4.232 8.174.109.207-.07.44-.35.443" fill="#040000" mask="url(#0yitbmp8mj)"/>
        </g>
    </g>
</svg>
