<svg width="211" height="24" viewBox="0 0 211 24" xmlns="http://www.w3.org/2000/svg" xmlns:xlink="http://www.w3.org/1999/xlink">
    <defs>
        <path id="y4f37kalna" d="M0 0h8.998v10.487H0z"/>
        <path id="wnns4a1flc" d="M0 0h11.2v10.728H0z"/>
    </defs>
    <g fill="none" fill-rule="evenodd">
        <g transform="translate(10 7.162)">
            <mask id="0vgux1n6qb" fill="#fff">
                <use xlink:href="#y4f37kalna"/>
            </mask>
            <path d="m3.007.585-.004 4.124 2.302.002c.339 0 .612-.03.82-.092.209-.06.373-.153.492-.276a.994.994 0 0 0 .25-.472c.045-.191.077-.418.092-.679h.292l-.003 3.64-.292-.001a6.645 6.645 0 0 0-.132-.748c-.05-.199-.13-.358-.242-.477a.942.942 0 0 0-.469-.254c-.2-.05-.47-.075-.809-.075l-2.301-.002L3 8.735c0 .262.003.47.01.623.008.154.04.271.093.352.053.081.138.133.253.156.116.024.285.035.508.035l1.776.001c.3 0 .554-.007.762-.022a2.44 2.44 0 0 0 .536-.091c.15-.046.283-.11.398-.19.116-.08.239-.181.37-.304.307-.299.635-.777.981-1.436h.31l-.91 2.628L0 10.48v-.291h.371a1.626 1.626 0 0 0 .62-.132.967.967 0 0 0 .262-.166.563.563 0 0 0 .162-.242c.062-.169.093-.507.094-1.014l.006-6.799c0-.668-.065-1.079-.197-1.233C1.133.396.82.292.38.291H.01V0l8.088.007-.002 2.296h-.178a5.73 5.73 0 0 0-.249-.903 1.275 1.275 0 0 0-.351-.524 1.109 1.109 0 0 0-.56-.236 5.933 5.933 0 0 0-.873-.053L3.007.585z" fill="#FFF" mask="url(#0vgux1n6qb)"/>
        </g>
        <path d="m32.811 7.182-.002 2.474h-.178c-.084-.66-.278-1.129-.582-1.402-.303-.273-.751-.41-1.343-.411l-1.478-.001-.006 8.006c0 .353.024.631.074.835.05.203.12.355.213.455a.62.62 0 0 0 .346.19c.138.027.299.04.483.04h.357v.292l-4.44-.003v-.292h.37c.185 0 .346-.014.485-.045a.639.639 0 0 0 .347-.202c.093-.103.164-.254.214-.454.05-.2.076-.472.076-.818l.007-8.006h-1.26c-.316 0-.595.024-.837.074-.243.05-.453.142-.63.277a1.369 1.369 0 0 0-.422.553c-.105.235-.168.536-.192.906h-.291l.002-2.475 8.687.007zM40.669 7.771l-.003 4.124 2.3.002c.34 0 .613-.03.821-.091.209-.061.373-.153.492-.276a.998.998 0 0 0 .25-.472c.045-.192.077-.418.092-.68h.292l-.003 3.64h-.292a6.552 6.552 0 0 0-.132-.748c-.05-.2-.13-.359-.242-.478a.942.942 0 0 0-.468-.253c-.2-.05-.47-.076-.81-.076l-2.3-.002-.004 3.46c0 .263.004.47.01.624.008.153.04.27.093.352.054.08.138.132.254.156.115.023.284.034.507.035h1.776c.3.001.554-.006.762-.021a2.44 2.44 0 0 0 .536-.092c.15-.045.283-.109.399-.19.115-.08.238-.18.369-.303.307-.3.635-.778.982-1.437h.31l-.91 2.628-8.088-.007v-.29h.371a1.626 1.626 0 0 0 .62-.132.975.975 0 0 0 .262-.167.566.566 0 0 0 .163-.241c.061-.17.093-.507.093-1.015l.006-6.798c0-.668-.065-1.08-.197-1.233-.185-.207-.498-.312-.939-.312h-.37v-.292l8.088.007-.002 2.297h-.178a5.73 5.73 0 0 0-.248-.904 1.272 1.272 0 0 0-.353-.524 1.106 1.106 0 0 0-.56-.236 5.933 5.933 0 0 0-.872-.053l-2.877-.002zM54.409 12.284c.1 0 .187.002.26.006a4.53 4.53 0 0 0 1.497-.166c.378-.114.694-.275.948-.482.255-.207.446-.45.573-.73.128-.28.192-.586.192-.916a2.4 2.4 0 0 0-.161-.892 2 2 0 0 0-1.178-1.158 2.515 2.515 0 0 0-.914-.162c-.315 0-.72.05-1.214.149l-.003 4.35zm7.45 5.403-2.795-.002-3.555-4.91c-.131.008-.25.013-.353.017a8.001 8.001 0 0 1-.505 0 5.586 5.586 0 0 1-.243-.018l-.002 3.047c0 .37.024.66.074.871.05.212.123.37.218.473.096.104.211.168.345.191.135.023.286.035.455.035h.414v.291l-4.49-.003v-.291h.403c.43 0 .744-.142.944-.425.107-.169.161-.55.162-1.141l.005-6.764c0-.646-.072-1.052-.217-1.222-.2-.23-.495-.345-.886-.346h-.403v-.291l3.822.003c.562 0 1.046.022 1.454.064.408.043.743.106 1.005.19.261.085.507.203.738.353.23.15.433.33.606.541.173.211.31.447.409.708.1.26.15.54.15.84 0 .653-.21 1.212-.627 1.68-.416.467-1.067.8-1.954 1l2.16 3.004c.254.346.478.631.675.854.196.224.392.4.588.532.197.131.405.227.624.289.22.062.48.108.78.14v.29zM64.587 7.21l2.836.002 6.396 7.872.005-6.042c0-.353-.025-.634-.074-.841-.05-.208-.123-.361-.22-.461a.646.646 0 0 0-.352-.191 2.52 2.52 0 0 0-.474-.041h-.37v-.291l3.663.002v.291h-.381a2.24 2.24 0 0 0-.486.046.622.622 0 0 0-.347.207 1.078 1.078 0 0 0-.208.461c-.047.2-.07.474-.07.82l-.007 8.832h-.277l-6.897-8.449-.005 6.453c0 .361.024.644.074.848.05.204.121.355.213.455a.59.59 0 0 0 .346.185c.138.023.295.034.472.034h.369v.292l-3.647-.003v-.292h.37c.185.001.346-.014.485-.045a.664.664 0 0 0 .353-.201.985.985 0 0 0 .214-.455c.046-.2.07-.472.07-.818l.006-7.282a8.649 8.649 0 0 0-.385-.439 2.523 2.523 0 0 0-.293-.265 1.458 1.458 0 0 0-.298-.173 5.713 5.713 0 0 0-.403-.15c-.153-.046-.38-.07-.678-.07V7.21zM85.232 13.616l-1.77-4.222-1.823 4.22 3.593.002zm.218.582-4.053-.003-.715 1.65c-.17.407-.254.71-.254.91a.62.62 0 0 0 .04.232.42.42 0 0 0 .173.19c.089.058.212.108.37.15.159.043.37.072.632.087v.291l-3.307-.003v-.291c.262-.038.474-.096.635-.172.162-.077.301-.182.417-.317.115-.134.221-.308.318-.524l.353-.794L83.75 7h.266l3.639 8.702c.146.362.283.652.41.87.127.22.258.39.393.513.135.124.282.209.44.255.158.046.35.073.573.08v.291l-4.15-.003v-.291c.415-.015.697-.082.846-.201a.536.536 0 0 0 .225-.432c-.008-.223-.11-.585-.31-1.085l-.632-1.5zM101.954 14.836l.256.046-.91 2.84-8.104-.007v-.29h.403c.43 0 .744-.142.944-.426.108-.169.162-.549.162-1.14l.006-6.765c0-.645-.072-1.052-.218-1.221-.2-.23-.495-.346-.886-.346h-.402v-.292l4.749.004v.291c-.285 0-.52.014-.71.04a2.013 2.013 0 0 0-.465.115.86.86 0 0 0-.288.178.999.999 0 0 0-.173.231c-.077.154-.116.55-.116 1.188l-.006 6.585c0 .361.027.623.08.784a.52.52 0 0 0 .322.335c.138.047.541.07 1.21.07h.759c.806.001 1.37-.056 1.693-.17.16-.054.315-.131.46-.231.147-.1.288-.23.427-.391.138-.162.273-.357.404-.587.13-.23.265-.51.403-.841M112.842 7.543v-.29l4.506.003v.29h-.383c-.433 0-.746.127-.94.38-.123.154-.186.55-.186 1.187l-.005 5.118c0 .807-.09 1.449-.267 1.925a2.999 2.999 0 0 1-.354.686c-.151.219-.33.412-.54.581a2.591 2.591 0 0 1-.7.403c-.26.1-.54.15-.84.15a2.07 2.07 0 0 1-.66-.099 1.479 1.479 0 0 1-.487-.265 1.247 1.247 0 0 1-.306-.38.955.955 0 0 1-.11-.442c0-.291.085-.499.255-.621a.898.898 0 0 1 .757-.16.472.472 0 0 1 .22.126c.073.07.15.173.23.312.082.138.172.326.272.564.116.277.271.415.466.415.14 0 .27-.085.39-.254.12-.168.182-.468.182-.899l.006-7.16c0-.246-.004-.446-.012-.6a1.595 1.595 0 0 0-.057-.38.557.557 0 0 0-.134-.237 1.118 1.118 0 0 0-.225-.168 1.476 1.476 0 0 0-.696-.184h-.382zM127.123 7.604c-.531 0-1.002.113-1.414.34a2.967 2.967 0 0 0-1.039.967c-.281.418-.495.926-.642 1.521a8.46 8.46 0 0 0-.22 2.011c-.001.738.07 1.412.211 2.023.142.612.353 1.139.633 1.58.28.443.629.785 1.044 1.027.415.243.892.364 1.43.365.485 0 .933-.092 1.344-.276.412-.184.772-.47 1.08-.858.307-.388.549-.883.722-1.487.173-.602.261-1.323.262-2.16 0-.792-.07-1.501-.212-2.128-.142-.626-.357-1.156-.645-1.59a2.93 2.93 0 0 0-1.072-.993c-.427-.227-.92-.341-1.482-.342m.148-.566c.669 0 1.308.14 1.916.417a5.145 5.145 0 0 1 1.604 1.143 5.52 5.52 0 0 1 1.51 3.85 5.82 5.82 0 0 1-.413 2.2 5.608 5.608 0 0 1-1.109 1.758 5.055 5.055 0 0 1-1.64 1.163c-.628.28-1.296.42-2.004.418a5.018 5.018 0 0 1-2.009-.405 4.82 4.82 0 0 1-1.621-1.136 5.399 5.399 0 0 1-1.084-1.747c-.265-.677-.397-1.422-.397-2.237.001-.752.134-1.459.4-2.12a5.181 5.181 0 0 1 2.756-2.88 5.094 5.094 0 0 1 2.09-.424" fill="#FFF"/>
        <g transform="translate(135.913 7.272)">
            <mask id="dadvt2u8jd" fill="#fff">
                <use xlink:href="#wnns4a1flc"/>
            </mask>
            <path d="M7.488.298V.007L11.2.009V.3h-.394c-.403 0-.72.173-.952.519-.108.153-.162.526-.163 1.117l-.003 4.242c-.001 1.03-.11 1.848-.326 2.455a2.854 2.854 0 0 1-1.226 1.48 4.145 4.145 0 0 1-1.08.449c-.413.11-.885.166-1.416.166-.578 0-1.083-.051-1.514-.151a3.617 3.617 0 0 1-1.109-.44 2.744 2.744 0 0 1-.762-.692 3.535 3.535 0 0 1-.484-.91c-.17-.469-.253-1.33-.253-2.583l.004-4.092c0-.322-.02-.585-.063-.789a1.132 1.132 0 0 0-.201-.48.697.697 0 0 0-.352-.235A1.755 1.755 0 0 0 .404.292H0V0l4.538.004v.291h-.404a1.82 1.82 0 0 0-.485.057.673.673 0 0 0-.346.225 1.166 1.166 0 0 0-.214.471c-.05.204-.075.475-.076.813L3.01 6.423c0 .46.03.91.09 1.347.062.438.189.828.382 1.17.192.342.468.615.826.818.359.204.835.306 1.429.307a3.935 3.935 0 0 0 1.845-.448 2.78 2.78 0 0 0 .677-.5c.193-.196.336-.409.429-.64.2-.452.302-1.243.303-2.372l.003-4.24c0-.645-.073-1.052-.22-1.22-.2-.231-.497-.347-.892-.347h-.394z" fill="#FFF" mask="url(#dadvt2u8jd)"/>
        </g>
        <path d="M153.716 12.37c.1 0 .187.003.26.007a4.532 4.532 0 0 0 1.497-.166c.379-.114.695-.275.95-.482.253-.207.445-.45.572-.73.127-.28.191-.586.192-.916 0-.322-.054-.62-.161-.892a2.012 2.012 0 0 0-1.179-1.158 2.514 2.514 0 0 0-.913-.162c-.316 0-.72.05-1.214.149l-.004 4.35zm7.451 5.404-2.796-.002-3.554-4.91c-.132.008-.25.013-.354.017a7.941 7.941 0 0 1-.504 0 5.634 5.634 0 0 1-.243-.018l-.002 3.047c0 .37.024.66.073.871.05.212.123.37.219.473a.6.6 0 0 0 .345.191c.134.023.286.035.454.035h.414v.291l-4.49-.003v-.291h.404c.43 0 .743-.142.944-.425.107-.169.161-.55.162-1.141l.006-6.764c0-.646-.073-1.052-.218-1.222-.2-.23-.495-.345-.886-.346h-.403v-.291l3.821.003c.563 0 1.047.022 1.455.064.408.043.743.106 1.004.19.262.085.508.203.739.353.23.15.432.33.606.541.173.212.309.447.409.708.1.26.15.54.149.84 0 .653-.21 1.212-.625 1.68-.418.467-1.07.8-1.955 1l2.159 3.004c.254.346.479.631.675.854.197.224.393.4.59.532.196.131.404.227.623.289.22.062.48.108.78.14v.29zM163.516 7.297l2.836.002 6.396 7.872.005-6.042c0-.353-.025-.634-.075-.842-.05-.207-.123-.36-.219-.46a.648.648 0 0 0-.352-.192 2.525 2.525 0 0 0-.474-.04h-.37v-.292l3.663.003v.291h-.381c-.186 0-.347.015-.486.046a.621.621 0 0 0-.347.207 1.074 1.074 0 0 0-.208.461c-.047.2-.07.473-.07.819l-.008 8.833h-.277l-6.896-8.45-.005 6.454c0 .361.024.644.074.847.05.205.121.356.213.456.092.1.207.161.345.184.139.023.296.035.473.035h.368v.291l-3.647-.002v-.292h.37c.185 0 .347-.014.486-.045a.664.664 0 0 0 .353-.202.985.985 0 0 0 .214-.454c.046-.2.07-.473.07-.818l.006-7.282a8.649 8.649 0 0 0-.385-.439 2.49 2.49 0 0 0-.293-.265 1.44 1.44 0 0 0-.299-.173 5.617 5.617 0 0 0-.402-.15c-.153-.046-.38-.07-.679-.07v-.291zM181.55 7.895l-.003 4.124 2.301.002c.34 0 .613-.03.821-.092.209-.06.372-.153.492-.276a.994.994 0 0 0 .249-.472c.046-.191.077-.418.093-.679h.292l-.003 3.64-.292-.001a6.74 6.74 0 0 0-.132-.748 1.06 1.06 0 0 0-.243-.477.94.94 0 0 0-.468-.254 3.5 3.5 0 0 0-.81-.075l-2.3-.002-.003 3.46c0 .262.003.47.01.624.008.153.039.27.093.351a.38.38 0 0 0 .253.156c.116.024.285.035.508.035l1.776.001c.3 0 .554-.007.761-.022.208-.015.387-.045.537-.091.15-.046.283-.11.398-.19a3.27 3.27 0 0 0 .37-.304c.307-.299.635-.777.981-1.436h.31l-.91 2.628-8.087-.007v-.291h.371a1.636 1.636 0 0 0 .62-.132.98.98 0 0 0 .262-.166.562.562 0 0 0 .162-.242c.062-.169.093-.507.093-1.014l.006-6.799c0-.668-.065-1.079-.196-1.233-.185-.207-.498-.311-.939-.312h-.37V7.31l8.087.007-.001 2.296h-.179a5.735 5.735 0 0 0-.248-.903 1.28 1.28 0 0 0-.352-.524 1.107 1.107 0 0 0-.56-.236 5.926 5.926 0 0 0-.872-.053l-2.877-.002zM197.337 7.327 201 7.33v.291h-.208c-.292 0-.607.132-.946.397-.338.264-.71.723-1.118 1.376l-2.547 3.973-.002 2.627c0 .354.024.632.074.836.05.203.123.355.219.455.096.1.215.164.357.19.142.027.306.04.49.04l.334.001v.291l-4.458-.003v-.292h.382c.185 0 .347-.014.485-.045a.638.638 0 0 0 .348-.201c.092-.104.161-.255.208-.455.046-.2.07-.472.07-.818l.002-2.489-2.87-4.38a41.602 41.602 0 0 0-.431-.63 4.48 4.48 0 0 0-.26-.34 3.054 3.054 0 0 0-.156-.138 1.613 1.613 0 0 0-.27-.178 2.515 2.515 0 0 0-.358-.156c-.13-.046-.27-.07-.415-.07v-.291l4.49.003v.292h-.232c-.115 0-.23.013-.345.04-.116.026-.22.067-.312.12a.665.665 0 0 0-.225.213.545.545 0 0 0-.087.305c-.007.093.031.221.115.387.084.165.203.37.355.617l2.17 3.378 2.081-3.225c.295-.469.45-.829.466-1.083a1.453 1.453 0 0 0-.075-.3.546.546 0 0 0-.174-.236.92.92 0 0 0-.32-.156 1.826 1.826 0 0 0-.5-.058v-.291z" fill="#FFF"/>
    </g>
</svg>
