<svg width="139" height="16" viewBox="0 0 139 16" xmlns="http://www.w3.org/2000/svg" xmlns:xlink="http://www.w3.org/1999/xlink">
    <defs>
        <path id="6oysdjdjya" d="M0 0h5.927v6.991H0z"/>
        <path id="c5c6m7lahc" d="M0 0h7.378v7.152H0z"/>
    </defs>
    <g fill="none" fill-rule="evenodd">
        <g transform="translate(6.588 4.775)">
            <mask id="rttjms25fb" fill="#fff">
                <use xlink:href="#6oysdjdjya"/>
            </mask>
            <path d="M1.98.39 1.98 3.14h1.516c.223 0 .403-.02.54-.06a.725.725 0 0 0 .324-.184.665.665 0 0 0 .164-.315c.03-.128.051-.279.062-.453h.192l-.002 2.426h-.192a4.478 4.478 0 0 0-.088-.499.713.713 0 0 0-.16-.318.618.618 0 0 0-.308-.169 2.275 2.275 0 0 0-.533-.05l-1.516-.001-.002 2.307c0 .174.003.313.007.415a.47.47 0 0 0 .061.235.248.248 0 0 0 .167.104c.076.015.188.022.334.023h1.17c.198 0 .365-.004.502-.014s.255-.03.354-.061a.925.925 0 0 0 .262-.126c.076-.054.157-.121.243-.203.203-.2.419-.518.647-.958h.204l-.6 1.752L0 6.987v-.194h.245a1.062 1.062 0 0 0 .409-.088.636.636 0 0 0 .171-.111.376.376 0 0 0 .107-.161c.041-.113.062-.338.062-.676l.004-4.533C.998.78.955.504.868.402.747.264.54.195.25.194H.006V0l5.328.004-.002 1.532h-.117a3.856 3.856 0 0 0-.163-.603.85.85 0 0 0-.232-.349.726.726 0 0 0-.37-.157A3.863 3.863 0 0 0 3.877.39L1.981.39z" fill="#111" mask="url(#rttjms25fb)"/>
        </g>
        <path d="m21.615 4.788-.001 1.65h-.118c-.055-.441-.183-.753-.383-.935-.2-.182-.495-.274-.885-.274l-.973-.001-.005 5.337c0 .235.016.421.05.557a.69.69 0 0 0 .14.303c.06.067.136.11.227.127.091.018.197.027.319.027h.235v.195l-2.926-.003v-.194h.244c.122 0 .229-.01.32-.03a.42.42 0 0 0 .229-.135.714.714 0 0 0 .14-.303c.034-.133.05-.314.05-.545l.005-5.337h-.83c-.207 0-.391.016-.551.05-.16.032-.298.094-.415.183a.911.911 0 0 0-.278.369c-.069.157-.11.358-.126.604h-.193l.002-1.65 5.723.005zM26.791 5.18l-.002 2.75 1.516.002c.223 0 .404-.02.54-.061a.725.725 0 0 0 .325-.184.668.668 0 0 0 .164-.315c.03-.128.05-.279.061-.453h.192l-.002 2.426h-.192a4.416 4.416 0 0 0-.087-.499.713.713 0 0 0-.16-.318.618.618 0 0 0-.308-.169 2.275 2.275 0 0 0-.533-.05l-1.516-.001-.002 2.307c0 .174.002.313.007.415a.47.47 0 0 0 .06.235.248.248 0 0 0 .168.103c.076.016.187.023.334.024h1.17c.198 0 .365-.004.502-.014.136-.01.254-.03.353-.061a.925.925 0 0 0 .263-.126c.075-.054.157-.121.243-.203.202-.2.418-.518.647-.958h.204l-.6 1.752-5.327-.004v-.194h.244a1.062 1.062 0 0 0 .409-.088.642.642 0 0 0 .172-.111c.05-.046.086-.1.107-.161.04-.113.061-.338.062-.676l.003-4.533c0-.445-.042-.72-.129-.822-.122-.138-.328-.207-.619-.208h-.244v-.194l5.328.004v1.532h-.118a3.856 3.856 0 0 0-.164-.603.849.849 0 0 0-.232-.349.724.724 0 0 0-.369-.157 3.863 3.863 0 0 0-.574-.036l-1.896-.001zM35.843 8.19c.066 0 .123 0 .171.004l.118.003c.33 0 .62-.037.868-.114.25-.077.458-.184.625-.322.168-.138.294-.3.378-.487.083-.186.126-.39.126-.61 0-.215-.035-.413-.106-.595a1.335 1.335 0 0 0-.776-.772 1.64 1.64 0 0 0-.602-.108c-.208 0-.475.033-.8.1l-.002 2.9zm4.908 3.601H38.91l-2.341-3.275a9.936 9.936 0 0 1-.42.015 2.685 2.685 0 0 1-.306-.015l-.001 2.031c0 .246.016.44.049.581.032.141.08.246.144.316.062.069.138.111.227.127.088.015.188.023.3.023h.272v.194l-2.958-.002v-.194h.266c.283 0 .49-.094.622-.284.07-.112.106-.366.106-.76l.004-4.51c0-.43-.048-.7-.144-.814-.131-.153-.326-.23-.583-.23h-.265v-.195l2.517.002c.37 0 .69.015.958.043.27.028.49.07.662.127.172.057.334.135.486.235a1.695 1.695 0 0 1 .669.833c.066.174.099.36.098.56 0 .435-.137.808-.412 1.12-.274.311-.703.533-1.288.666l1.423 2.003c.167.23.315.42.445.57.13.148.259.266.388.354.13.087.266.151.41.193.145.041.317.072.514.092v.194zM42.548 4.807l1.868.001 4.214 5.248.003-4.028c0-.235-.016-.423-.05-.561a.667.667 0 0 0-.144-.307.424.424 0 0 0-.232-.128 1.64 1.64 0 0 0-.312-.027h-.244v-.194l2.414.002v.194h-.252c-.122 0-.228.01-.32.03a.409.409 0 0 0-.228.139.723.723 0 0 0-.137.307c-.031.133-.047.315-.047.546l-.004 5.889h-.183l-4.543-5.633-.003 4.302c0 .24.016.43.049.565.032.136.079.237.14.303.06.067.136.108.227.123.091.016.195.023.311.023h.243v.195l-2.402-.002V11.6h.244c.121 0 .228-.01.32-.03a.436.436 0 0 0 .232-.135.66.66 0 0 0 .141-.303c.03-.133.046-.315.046-.545l.004-4.855a5.745 5.745 0 0 0-.254-.292 1.67 1.67 0 0 0-.192-.177.958.958 0 0 0-.197-.115c-.071-.031-.16-.064-.265-.1A1.646 1.646 0 0 0 42.548 5v-.194zM56.148 9.078l-1.166-2.816-1.2 2.814 2.366.002zm.144.388-2.67-.003-.472 1.1c-.111.272-.167.474-.167.607 0 .057.009.108.027.154a.279.279 0 0 0 .114.127c.058.039.14.072.244.1.104.029.243.048.415.058v.195l-2.178-.002v-.195a1.49 1.49 0 0 0 .419-.114.823.823 0 0 0 .274-.212c.076-.09.146-.205.21-.349l.232-.53 2.432-5.735h.175l2.397 5.801c.097.241.187.435.27.58.084.146.17.26.26.342a.728.728 0 0 0 .29.17c.103.03.23.048.377.054v.194l-2.734-.003v-.194c.273-.01.459-.054.557-.134a.359.359 0 0 0 .148-.288c-.005-.148-.073-.39-.204-.723l-.416-1zM67.164 9.89l.169.031-.6 1.894-5.338-.005v-.194h.265c.283 0 .49-.094.622-.283.07-.113.106-.366.107-.76l.003-4.51c0-.43-.047-.701-.143-.814-.131-.154-.326-.231-.584-.231H61.4v-.195l3.129.003v.194c-.188 0-.343.01-.467.027a1.313 1.313 0 0 0-.307.076.565.565 0 0 0-.304.273c-.05.103-.076.366-.077.792l-.003 4.39c0 .24.017.415.052.523a.345.345 0 0 0 .213.223c.09.031.356.046.796.047h.5c.532 0 .903-.038 1.116-.114.106-.036.207-.087.303-.154.097-.066.19-.153.281-.26.092-.108.18-.238.266-.392.086-.153.175-.34.266-.56M74.336 5.029v-.194l2.969.002v.194h-.252c-.286 0-.492.084-.619.253-.082.103-.123.366-.123.792l-.003 3.411c0 .538-.06.966-.176 1.284a2.008 2.008 0 0 1-.233.457 1.84 1.84 0 0 1-.356.388 1.702 1.702 0 0 1-.462.268c-.17.066-.355.1-.553.1-.163 0-.308-.022-.435-.066a.97.97 0 0 1-.32-.176.83.83 0 0 1-.202-.254.643.643 0 0 1-.072-.295c0-.194.056-.332.168-.414a.587.587 0 0 1 .498-.107.31.31 0 0 1 .145.085.954.954 0 0 1 .152.208c.054.092.113.217.18.376.075.184.178.276.306.276.092 0 .178-.056.257-.169.08-.112.12-.312.12-.6l.004-4.773c0-.164-.003-.297-.008-.4a1.075 1.075 0 0 0-.038-.253.372.372 0 0 0-.088-.158.737.737 0 0 0-.148-.112.964.964 0 0 0-.459-.123h-.252zM83.744 5.07c-.35 0-.66.075-.93.225-.272.152-.5.366-.685.646-.186.279-.327.617-.423 1.014a5.705 5.705 0 0 0-.146 1.34c0 .492.047.942.14 1.35.093.407.232.758.417 1.053.185.294.414.523.687.684.274.162.588.243.943.243.319 0 .614-.061.885-.184.271-.122.508-.313.711-.572.203-.258.362-.588.476-.99.114-.402.172-.883.172-1.441 0-.528-.046-1-.14-1.418a3.195 3.195 0 0 0-.424-1.061c-.19-.29-.425-.51-.706-.662a2.033 2.033 0 0 0-.977-.228m.098-.377c.44 0 .862.093 1.262.278.4.185.753.439 1.057.762a3.712 3.712 0 0 1 .995 2.567 3.92 3.92 0 0 1-.272 1.467c-.18.45-.424.84-.731 1.171a3.33 3.33 0 0 1-1.08.775c-.414.187-.854.28-1.32.28-.472 0-.913-.09-1.324-.27a3.176 3.176 0 0 1-1.068-.758 3.606 3.606 0 0 1-.714-1.165 4.086 4.086 0 0 1-.261-1.49c0-.503.088-.974.263-1.414a3.58 3.58 0 0 1 .724-1.148 3.413 3.413 0 0 1 1.092-.772c.421-.189.88-.283 1.377-.283" fill="#111"/>
        <g transform="translate(89.535 4.848)">
            <mask id="hud6jt7yqd" fill="#fff">
                <use xlink:href="#c5c6m7lahc"/>
            </mask>
            <path d="M4.933.198V.004l2.445.002V.2h-.26a.715.715 0 0 0-.626.346c-.072.102-.107.35-.108.745l-.002 2.828c0 .686-.072 1.232-.214 1.636a1.887 1.887 0 0 1-.808.987c-.204.126-.441.225-.712.3a3.55 3.55 0 0 1-.933.11c-.38 0-.713-.034-.997-.1a2.366 2.366 0 0 1-.73-.294 1.816 1.816 0 0 1-.502-.461 2.366 2.366 0 0 1-.32-.607C1.056 5.377 1 4.803 1 3.968l.003-2.728c0-.215-.014-.39-.042-.526A.76.76 0 0 0 .83.394.459.459 0 0 0 .597.238 1.143 1.143 0 0 0 .266.195H0V0l2.99.003v.194h-.266c-.122 0-.229.012-.32.038a.443.443 0 0 0-.228.15.782.782 0 0 0-.141.314c-.033.136-.05.317-.05.542l-.002 3.04c0 .308.02.607.06.9.04.291.124.55.25.779.127.228.309.41.545.546.236.135.55.203.941.204a2.563 2.563 0 0 0 1.216-.299c.17-.092.319-.203.446-.333a1.29 1.29 0 0 0 .282-.426c.132-.302.2-.83.2-1.582l.002-2.826c0-.43-.048-.702-.144-.815C5.648.276 5.452.2 5.193.2h-.26z" fill="#111" mask="url(#hud6jt7yqd)"/>
        </g>
        <path d="M101.263 8.247c.066 0 .123.002.172.005l.118.003c.33 0 .62-.037.868-.114.249-.077.457-.184.625-.322.167-.138.294-.3.377-.487.084-.186.126-.39.127-.61 0-.215-.036-.413-.106-.595a1.343 1.343 0 0 0-.777-.772 1.639 1.639 0 0 0-.601-.108c-.208 0-.475.033-.8.1l-.003 2.9zm4.909 3.602h-1.842l-2.342-3.275a9.88 9.88 0 0 1-.42.015 2.675 2.675 0 0 1-.305-.015l-.001 2.031c0 .246.016.44.048.581a.7.7 0 0 0 .144.316c.063.069.139.111.227.127.089.015.189.023.3.023h.272v.194l-2.957-.002v-.194h.265c.283 0 .49-.094.622-.284.071-.112.107-.366.107-.76l.004-4.51c0-.43-.048-.7-.144-.814-.131-.153-.326-.23-.583-.23H99.3v-.195l2.518.002c.37 0 .69.015.958.043.269.028.49.07.662.127.172.057.334.135.486.235a1.703 1.703 0 0 1 .669.833c.065.174.098.36.098.56 0 .435-.138.808-.412 1.12-.275.311-.704.533-1.288.666l1.423 2.003c.167.23.315.42.445.57.129.149.258.266.387.354.13.087.267.151.411.193.145.041.316.072.514.092v.194zM107.719 4.864l1.868.002 4.214 5.248.003-4.028c0-.235-.016-.423-.05-.561a.664.664 0 0 0-.143-.307.425.425 0 0 0-.233-.128 1.644 1.644 0 0 0-.312-.027h-.244v-.194l2.414.002v.194h-.251c-.123 0-.23.01-.32.03a.408.408 0 0 0-.23.138.72.72 0 0 0-.136.308c-.031.133-.046.315-.046.546l-.005 5.888h-.183l-4.543-5.632-.003 4.302c0 .24.016.429.049.565.032.136.08.236.14.303.06.067.136.108.227.123.092.016.195.023.312.023h.242v.195l-2.402-.002v-.195h.244c.122 0 .228-.01.32-.03a.436.436 0 0 0 .232-.134.66.66 0 0 0 .141-.303c.03-.133.046-.315.046-.545l.004-4.855a5.745 5.745 0 0 0-.253-.293 1.647 1.647 0 0 0-.193-.176.946.946 0 0 0-.197-.116 3.672 3.672 0 0 0-.265-.1 1.648 1.648 0 0 0-.447-.046v-.195zM119.6 5.263l-.002 2.75h1.515c.224 0 .404-.02.541-.06a.724.724 0 0 0 .324-.184.665.665 0 0 0 .164-.315c.03-.128.051-.279.062-.453h.192l-.002 2.426h-.192a4.542 4.542 0 0 0-.088-.498.71.71 0 0 0-.16-.318.617.617 0 0 0-.308-.17 2.28 2.28 0 0 0-.533-.05l-1.516-.001-.002 2.307c0 .175.003.313.007.415a.47.47 0 0 0 .06.235.25.25 0 0 0 .168.104c.076.015.188.023.335.023h1.17c.197.001.364-.004.501-.014s.255-.03.354-.06a.92.92 0 0 0 .262-.127 2.16 2.16 0 0 0 .243-.203c.203-.199.419-.518.647-.957h.204l-.6 1.752-5.327-.005v-.194h.244a1.069 1.069 0 0 0 .409-.088.645.645 0 0 0 .172-.11c.051-.047.087-.1.107-.162.041-.113.062-.338.062-.676l.004-4.533c0-.445-.043-.719-.13-.821-.122-.139-.328-.208-.618-.208h-.244v-.195l5.328.005-.001 1.53h-.118a3.86 3.86 0 0 0-.163-.601.854.854 0 0 0-.232-.35.725.725 0 0 0-.37-.157 3.859 3.859 0 0 0-.574-.035l-1.895-.002zM130 4.885l2.412.002v.194h-.137c-.192 0-.4.088-.623.264-.222.176-.468.482-.737.917l-1.677 2.65-.002 1.75c0 .236.016.422.05.558a.66.66 0 0 0 .143.303c.064.067.142.11.236.127.093.018.201.027.322.027h.22v.194l-2.936-.002v-.194h.251c.122 0 .229-.01.32-.03a.42.42 0 0 0 .229-.134.688.688 0 0 0 .137-.303c.03-.133.046-.315.046-.546l.002-1.66-1.89-2.92a27.744 27.744 0 0 0-.285-.42 2.983 2.983 0 0 0-.171-.225 2.02 2.02 0 0 0-.103-.093 1.061 1.061 0 0 0-.178-.119 1.647 1.647 0 0 0-.236-.104.811.811 0 0 0-.273-.046V4.88l2.957.003v.194h-.152a.993.993 0 0 0-.228.027.71.71 0 0 0-.205.08.44.44 0 0 0-.148.142.367.367 0 0 0-.057.204.537.537 0 0 0 .075.257c.055.11.134.248.234.411l1.43 2.252 1.37-2.15c.195-.312.297-.552.308-.721a.978.978 0 0 0-.05-.2.364.364 0 0 0-.115-.158.603.603 0 0 0-.21-.104 1.19 1.19 0 0 0-.33-.038v-.194z" fill="#111"/>
    </g>
</svg>
