<?xml version="1.0" encoding="iso-8859-1"?>
<!-- Generator: Adobe Illustrator 22.0.1, SVG Export Plug-In . SVG Version: 6.00 Build 0)  -->
<svg version="1.1" id="&#xB808;&#xC774;&#xC5B4;_1" xmlns="http://www.w3.org/2000/svg" xmlns:xlink="http://www.w3.org/1999/xlink"
	 x="0px" y="0px" viewBox="0 0 91.276 109.89" style="enable-background:new 0 0 91.276 109.89;" xml:space="preserve">
<g>
	<path style="stroke:#000000;stroke-miterlimit:10;" d="M70.435,34.463c1.002,0,1.817-0.815,1.817-1.817V28.52
		c0-7.005-5.699-12.705-12.705-12.705H45.854c-0.641,0-1.161,0.52-1.161,1.161c0,0.641,0.52,1.161,1.161,1.161h13.693
		c5.726,0,10.384,4.658,10.384,10.384v3.62h-52.03v-3.62c0-5.726,4.658-10.384,10.384-10.384h20.009c0.641,0,1.161-0.52,1.161-1.161
		c0-0.641-0.52-1.161-1.161-1.161H28.285c-7.006,0-12.705,5.7-12.705,12.705v4.125c0,1.002,0.815,1.817,1.817,1.817h0.921v3.481
		h-0.921c-1.002,0-1.817,0.815-1.817,1.817v4.126c0,5.116,3.041,9.533,7.41,11.545c-4.369,2.012-7.41,6.428-7.41,11.545v4.125
		c0,1.002,0.815,1.817,1.817,1.817h0.921v3.481h-0.921c-1.002,0-1.817,0.815-1.817,1.817v4.125c0,7.006,5.699,12.705,12.705,12.705
		h31.262c7.006,0,12.705-5.699,12.705-12.705v-4.125c0-1.002-0.815-1.817-1.817-1.817h-0.823v-3.481h0.823
		c1.002,0,1.817-0.815,1.817-1.817v-4.125c0-5.116-3.041-9.533-7.41-11.545c4.369-2.012,7.41-6.428,7.41-11.545V39.76
		c0-1.002-0.815-1.817-1.817-1.817h-0.823v-3.481L70.435,34.463L70.435,34.463z M69.931,82.339c0,5.726-4.658,10.384-10.384,10.384
		H28.285c-5.726,0-10.384-4.658-10.384-10.384v-3.62l5.464,0.002v7.25c0,2.269,1.846,4.114,4.114,4.114
		c2.269,0,4.115-1.846,4.115-4.114v-5.46c0-0.987,0.803-1.79,1.79-1.79c0.987,0,1.79,0.803,1.79,1.79v0.584
		c0,2.269,1.846,4.115,4.115,4.115c2.269,0,4.115-1.846,4.115-4.115v-2.374h25.048c0.013,0,0.026-0.002,0.039-0.002h1.44V82.339z
		 M69.931,66.974v3.62H37.005c-0.641,0-1.161,0.52-1.161,1.161c0,0.641,0.52,1.161,1.161,1.161h30.286v3.483H43.027
		c-1.072,0-1.943,0.871-1.943,1.942v2.753c0,0.989-0.804,1.793-1.793,1.793c-0.99,0-1.794-0.804-1.794-1.793v-0.584
		c0-2.267-1.844-4.111-4.111-4.111s-4.111,1.844-4.111,4.111v5.46c0,0.989-0.805,1.793-1.794,1.793
		c-0.989,0-1.793-0.804-1.793-1.793v-7.629c0-1.071-0.872-1.942-1.943-1.942h-3.104v-3.483h19.905c0.641,0,1.161-0.519,1.161-1.161
		c0-0.641-0.519-1.161-1.161-1.161H17.901v-3.62c0-5.726,4.658-10.384,10.384-10.384h31.262
		C65.273,56.59,69.931,61.249,69.931,66.974L69.931,66.974z M69.931,43.885c0,5.726-4.658,10.384-10.384,10.384H28.285
		c-5.726,0-10.384-4.658-10.384-10.384v-3.621l25.983,0.002v3.829c0,2.269,1.846,4.115,4.115,4.115s4.114-1.847,4.114-4.115v-2.039
		c0-0.987,0.804-1.79,1.79-1.79c0.987,0,1.791,0.803,1.791,1.79v4.004c0,2.269,1.846,4.115,4.114,4.115
		c2.269,0,4.115-1.846,4.115-4.115v-5.794l6.006-0.002V43.885z M67.291,37.945h-3.745c-1.071,0-1.942,0.871-1.942,1.942v6.174
		c0,0.989-0.805,1.793-1.794,1.793c-0.989,0-1.793-0.804-1.793-1.793v-4.005c0-2.266-1.845-4.111-4.112-4.111
		c-2.266,0-4.111,1.845-4.111,4.111v2.04c0,0.989-0.804,1.793-1.793,1.793c-0.989,0-1.794-0.804-1.794-1.793v-4.208
		c0-1.072-0.871-1.943-1.942-1.943H20.639v-3.483h46.652V37.945z M67.291,37.945"/>
</g>
</svg>
