<?xml version="1.0" encoding="iso-8859-1"?>
<!-- Generator: Adobe Illustrator 22.0.1, SVG Export Plug-In . SVG Version: 6.00 Build 0)  -->
<svg version="1.1" id="&#xB808;&#xC774;&#xC5B4;_1" xmlns="http://www.w3.org/2000/svg" xmlns:xlink="http://www.w3.org/1999/xlink"
	 x="0px" y="0px" viewBox="0 0 299.243 424.946" style="enable-background:new 0 0 299.243 424.946;" xml:space="preserve">
<g>
	<path d="M124.771,250.626c0-3.105-2.519-5.625-5.625-5.625c-3.105,0-5.625,2.52-5.625,5.625s2.52,5.625,5.625,5.625
		C122.252,256.251,124.771,253.731,124.771,250.626L124.771,250.626z M124.771,250.626"/>
	<path d="M163.217,245.001c3.105,0,5.625-2.52,5.625-5.625s-2.52-5.625-5.625-5.625c-3.106,0-5.625,2.52-5.625,5.625
		S160.111,245.001,163.217,245.001L163.217,245.001z M163.217,245.001"/>
	<path d="M207.287,256.935c3.106,0,5.625-2.52,5.625-5.625c0-3.106-2.519-5.625-5.625-5.625c-3.105,0-5.625,2.519-5.625,5.625
		C201.662,254.415,204.182,256.935,207.287,256.935L207.287,256.935z M207.287,256.935"/>
	<path d="M182.416,268.185c3.109,0,5.625-2.52,5.625-5.625c0-3.106-2.516-5.625-5.625-5.625c-3.106,0-5.625,2.519-5.625,5.625
		C176.791,265.665,179.31,268.185,182.416,268.185L182.416,268.185z M182.416,268.185"/>
	<path d="M145.314,266.052c3.106,0,5.625-2.52,5.625-5.625c0-3.106-2.519-5.625-5.625-5.625c-3.105,0-5.625,2.519-5.625,5.625
		C139.689,263.532,142.209,266.052,145.314,266.052L145.314,266.052z M145.314,266.052"/>
	<path d="M101.963,365.313c-13.016,1.227-23.238,12.211-23.238,25.543c0,7.524,6.121,13.645,13.64,13.645h54.415
		c3.109,0,5.625-2.52,5.625-5.625c0-3.109-2.516-5.625-5.625-5.625H92.365c-1.316,0-2.39-1.074-2.39-2.395
		c0-7.945,6.464-14.41,14.41-14.41h114.316c7.945,0,14.41,6.465,14.41,14.41c0,1.321-1.074,2.395-2.394,2.395h-89.364
		c-3.109,0-5.625,2.516-5.625,5.625c0,3.105,2.516,5.625,5.625,5.625h89.364c7.523,0,13.644-6.121,13.644-13.645
		c0-13.332-10.222-24.316-23.242-25.543l28.203-215.55c9.883-1.02,17.621-9.399,17.621-19.551c0-10.836-8.816-19.649-19.652-19.649
		h-19.27c2.039-6.609,3.075-13.476,3.075-20.507c0-38.352-31.2-69.555-69.555-69.555c-10.195,0-20.024,2.156-29.211,6.414
		c-2.816,1.305-4.047,4.648-2.738,7.469c1.308,2.82,4.652,4.047,7.468,2.738c7.692-3.562,15.93-5.371,24.481-5.371
		c25.004,0,46.375,15.824,54.644,37.977h-7.128c-7.317,0-13.27,5.953-13.27,13.269v27.524c0,2.132-0.887,4.23-2.434,5.75
		c-1.457,1.429-3.324,2.187-5.273,2.164c-4.094-0.075-7.426-3.469-7.426-7.567v-11.59c0-9.55-7.773-17.324-17.328-17.324
		c-9.551,0-17.324,7.774-17.324,17.324v79.016c0,2.133-0.887,4.227-2.434,5.746c-1.457,1.43-3.308,2.195-5.273,2.164
		c-4.094-0.074-7.426-3.465-7.426-7.566v-0.528c0-0.019,0-0.043,0-0.062V82.997c0-7.316-5.953-13.269-13.266-13.269h-10.707
		c2.629-7.063,6.614-13.614,11.848-19.266c2.109-2.281,1.973-5.84-0.309-7.949c-2.281-2.11-5.839-1.973-7.949,0.308
		c-6.804,7.352-11.859,15.977-14.953,25.285L80.045,49.345c-4.957-6.008-12.266-9.668-20.047-10.039
		c-7.785-0.375-15.406,2.574-20.914,8.082c-5.508,5.511-8.457,13.133-8.086,20.914c0.371,7.785,4.031,15.09,10.039,20.051
		l28.254,23.32c-7.648,2.691-13.148,9.984-13.148,18.543c0,10.148,7.734,18.527,17.621,19.547L101.963,365.313z M113.295,365.196
		l-2.145-16.386c2.196,0.418,4.43,0.64,6.668,0.64c8.032,0,15.653-2.652,21.875-7.527c6.035,4.711,13.617,7.531,21.852,7.531
		c8.035,0,15.644-2.648,21.863-7.519c6.203,4.824,13.918,7.519,21.859,7.519c2.239,0,4.473-0.226,6.668-0.644l-2.144,16.39h-96.496
		V365.196z M119.619,173.181c-1.332,0.109-2.723,0.172-4.203,0.172c-10.133,0-14.902-2.532-20.426-5.457
		c-2.461-1.305-4.988-2.641-8.004-3.79l-1.863-14.238h34.496V173.181z M95.248,227.274c4.902,2.188,10.977,4.008,20.168,4.008
		c12.93,0,19.711-3.597,25.695-6.769c5.524-2.926,10.293-5.457,20.426-5.457s14.902,2.531,20.43,5.457
		c5.984,3.172,12.765,6.769,25.699,6.769c9.191,0,15.269-1.82,20.172-4.011l-7.141,54.558c-4.769-2.301-10.035-3.523-15.43-3.523
		c-7.945,0-15.66,2.695-21.859,7.515c-6.226-4.867-13.84-7.515-21.867-7.515c-8.231,0-15.813,2.816-21.848,7.531
		c-6.218-4.879-13.84-7.531-21.875-7.531c-5.394,0-10.66,1.222-15.433,3.523L95.248,227.274z M213.51,336.771
		c-2.625,0.949-5.387,1.429-8.243,1.429c-6.804,0-13.109-2.734-17.761-7.711c-4.231-4.511-6.563-10.41-6.563-16.609
		c0-6.203,2.332-12.102,6.571-16.621c4.644-4.969,10.949-7.703,17.753-7.703c4.985,0,9.809,1.531,13.852,4.343L213.51,336.771z
		 M103.963,293.899c4.047-2.812,8.867-4.343,13.855-4.343c5.16,0,10.067,1.601,14.164,4.554c-3.797,5.657-6.015,12.457-6.015,19.77
		c0,7.309,2.222,14.113,6.015,19.769c-4.097,2.954-9.007,4.555-14.164,4.555c-2.855,0-5.617-0.484-8.246-1.433L103.963,293.899z
		 M137.217,313.88c0-13.414,10.914-24.324,24.324-24.324c5.156,0,10.059,1.597,14.164,4.547c-3.902,5.812-6.012,12.656-6.012,19.777
		s2.114,13.965,6.008,19.773c-4.098,2.953-9,4.551-14.16,4.551C148.131,338.204,137.217,327.29,137.217,313.88L137.217,313.88z
		 M207.037,82.997c0-1.113,0.906-2.019,2.02-2.019h10.082c0.461,2.961,0.707,5.992,0.707,9.078c0,7.086-1.246,13.968-3.707,20.507
		h-9.102c0-0.015,0-0.027,0-0.042V82.997z M187.877,129.685c5.019,0.105,9.73-1.825,13.359-5.391
		c0.781-0.766,1.489-1.602,2.125-2.481h43.93c4.633,0,8.402,3.766,8.402,8.399c0,4.637-3.769,8.402-8.402,8.402h-22.18
		c-3.105,0-5.625,2.52-5.625,5.625c0,3.11,2.52,5.625,5.625,5.625h12.852l-1.863,14.239c-3.016,1.148-5.547,2.484-8.008,3.789
		c-5.524,2.929-10.297,5.457-20.426,5.457c-10.137,0-14.906-2.528-20.43-5.457c-5.984-3.172-12.769-6.766-25.699-6.766
		c-1.488,0-2.902,0.063-4.285,0.156v-11.418h74.309c3.106,0,5.625-2.515,5.625-5.625c0-3.105-2.519-5.625-5.625-5.625h-74.309
		v-16.801h15.707C176.318,126.478,181.752,129.571,187.877,129.685L187.877,129.685z M163.33,93.204
		c3.348,0,6.074,2.727,6.074,6.074v11.285h-12.152V99.278C157.252,95.931,159.978,93.204,163.33,93.204L163.33,93.204z
		 M138.092,197.454c0.109,0.004,0.222,0.004,0.336,0.004c4.863,0,9.476-1.906,13.023-5.391c3.688-3.621,5.801-8.64,5.801-13.773
		v-5.738c1.355-0.114,2.773-0.18,4.285-0.18c10.133,0,14.902,2.531,20.426,5.457c5.984,3.176,12.769,6.77,25.699,6.77
		s19.715-3.598,25.699-6.77c0.34-0.18,0.676-0.355,1.012-0.535l-4.773,36.484c-0.512,0.266-1.012,0.531-1.508,0.793
		c-5.524,2.93-10.297,5.457-20.43,5.457s-14.902-2.527-20.43-5.457c-5.98-3.172-12.765-6.765-25.695-6.765
		c-12.93,0-19.711,3.593-25.695,6.765c-5.524,2.93-10.297,5.457-20.426,5.457c-10.133,0-14.902-2.527-20.426-5.457
		c-0.496-0.262-1.004-0.519-1.504-0.781l-4.773-36.492c0.332,0.176,0.668,0.355,1.008,0.535c5.984,3.172,12.765,6.766,25.695,6.766
		c1.785,0,3.48-0.079,5.117-0.211C122.951,191.825,129.904,197.306,138.092,197.454L138.092,197.454z M117.6,80.978
		c1.113,0,2.019,0.906,2.019,2.019v27.566h-12.672c-2.461-6.539-3.711-13.421-3.711-20.507c0-3.063,0.25-6.094,0.719-9.078H117.6z
		 M42.236,67.767c-0.222-4.692,1.481-9.102,4.801-12.422c3.32-3.321,7.73-5.024,12.422-4.801c4.691,0.223,8.922,2.34,11.91,5.961
		L92.463,82.06c-0.305,2.64-0.477,5.308-0.477,7.996c0,7.031,1.035,13.898,3.074,20.507h-9.445L48.197,79.677
		C44.576,76.689,42.459,72.458,42.236,67.767L42.236,67.767z M67.393,130.216c0-4.633,3.765-8.403,8.398-8.403h43.828v16.805H75.791
		C71.158,138.618,67.393,134.849,67.393,130.216L67.393,130.216z M67.393,130.216"/>
	<line style="fill:none;" x1="30.955" y1="20.501" x2="30.955" y2="404.501"/>
	<line style="fill:none;" x1="266.955" y1="404.501" x2="266.955" y2="20.501"/>
	<path style="stroke:#000000;stroke-width:11;stroke-miterlimit:10;" d="M107.245,56.778c0,0,10.74-21.169,36.088-27.779"/>
</g>
</svg>
