<?xml version="1.0" encoding="iso-8859-1"?>
<!-- Generator: Adobe Illustrator 22.0.1, SVG Export Plug-In . SVG Version: 6.00 Build 0)  -->
<svg version="1.1" id="&#xB808;&#xC774;&#xC5B4;_1" xmlns="http://www.w3.org/2000/svg" xmlns:xlink="http://www.w3.org/1999/xlink"
	 x="0px" y="0px" viewBox="0 0 55.303 40.93" style="enable-background:new 0 0 55.303 40.93;" xml:space="preserve">
<g>
	<path style="fill:none;" d="M34.291,31.326c0.011,0,0.022,0.001,0.033,0.002l3.88,0.009c0.006,0,0.011,0,0.017,0
		c0.875,0,3.766-0.146,5.451-1.958c0.988-1.062,1.417-2.558,1.275-4.446C44.652,21,43.5,17.795,41.805,15.266l0.007,1.127
		c0.006,0.908-0.34,1.713-0.973,2.266c-0.134,0.117-0.279,0.22-0.433,0.31c0.479,0.772,0.715,1.723,0.826,2.341
		c0.254,1.418,0.195,2.958-0.158,4.119c-0.471,1.552-1.423,2.406-2.679,2.406H24.01c-1.641-0.006-2.773-1.049-2.92-2.626
		c-0.23-2.467,1.918-5.676,5.367-6.337c3.345-0.642,5.739,0.776,6.868,1.678c0.895,0.715,1.869,1.834,1.893,2.602
		c0.013,0.402-0.302,0.738-0.704,0.751c-0.387,0.014-0.713-0.28-0.748-0.66c-0.072-0.224-0.673-1.17-1.962-1.993
		c-1.055-0.674-2.792-1.386-5.073-0.948c-1.264,0.242-2.402,0.947-3.206,1.983c-0.686,0.885-1.064,1.954-0.986,2.789
		c0.078,0.835,0.576,1.302,1.476,1.305h14.374c0.002,0,0.003,0,0.005,0c0.577,0,1.01-0.462,1.287-1.374
		c0.603-1.984,0.072-4.755-0.767-5.604c-0.201,0.008-0.404,0-0.606-0.029c-1.476-0.21-2.932-1.499-2.657-3.831
		c0.005-0.224,0.006-0.545,0.007-0.856c0.001-0.335,0.002-0.682,0.008-0.923c0-0.003,0-0.006,0-0.009
		c0.012-0.315-0.282-0.547-0.459-0.658c-0.561-0.35-1.375-0.422-1.854-0.165c-0.268,0.144-0.398,0.379-0.409,0.739v0.611
		c-0.001,0.476-0.202,0.934-0.566,1.291c-0.46,0.451-1.126,0.706-1.836,0.692c-1.297-0.018-2.315-0.911-2.315-2.033v-1.733
		c0-0.191-0.068-0.325-0.222-0.435c-0.179-0.128-0.449-0.201-0.74-0.201c-0.408,0-1.014,0.166-1.014,0.624v2.271
		c0,1.122-1.018,2.015-2.318,2.033c-0.694,0.009-1.356-0.24-1.807-0.685c-0.364-0.359-0.564-0.82-0.564-1.3v-1.208
		c-0.023-0.794-0.49-1.075-0.929-1.075c-0.007,0-0.014,0-0.02,0c-0.536,0.01-1.07,0.422-1.058,1.318
		c0.005,0.236,0.003,0.972,0.001,1.751c-0.002,0.771-0.005,1.643,0.001,1.899c0.091,1.249-0.369,1.986-0.773,2.385
		c-0.527,0.521-1.187,0.725-1.72,0.798c-0.389,0.311-0.708,1-0.866,1.887c-0.2,1.125-0.125,2.413,0.212,3.626
		c0.428,1.541,1.944,5.116,6.782,5.116c0.014,0,0.029,0,0.043,0c0.064,0,0.126,0.009,0.185,0.025h10.166h0.002H34.291z"/>
	<path style="fill:none;" d="M25.474,6.447L24.968,6.54c0,0.003-0.001,0.006-0.001,0.009c0.602-0.08,1.212-0.132,1.829-0.156
		c1.08-0.04,2.148,0.009,3.197,0.141l-0.008-0.001l0.008,0.001c0.011,0.001,0.023,0.003,0.034,0.004
		c-0.009-0.065-0.021-0.129-0.036-0.193h-4.987c-0.014,0.064-0.026,0.129-0.036,0.195L25.474,6.447z M29.902,6.522L29.886,6.52
		L29.902,6.522z"/>
	<path style="fill:none;" d="M14.765,22.305c0.126-0.711,0.337-1.329,0.619-1.83c-0.798-0.373-1.487-1.221-1.469-2.738l-0.013-2.921
		c-1.773,2.618-2.877,5.991-2.877,10.155c0,5.736,4.419,6.355,6.32,6.355h0.904c-0.211-0.147-0.416-0.303-0.613-0.472
		c-1.237-1.061-2.146-2.541-2.628-4.279C14.614,25.156,14.528,23.64,14.765,22.305z"/>
	<path style="fill:none;" d="M39.91,12.93c-2.595-2.657-5.908-4.232-9.288-4.824c-0.002,0-0.004,0-0.004,0v0
		c-1.258-0.22-2.525-0.305-3.768-0.258c-4.128,0.155-8.427,1.835-11.501,5.146l0.021,4.742c0,0.004,0,0.009,0,0.013
		c-0.012,0.909,0.331,1.44,0.967,1.498c0.427,0.038,1.058-0.046,1.423-0.408c0.272-0.269,0.387-0.692,0.344-1.258
		c-0.001-0.012-0.001-0.024-0.002-0.037c-0.006-0.254-0.004-1.082-0.002-1.958c0.002-0.74,0.005-1.504,0-1.719v-0.005
		c-0.027-1.784,1.26-2.773,2.484-2.797c0.016,0,0.032,0,0.047,0c1.164,0,2.347,0.851,2.387,2.503c0,0.006,0,0.012,0,0.018v1.218
		c0,0.111,0.071,0.205,0.131,0.263c0.173,0.171,0.459,0.273,0.765,0.266c0.52-0.007,0.883-0.31,0.883-0.577v-2.272
		c0-0.652,0.305-1.224,0.859-1.607c0.439-0.304,1.011-0.472,1.611-0.472c1.401,0,2.417,0.88,2.417,2.091v1.734
		c0,0.267,0.362,0.57,0.881,0.577c0.312,0.008,0.616-0.101,0.794-0.276c0.059-0.058,0.13-0.149,0.13-0.254V13.66
		c0-0.006,0-0.012,0-0.018c0.022-0.889,0.439-1.597,1.174-1.993c0.94-0.507,2.303-0.42,3.314,0.211
		c0.755,0.471,1.171,1.179,1.143,1.944c-0.006,0.224-0.007,0.56-0.008,0.885c-0.001,0.335-0.002,0.682-0.009,0.924
		c-0.001,0.024-0.002,0.048-0.005,0.071c-0.185,1.481,0.609,2.131,1.414,2.246c0.509,0.073,1.02-0.065,1.368-0.368
		c0.318-0.277,0.478-0.668,0.475-1.16l-0.019-3.004C40.194,13.239,40.052,13.083,39.91,12.93z"/>
	<path d="M31.505,6.783"/>
	<path d="M46.399,24.823c-0.443-5.885-2.773-10.761-6.74-14.101c-2.263-1.905-4.953-3.22-7.85-3.871
		c-0.101-0.023-0.203-0.045-0.305-0.066c0-0.001,0-0.001,0-0.002l-1.512-0.249c-1.049-0.132-2.118-0.181-3.197-0.141
		c-0.616,0.023-1.227,0.076-1.829,0.156c0-0.003,0.001-0.006,0.001-0.009l-1.724,0.318c-0.066,0.015-0.132,0.03-0.197,0.046
		c-3.11,0.743-5.927,2.258-8.16,4.425c-3.478,3.376-5.317,8.093-5.317,13.642c0,3.757,1.712,5.637,3.149,6.552
		c1.718,1.095,3.636,1.259,4.627,1.259h16.24c-0.402-0.001-0.727-0.328-0.726-0.73c0.001-0.402,0.326-0.726,0.728-0.726H23.421
		c-0.059-0.015-0.121-0.025-0.185-0.025c-0.014,0-0.029,0-0.043,0c-4.838,0-6.355-3.576-6.782-5.116
		c-0.337-1.213-0.412-2.5-0.212-3.626c0.158-0.887,0.476-1.576,0.866-1.887c0.533-0.073,1.193-0.277,1.72-0.798
		c0.404-0.399,0.864-1.136,0.773-2.385c-0.006-0.256-0.003-1.128-0.001-1.899c0.002-0.779,0.004-1.515-0.001-1.751
		c-0.013-0.896,0.522-1.308,1.058-1.318c0.007,0,0.014,0,0.02,0c0.439,0,0.907,0.281,0.929,1.075v1.208c0,0.48,0.2,0.942,0.564,1.3
		c0.451,0.445,1.113,0.694,1.807,0.685c1.3-0.018,2.318-0.911,2.318-2.033v-2.271c0-0.458,0.607-0.624,1.014-0.624
		c0.291,0,0.561,0.073,0.74,0.201c0.153,0.11,0.222,0.244,0.222,0.435v1.733c0,1.122,1.017,2.015,2.315,2.033
		c0.709,0.013,1.376-0.241,1.836-0.692c0.364-0.357,0.565-0.815,0.566-1.291V13.67c0.011-0.36,0.141-0.595,0.409-0.739
		c0.478-0.258,1.292-0.186,1.854,0.165c0.177,0.111,0.472,0.343,0.459,0.658c0,0.003,0,0.006,0,0.009
		c-0.006,0.24-0.008,0.587-0.008,0.923c-0.001,0.311-0.002,0.632-0.007,0.856c-0.275,2.332,1.181,3.62,2.657,3.831
		c0.202,0.029,0.405,0.038,0.606,0.029c0.839,0.849,1.369,3.621,0.767,5.604c-0.277,0.912-0.71,1.374-1.287,1.374
		c-0.001,0-0.003,0-0.005,0H24.015c-0.901-0.003-1.399-0.47-1.476-1.305c-0.078-0.835,0.3-1.903,0.986-2.789
		c0.804-1.037,1.942-1.741,3.206-1.983c2.281-0.438,4.018,0.274,5.073,0.948c1.289,0.823,1.89,1.769,1.962,1.993
		c0.035,0.381,0.362,0.674,0.748,0.66c0.402-0.013,0.717-0.349,0.704-0.751c-0.025-0.767-0.999-1.887-1.893-2.602
		c-1.129-0.903-3.523-2.32-6.868-1.678c-3.449,0.661-5.597,3.87-5.367,6.337c0.147,1.577,1.28,2.62,2.92,2.626h14.385
		c1.256,0,2.208-0.854,2.679-2.406c0.353-1.161,0.412-2.7,0.158-4.119c-0.111-0.618-0.347-1.568-0.826-2.341
		c0.154-0.091,0.299-0.194,0.433-0.31c0.633-0.553,0.979-1.357,0.973-2.266l-0.007-1.127c1.695,2.529,2.847,5.734,3.142,9.666
		c0.142,1.887-0.287,3.383-1.275,4.446c-1.685,1.812-4.576,1.958-5.451,1.958c-0.006,0-0.012,0-0.017,0l-3.88-0.009
		c0.386,0.017,0.695,0.335,0.695,0.726c0,0.402-0.326,0.728-0.728,0.728h-0.706l4.616,0.01h0.023c1.301,0,4.486-0.241,6.515-2.423
		C46.014,28.998,46.573,27.132,46.399,24.823z M17.636,30.853c0.197,0.169,0.402,0.326,0.613,0.472h-0.904
		c-1.9,0-6.32-0.619-6.32-6.355c0-4.164,1.104-7.537,2.877-10.155l0.013,2.921c-0.019,1.517,0.671,2.365,1.469,2.738
		c-0.282,0.502-0.493,1.12-0.619,1.83c-0.237,1.335-0.151,2.852,0.243,4.269C15.49,28.313,16.399,29.792,17.636,30.853z
		 M39.882,17.561c-0.348,0.304-0.859,0.441-1.368,0.368c-0.805-0.115-1.6-0.765-1.414-2.246c0.003-0.023,0.005-0.047,0.005-0.071
		c0.006-0.242,0.008-0.588,0.009-0.924c0.001-0.325,0.002-0.661,0.008-0.885c0.028-0.765-0.389-1.473-1.143-1.944
		c-1.011-0.631-2.374-0.718-3.314-0.211c-0.735,0.396-1.152,1.104-1.174,1.993c0,0.006,0,0.012,0,0.018v0.618
		c0,0.105-0.071,0.196-0.13,0.254c-0.178,0.175-0.482,0.284-0.794,0.276c-0.519-0.007-0.881-0.31-0.881-0.577v-1.734
		c0-1.212-1.017-2.091-2.417-2.091c-0.6,0-1.172,0.167-1.611,0.472c-0.554,0.384-0.859,0.955-0.859,1.607v2.272
		c0,0.267-0.362,0.57-0.883,0.577c-0.306,0.007-0.592-0.095-0.765-0.266c-0.06-0.058-0.131-0.152-0.131-0.263v-1.218
		c0-0.006,0-0.012,0-0.018c-0.041-1.652-1.223-2.503-2.387-2.503c-0.016,0-0.031,0-0.047,0c-1.224,0.024-2.511,1.013-2.484,2.797
		v0.005c0.005,0.214,0.003,0.979,0,1.719c-0.003,0.877-0.005,1.705,0.002,1.958c0.001,0.012,0.001,0.024,0.002,0.037
		c0.044,0.566-0.072,0.989-0.344,1.258c-0.365,0.361-0.996,0.446-1.423,0.408c-0.636-0.057-0.979-0.589-0.967-1.498
		c0-0.004,0-0.009,0-0.013l-0.021-4.742c3.074-3.311,7.372-4.991,11.501-5.146c1.243-0.047,2.51,0.038,3.768,0.258v0
		c0.001,0,0.002,0,0.004,0c3.38,0.592,6.693,2.167,9.288,4.824c0.141,0.153,0.284,0.309,0.427,0.467l0.019,3.004
		C40.36,16.894,40.2,17.284,39.882,17.561z"/>
	<path d="M23.331,6.838c-0.029,0.006-0.058,0.014-0.087,0.02C23.244,6.858,23.384,6.826,23.331,6.838z"/>
	<path d="M35.019,32.054c0-0.391-0.308-0.709-0.695-0.726l-0.735-0.002h-0.002c-0.401,0-0.727,0.325-0.728,0.726
		c-0.001,0.402,0.324,0.728,0.726,0.73h0.706C34.693,32.781,35.019,32.456,35.019,32.054z"/>
	<path d="M33.589,31.326l0.735,0.002c-0.011,0-0.022-0.002-0.033-0.002H33.589z"/>
</g>
</svg>
